{"glyphs":{"0":{"ha":1483,"x_min":47,"x_max":1436,"o":"m 615 640 l 568 560 l 568 614 l 615 640 l 615 640 m 394 467 l 375 456 l 394 421 l 394 260 l 290 79 l 140 167 l 315 468 l 394 514 l 394 467 l 394 467 m 542 514 l 442 340 l 394 421 l 394 467 l 525 542 l 542 514 l 542 514 m 568 614 l 394 514 l 394 607 l 418 646 l 568 646 l 568 614 l 568 614 m 528 790 l 658 715 l 642 688 l 442 688 l 488 768 l 528 790 l 528 790 m 696 688 l 615 640 l 642 688 l 696 688 l 696 688 m 315 468 l 133 363 l 47 513 l 349 688 l 442 688 l 418 646 l 394 646 l 394 607 l 315 468 l 315 468 m 694 861 l 769 731 l 742 714 l 568 814 l 649 861 l 694 861 l 694 861 m 788 688 l 696 688 l 742 714 l 788 688 l 788 688 m 528 790 l 508 801 l 488 768 l 349 688 l 140 688 l 140 861 l 488 861 l 568 814 l 528 790 l 528 790 m 874 838 l 874 688 l 842 688 l 742 861 l 835 861 l 874 838 l 874 838 m 868 640 l 788 688 l 842 688 l 868 640 l 868 640 m 694 861 l 683 881 l 649 861 l 488 861 l 307 965 l 394 1115 l 696 940 l 742 861 l 694 861 l 694 861 m 1018 728 l 943 597 l 915 614 l 915 814 l 996 768 l 1018 728 l 1018 728 m 915 560 l 868 640 l 915 614 l 915 560 l 915 560 m 874 838 l 874 861 l 835 861 l 696 940 l 590 1122 l 740 1208 l 915 907 l 915 814 l 874 838 l 874 838 m 1089 561 l 958 486 l 942 514 l 1042 688 l 1089 607 l 1089 561 l 1089 561 m 915 1115 l 1089 1115 l 1089 768 l 1042 688 l 1018 728 l 1029 747 l 996 768 l 915 907 l 915 1115 l 915 1115 m 915 468 l 915 560 l 942 514 l 915 468 l 915 468 m 1089 514 l 1089 421 l 1065 382 l 915 382 l 915 414 l 1089 514 l 1089 514 m 868 388 l 915 468 l 915 414 l 868 388 l 868 388 m 1089 561 l 1108 572 l 1089 607 l 1089 768 l 1193 949 l 1343 861 l 1168 560 l 1089 514 l 1089 561 l 1089 561 m 956 238 l 825 313 l 842 340 l 1042 340 l 996 260 l 956 238 l 956 238 m 788 340 l 868 388 l 842 340 l 788 340 l 788 340 m 1065 382 l 1089 382 l 1089 421 l 1168 560 l 1350 665 l 1436 515 l 1135 340 l 1042 340 l 1065 382 l 1065 382 m 789 167 l 714 297 l 742 314 l 915 214 l 835 167 l 789 167 l 789 167 m 696 340 l 788 340 l 742 314 l 696 340 l 696 340 m 956 238 l 975 226 l 996 260 l 1135 340 l 1343 340 l 1343 167 l 996 167 l 915 214 l 956 238 l 956 238 m 610 190 l 610 340 l 642 340 l 742 167 l 649 167 l 610 190 l 610 190 m 615 388 l 696 340 l 642 340 l 615 388 l 615 388 m 789 167 l 800 147 l 835 167 l 996 167 l 1176 63 l 1089 -87 l 788 88 l 742 167 l 789 167 l 789 167 m 465 300 l 540 431 l 568 414 l 568 214 l 488 260 l 465 300 l 465 300 m 568 468 l 615 388 l 568 414 l 568 468 l 568 468 m 610 190 l 610 167 l 649 167 l 788 88 l 893 -94 l 743 -181 l 568 121 l 568 214 l 610 190 l 610 190 m 568 560 l 568 468 l 542 514 l 568 560 l 568 560 m 465 300 l 454 281 l 488 260 l 568 121 l 568 -87 l 394 -87 l 394 260 l 442 340 l 465 300 l 465 300 z "},"1":{"ha":1483,"x_min":47,"x_max":1436,"o":"m 340 514 l 140 167 l 47 328 l 47 419 l 308 569 l 340 514 l 340 514 m 394 714 l 47 514 l 47 700 l 93 779 l 394 779 l 394 714 l 394 714 m 313 1068 l 574 917 l 542 861 l 140 861 l 233 1022 l 313 1068 l 313 1068 m 647 1208 l 797 947 l 742 915 l 394 1115 l 556 1208 l 647 1208 l 647 1208 m 1007 1163 l 1007 861 l 942 861 l 742 1208 l 928 1208 l 1007 1163 l 1007 1163 m 1296 943 l 1144 682 l 1089 714 l 1089 1115 l 1250 1022 l 1296 943 l 1296 943 m 1436 608 l 1175 458 l 1143 514 l 1343 861 l 1436 700 l 1436 608 l 1436 608 m 1436 514 l 1436 328 l 1390 249 l 1089 249 l 1089 314 l 1436 514 l 1436 514 m 1171 -40 l 910 111 l 942 167 l 1343 167 l 1250 6 l 1171 -40 l 1171 -40 m 836 -181 l 686 81 l 742 113 l 1089 -87 l 928 -181 l 836 -181 l 836 -181 m 488 768 l 394 607 l 394 714 l 488 768 l 488 768 m 476 -135 l 476 167 l 542 167 l 742 -181 l 556 -181 l 476 -135 l 476 -135 m 188 85 l 339 346 l 394 314 l 394 -87 l 233 6 l 188 85 l 188 85 m 649 861 l 488 768 l 542 861 l 649 861 l 649 861 m 835 861 l 649 861 l 742 915 l 835 861 l 835 861 m 996 768 l 835 861 l 942 861 l 996 768 l 996 768 m 1089 607 l 996 768 l 1089 714 l 1089 607 l 1089 607 m 1089 421 l 1089 607 l 1143 514 l 1089 421 l 1089 421 m 996 260 l 1089 421 l 1089 314 l 996 260 l 996 260 m 835 167 l 996 260 l 942 167 l 835 167 l 835 167 m 649 167 l 835 167 l 742 113 l 649 167 l 649 167 m 488 260 l 649 167 l 542 167 l 488 260 l 488 260 m 394 421 l 488 260 l 394 314 l 394 421 l 394 421 m 394 607 l 394 421 l 340 514 l 394 607 l 394 607 z "},"2":{"ha":1483,"x_min":47,"x_max":1436,"o":"m 624 625 q 610 626 617 625 q 597 626 604 626 q 598 613 597 619 q 599 600 599 607 l 624 625 m 479 503 q 459 489 468 496 q 439 475 450 482 q 458 462 449 468 q 476 449 467 456 q 478 476 478 463 q 479 503 479 489 m 476 579 q 438 553 460 565 q 458 539 449 546 q 479 525 468 532 q 478 552 479 539 q 476 579 478 565 m 581 508 q 570 499 575 504 q 560 490 565 494 l 581 474 l 581 508 m 581 554 l 560 538 q 570 528 565 533 q 581 519 575 524 l 581 554 m 579 582 q 579 568 579 575 q 581 554 579 561 q 591 564 586 560 q 600 572 596 568 q 600 586 600 579 q 599 600 600 593 q 589 591 593 596 q 579 582 585 586 m 521 533 q 550 558 536 546 q 579 582 564 569 q 576 619 578 601 q 572 657 575 638 q 515 608 544 631 q 519 571 518 589 q 521 533 519 553 m 521 494 l 521 533 q 494 514 506 524 q 487 519 490 517 q 479 525 483 522 l 479 503 q 487 508 483 506 q 494 514 490 511 q 508 504 501 508 q 521 494 514 500 m 601 501 l 601 528 q 636 558 619 542 q 635 581 636 569 q 633 604 635 593 q 618 588 626 596 q 600 572 610 581 q 601 550 601 561 q 601 528 601 539 q 594 520 599 524 q 588 514 590 517 l 581 519 l 581 508 q 584 511 583 510 q 588 514 585 513 q 594 508 590 511 q 601 501 599 504 m 238 722 q 249 699 244 711 q 260 675 254 686 q 306 696 282 683 q 297 719 301 707 q 288 742 293 731 q 264 731 276 736 q 238 722 251 726 m 290 506 q 314 495 303 500 q 336 485 325 490 q 336 543 338 514 q 314 533 325 538 q 290 522 303 528 q 290 506 292 514 m 564 321 l 556 271 q 578 276 567 274 q 601 281 590 278 q 583 301 592 292 q 564 321 574 310 m 508 372 q 505 349 507 361 q 500 326 503 338 l 550 335 l 508 372 m 471 401 q 508 372 492 386 q 513 396 511 383 q 515 419 514 408 q 476 449 494 438 q 474 426 475 438 q 471 401 474 414 m 435 247 q 471 401 461 328 q 406 445 440 425 q 336 485 372 465 q 326 409 333 447 q 306 333 318 371 q 435 247 376 299 m 632 396 q 631 382 632 389 q 631 368 631 375 q 644 369 638 369 q 657 369 650 369 q 644 383 650 376 q 632 396 639 389 m 599 428 q 598 415 599 421 q 597 401 597 408 q 611 402 604 401 q 625 403 618 403 q 612 415 618 410 q 599 428 606 421 m 579 446 q 589 437 585 442 q 599 428 593 432 q 600 442 600 435 q 600 456 600 449 q 591 465 596 460 q 581 474 586 469 q 579 460 579 467 q 579 446 579 453 m 572 371 q 576 408 575 390 q 579 446 578 426 q 550 471 564 458 q 521 494 536 483 q 519 457 519 475 q 515 419 518 439 q 572 371 544 397 m 633 424 q 635 447 635 435 q 636 469 636 458 q 619 485 628 478 q 601 501 611 493 q 601 478 601 490 q 600 456 601 467 q 618 440 610 447 q 633 424 626 432 m 653 406 q 644 415 649 410 q 633 424 639 419 l 633 404 l 625 403 q 628 399 628 400 q 632 396 629 397 l 633 404 q 653 406 646 404 m 238 306 q 264 297 251 301 q 288 286 276 292 q 297 310 293 297 q 306 333 301 322 q 283 344 294 339 q 260 353 271 349 q 249 329 254 342 q 238 306 244 317 m 431 189 q 476 206 453 199 q 435 247 456 228 l 418 201 l 431 189 m 754 251 q 768 231 761 240 q 782 211 775 221 l 807 249 q 781 251 794 250 q 754 251 768 251 m 678 249 q 704 210 692 232 q 718 231 711 221 q 732 251 725 240 q 705 251 718 251 q 678 249 692 250 m 631 243 q 655 247 643 246 q 678 249 667 247 q 664 268 671 258 q 649 288 657 278 q 625 284 638 285 q 601 281 613 283 l 631 243 m 749 351 q 758 341 754 346 q 767 332 763 336 q 775 341 771 336 q 783 351 779 346 l 749 351 m 703 351 l 719 331 q 729 341 725 336 q 738 351 733 346 l 703 351 m 675 350 q 689 350 682 350 q 703 351 696 350 q 694 362 699 357 q 685 372 689 367 q 671 371 678 371 q 657 369 664 371 q 666 360 661 365 q 675 350 671 356 m 724 292 q 700 321 713 307 q 675 350 688 335 q 638 347 656 349 q 600 343 619 346 q 586 357 593 350 q 572 371 579 364 q 570 354 571 363 q 567 338 569 346 q 550 335 561 338 l 564 321 q 568 339 567 332 q 583 341 575 340 q 600 343 592 342 q 625 316 613 329 q 649 288 638 303 q 724 292 686 292 m 763 292 q 724 292 743 294 q 733 278 729 285 q 743 265 738 272 q 738 258 740 263 q 732 251 735 254 l 754 251 q 749 259 751 256 q 743 267 746 263 q 753 279 749 274 q 763 292 757 285 m 731 374 q 715 390 722 382 q 699 407 707 399 q 676 406 688 407 q 653 406 664 406 q 669 389 661 397 q 685 372 676 381 q 708 372 696 372 q 731 374 719 372 m 756 374 l 731 374 q 743 358 739 363 l 738 351 l 749 351 q 743 358 747 354 q 749 366 746 363 q 756 374 753 369 m 535 13 q 558 23 546 18 q 582 33 571 28 q 572 56 576 44 q 563 78 568 67 q 540 69 551 74 q 515 60 528 65 q 526 37 521 49 q 535 13 531 25 m 751 65 q 762 87 757 76 q 772 108 767 97 q 714 108 743 110 q 631 243 678 179 q 476 206 553 232 q 563 78 525 151 q 638 99 600 92 q 714 108 676 106 q 724 87 719 97 q 735 65 729 76 l 751 65 m 936 336 q 960 332 949 333 q 985 328 972 331 q 980 350 982 339 q 975 372 978 361 q 956 355 965 364 q 936 336 946 346 m 885 281 l 931 272 q 926 297 928 285 q 921 321 924 308 q 885 281 901 301 m 856 243 q 870 263 863 254 q 885 281 878 272 q 860 285 872 283 q 836 288 849 286 q 822 269 829 278 q 807 249 814 260 q 831 247 819 247 q 856 243 843 246 m 1008 208 q 931 229 969 221 q 856 243 893 238 q 811 178 832 213 q 772 108 790 144 q 922 79 847 106 q 1008 208 957 150 m 861 404 q 875 403 868 403 q 889 401 882 403 q 888 415 888 408 q 886 428 888 421 q 874 415 879 421 q 861 404 868 410 m 829 371 q 842 369 836 369 q 856 368 849 369 q 855 382 856 375 q 854 396 854 389 l 829 371 m 886 343 q 849 347 867 346 q 811 350 831 349 q 820 360 815 356 q 829 371 825 365 q 815 371 822 371 q 801 372 808 371 q 792 362 797 367 q 783 351 788 357 q 797 351 790 351 q 811 350 804 350 q 786 321 799 335 q 763 292 774 307 q 836 288 800 292 q 860 316 849 303 q 886 343 872 329 m 914 371 q 886 343 899 358 q 901 341 893 342 q 918 339 910 340 q 919 330 919 335 q 921 321 919 325 l 936 336 q 927 338 932 338 q 918 339 922 338 q 916 356 917 347 q 914 371 915 364 m 833 406 q 810 406 822 406 q 788 407 799 407 q 772 390 779 399 q 756 374 764 382 q 778 372 767 372 q 801 372 790 372 q 817 389 810 381 q 833 406 825 397 m 851 424 l 833 406 q 844 404 839 404 q 853 404 849 404 l 854 396 q 861 404 860 401 l 853 404 q 851 424 853 417 m 949 15 q 958 40 953 28 q 967 63 963 51 q 922 79 947 72 q 912 58 917 68 q 903 36 907 47 q 926 26 914 31 q 949 15 938 22 m 1064 204 q 1056 226 1060 215 q 1049 249 1053 238 q 1008 208 1028 229 q 1031 200 1019 204 q 1053 192 1042 196 q 1064 204 1056 196 m 1006 525 q 1025 539 1015 532 q 1046 553 1035 546 q 1007 579 1024 565 q 1006 552 1006 565 q 1006 525 1006 539 m 1007 450 q 1026 463 1017 457 q 1046 475 1036 468 q 1025 490 1035 482 q 1006 504 1015 497 q 1006 477 1006 490 q 1007 450 1006 464 m 1013 403 q 1010 426 1011 414 q 1007 450 1008 438 l 969 421 q 972 397 971 408 q 975 372 974 385 q 994 388 985 381 q 1013 403 1003 396 m 1146 485 q 1013 403 1078 451 q 1049 249 1022 329 q 1108 295 1076 274 q 1176 335 1140 317 q 1146 485 1150 407 m 906 519 q 915 528 911 524 q 925 538 919 533 q 916 546 921 542 q 906 554 911 550 l 906 519 m 906 474 l 926 490 q 916 500 921 496 q 906 508 911 504 l 906 474 m 964 494 q 907 446 935 472 q 906 460 907 453 q 906 474 906 467 q 895 465 900 469 q 885 456 890 460 q 886 442 886 449 q 886 428 886 435 q 897 437 892 432 q 907 446 901 442 q 910 408 908 426 q 914 371 911 390 q 941 397 928 385 q 969 421 954 408 q 966 457 967 439 q 964 494 965 475 m 964 533 l 964 494 q 977 504 971 500 q 990 514 983 508 q 998 509 994 511 q 1006 504 1001 507 l 1006 525 q 997 519 1001 522 q 990 514 993 517 q 964 533 979 524 m 883 501 q 867 485 875 493 q 850 469 858 478 q 851 447 850 458 q 851 424 851 435 q 868 440 860 432 q 885 456 876 447 q 884 478 885 467 q 883 501 883 490 m 883 528 l 883 501 q 899 514 894 510 l 906 508 l 906 519 l 899 514 q 883 528 893 518 m 1239 308 q 1218 354 1226 331 q 1176 335 1194 344 q 1183 313 1179 324 q 1192 290 1188 301 q 1215 300 1203 296 q 1239 308 1226 304 m 1188 522 l 1146 543 l 1146 485 l 1188 506 l 1188 522 m 921 707 q 925 731 924 719 q 929 756 926 743 q 907 751 918 753 q 885 747 896 750 q 921 707 901 726 m 975 656 q 980 678 978 667 q 985 701 982 690 q 960 697 972 699 q 936 692 947 694 q 956 673 946 682 q 975 656 965 664 m 1013 626 l 975 656 q 972 632 974 644 q 969 608 971 619 q 1007 579 988 592 q 1010 602 1008 590 q 1013 626 1011 614 m 1049 779 q 1013 626 1022 699 q 1077 583 1044 603 q 1146 543 1110 563 q 1176 693 1150 621 q 1049 779 1103 731 m 854 633 q 854 647 854 640 q 856 660 854 653 q 842 658 849 658 q 829 657 836 658 q 842 644 836 650 q 854 633 847 639 m 886 600 q 888 613 888 607 q 889 626 888 619 q 875 626 882 626 q 861 625 868 625 l 886 600 m 886 685 q 914 657 899 669 q 916 673 915 665 q 918 689 917 681 q 936 692 929 692 q 928 699 932 696 q 921 707 924 703 q 918 689 918 696 q 901 687 910 688 q 886 685 893 686 m 851 604 q 851 581 851 593 q 850 558 850 569 q 867 542 858 550 q 883 528 875 535 q 884 550 883 539 q 885 572 885 561 q 895 564 890 568 q 906 554 900 560 q 906 568 906 561 q 907 582 907 575 q 935 558 921 569 q 964 533 949 546 q 966 571 965 553 q 969 608 967 589 q 941 631 954 619 q 914 657 928 643 q 910 619 911 638 q 907 582 908 601 q 897 591 901 586 q 886 600 892 596 q 886 586 886 593 q 885 572 886 579 q 868 588 876 581 q 851 604 860 596 m 833 622 q 842 614 838 618 q 851 604 847 610 q 853 615 853 610 q 853 624 853 619 l 861 625 q 854 633 856 631 l 853 624 q 833 622 840 624 m 1239 719 q 1215 728 1226 724 q 1192 738 1203 733 q 1183 715 1188 726 q 1176 693 1179 704 q 1197 683 1186 688 q 1218 674 1207 679 q 1239 719 1226 696 m 1051 836 q 1008 821 1028 826 q 1049 779 1025 800 q 1056 801 1053 790 q 1064 824 1060 813 l 1051 836 m 732 776 q 718 797 725 788 q 704 818 711 807 q 678 779 692 796 q 705 778 692 778 q 732 776 718 778 m 807 779 q 794 798 800 789 q 782 818 789 807 l 753 776 q 780 777 767 776 q 807 779 793 778 m 854 785 q 831 781 843 782 q 807 779 819 781 q 822 760 814 769 q 838 740 829 750 q 860 743 849 742 q 885 747 872 744 q 869 766 878 757 q 854 785 861 775 m 738 676 q 728 687 733 682 q 719 697 724 692 l 703 676 l 738 676 m 783 676 l 767 697 q 757 687 761 692 q 749 676 753 682 l 783 676 m 811 678 q 797 677 804 678 q 783 676 790 676 q 793 666 789 671 q 801 656 797 661 q 815 657 808 657 q 829 657 822 657 q 820 667 825 663 q 811 678 815 672 m 763 736 q 786 707 774 721 q 811 678 799 693 q 849 681 831 679 q 886 685 867 682 q 860 712 872 699 q 838 740 849 725 q 763 736 800 736 m 724 736 q 763 736 743 733 q 753 749 757 743 q 743 763 749 756 q 748 769 746 765 q 753 776 750 774 l 732 776 q 738 769 735 774 q 743 763 740 765 q 733 749 738 756 q 724 736 728 743 m 757 656 q 788 621 771 636 l 699 621 l 636 558 l 636 469 l 699 407 l 788 407 l 850 469 l 850 558 l 788 621 q 810 622 799 621 q 833 622 822 622 q 817 639 825 631 q 801 656 810 647 l 757 656 m 731 656 q 757 656 743 654 q 749 663 753 658 q 743 669 746 667 l 749 676 l 738 676 l 743 669 q 737 663 740 667 q 731 656 733 658 m 632 632 q 644 645 639 639 q 657 658 650 651 q 643 659 650 658 q 629 660 636 660 q 631 646 631 653 q 632 632 632 639 m 653 624 l 633 624 l 632 632 q 624 625 629 631 l 633 624 l 633 604 l 653 624 m 685 656 q 669 639 676 647 q 653 624 661 631 q 676 622 664 622 q 699 621 688 622 q 715 638 707 629 q 731 656 722 646 l 685 656 m 657 658 q 671 657 664 657 q 685 656 678 657 q 694 666 689 661 q 703 676 699 671 q 689 678 696 678 q 675 678 682 678 q 699 707 688 693 q 724 736 711 721 q 649 740 686 736 q 625 712 638 725 q 600 685 613 699 q 638 681 619 682 q 675 678 656 679 q 666 667 671 672 q 657 658 661 663 m 949 1013 q 926 1001 938 1006 q 903 992 914 997 q 922 949 911 971 q 772 919 847 924 q 854 785 808 846 q 931 799 893 790 q 1008 821 969 807 q 962 881 983 849 q 922 949 940 913 q 967 965 947 956 q 957 988 961 976 q 949 1013 953 1000 m 733 963 q 724 941 729 951 q 714 919 719 931 q 772 919 743 917 q 761 941 765 931 q 751 963 757 951 l 733 963 m 582 994 q 733 963 658 964 q 739 974 736 965 q 698 1079 717 1026 q 663 1186 679 1132 q 826 1186 746 1160 q 791 1076 810 1131 q 749 968 772 1021 l 751 963 q 826 970 789 963 q 903 992 864 978 q 870 1086 883 1036 q 846 1193 857 1136 q 861 1201 853 1197 q 876 1208 869 1204 l 1011 1208 l 982 1179 q 957 1127 969 1153 q 931 1075 944 1101 q 939 1043 935 1058 q 949 1013 943 1028 q 1010 1047 979 1026 q 1028 1100 1019 1074 q 1046 1153 1038 1126 l 1046 1192 l 1135 1103 q 1147 1065 1139 1083 q 967 965 1053 1000 q 1051 836 1000 889 q 1063 840 1060 839 q 1108 942 1083 892 q 1157 1042 1132 992 q 1274 926 1197 964 q 1067 829 1172 872 l 1064 824 q 1192 738 1119 771 q 1292 918 1228 824 q 1313 910 1303 914 q 1335 904 1324 907 l 1424 815 l 1385 815 q 1327 795 1356 804 q 1269 776 1299 786 q 1253 748 1261 761 q 1239 719 1246 735 q 1271 709 1254 714 q 1306 700 1288 704 q 1358 726 1332 714 q 1410 751 1383 739 l 1436 778 l 1436 660 q 1415 617 1424 638 q 1311 642 1360 628 q 1218 674 1263 656 q 1188 522 1190 600 q 1193 520 1190 521 q 1199 518 1196 519 q 1301 558 1250 540 q 1406 593 1353 576 q 1407 429 1379 514 q 1300 466 1353 447 q 1194 508 1247 485 l 1188 506 q 1218 354 1190 428 q 1311 387 1263 374 q 1415 411 1360 400 q 1424 390 1419 400 q 1436 368 1429 379 l 1436 246 l 1408 272 l 1300 326 q 1269 318 1285 322 q 1239 308 1254 314 q 1254 278 1246 293 q 1272 247 1263 263 q 1327 228 1300 238 q 1382 210 1354 219 l 1419 210 l 1335 124 q 1313 117 1324 121 q 1292 110 1303 114 q 1192 290 1228 204 q 1064 204 1119 257 q 1068 193 1065 201 q 1169 149 1119 174 q 1268 100 1219 125 q 1154 -18 1193 61 q 1103 85 1128 33 q 1058 190 1079 136 l 1053 192 q 967 63 1001 140 q 1147 -37 1053 28 q 1135 -75 1139 -57 l 1043 -167 l 1043 -126 q 1024 -72 1033 -99 q 1006 -17 1014 -44 q 977 1 990 -7 q 949 15 964 8 q 938 -18 943 -1 q 929 -53 933 -35 q 953 -103 942 -78 q 978 -153 965 -128 l 1006 -181 l 875 -181 q 860 -173 868 -176 q 846 -167 853 -169 q 870 -59 857 -110 q 903 36 883 -8 q 826 58 864 50 q 751 65 789 65 q 749 60 750 63 q 746 56 749 58 q 787 -51 768 3 q 822 -157 806 -104 q 656 -161 739 -132 q 693 -49 674 -104 q 736 60 713 6 l 735 65 q 582 33 661 64 q 638 -169 618 -54 q 626 -175 631 -172 q 614 -181 621 -178 l 472 -181 l 503 -150 q 528 -100 515 -125 q 551 -51 540 -75 q 535 13 546 -19 q 503 -5 519 4 q 471 -25 488 -14 q 454 -74 463 -49 q 438 -122 446 -99 l 438 -164 l 338 -62 q 334 -54 335 -58 q 331 -46 333 -50 q 515 60 425 22 q 431 189 485 132 q 419 185 422 186 q 372 81 397 132 q 319 -21 347 29 q 200 94 283 56 q 306 147 253 122 q 415 196 360 172 l 418 201 q 358 249 390 228 q 288 286 325 271 q 242 196 268 242 q 181 101 215 150 q 168 107 176 104 l 61 213 l 106 213 q 155 230 131 221 q 204 247 179 239 q 238 306 222 276 q 203 315 221 311 q 168 324 186 319 q 122 302 144 313 q 78 281 100 292 l 47 250 l 47 400 l 51 408 q 260 353 171 389 q 290 506 290 433 q 281 510 285 508 q 172 469 226 488 q 61 433 117 450 q 58 600 90 515 q 173 563 117 582 q 286 519 229 543 l 290 522 q 283 599 290 561 q 260 675 275 636 q 51 619 171 639 l 47 628 l 47 783 l 79 751 q 126 728 103 740 q 174 706 150 717 q 238 722 206 711 q 201 786 222 754 q 154 802 178 793 q 107 818 131 811 l 64 818 l 168 922 l 181 926 q 242 832 215 878 q 288 742 268 786 q 358 778 325 757 q 418 826 390 800 q 416 832 417 829 q 414 838 415 835 q 309 884 361 860 q 206 936 257 908 q 322 1054 285 976 q 376 949 350 1001 q 424 840 401 896 l 431 839 q 515 968 482 892 q 425 1014 471 988 q 331 1074 379 1040 q 334 1082 333 1078 q 338 1092 335 1086 l 440 1194 l 440 1151 q 459 1101 450 1126 q 476 1049 468 1075 q 535 1015 506 1029 q 545 1049 540 1032 q 553 1085 550 1067 q 530 1132 542 1108 q 507 1179 518 1156 l 478 1208 l 613 1208 l 638 1196 q 614 1089 628 1139 q 582 994 600 1039 m 563 950 q 572 972 568 961 q 582 994 576 983 q 535 1015 558 1003 q 526 991 531 1003 q 515 968 521 979 q 539 958 526 963 q 563 950 551 954 m 471 626 q 435 781 461 700 q 306 696 381 732 q 326 619 318 657 q 336 543 333 582 q 406 583 372 563 q 471 626 440 603 m 508 656 q 471 626 492 640 q 474 603 474 615 q 476 579 475 590 q 497 594 488 586 q 515 608 506 601 q 513 632 514 619 q 508 656 511 644 m 549 693 q 524 697 536 696 q 500 701 513 699 q 505 678 503 690 q 508 656 507 667 q 529 674 519 665 q 549 693 539 683 m 564 707 q 557 700 561 704 q 549 693 553 696 q 567 689 556 692 q 570 674 569 682 q 572 657 571 665 l 600 685 q 583 687 592 686 q 567 690 575 688 q 564 707 567 696 m 600 747 q 577 752 589 750 q 554 757 565 754 q 559 732 557 744 q 564 707 561 719 q 583 727 574 718 q 600 747 592 736 m 631 785 q 616 766 624 775 q 600 747 608 757 q 625 744 613 744 q 649 740 638 743 q 664 760 657 750 q 678 779 671 769 q 654 782 667 781 q 631 785 642 783 m 476 822 q 553 800 515 808 q 631 785 592 792 q 714 919 678 849 q 638 929 676 922 q 563 950 600 936 q 476 822 525 876 m 435 781 q 476 822 456 799 q 431 839 453 828 l 418 826 l 435 781 z "},"3":{"ha":1504,"x_min":47,"x_max":1457,"o":"m 700 625 l 631 626 l 588 682 l 626 700 l 692 668 l 700 625 l 700 625 m 111 576 l 72 596 l 163 706 l 132 850 l 201 849 l 265 767 l 256 728 l 211 750 l 176 607 l 111 576 l 111 576 m 657 592 l 593 563 l 531 594 l 558 628 l 631 626 l 657 592 l 657 592 m 399 613 l 397 611 l 381 632 l 238 635 l 258 719 l 339 679 l 467 739 l 489 631 l 490 632 l 496 604 l 522 592 l 465 524 l 399 613 l 399 613 m 211 492 l 163 492 l 193 349 l 147 292 l 103 293 l 138 431 l 47 547 l 111 576 l 203 531 l 211 492 l 211 492 m 633 543 l 589 489 l 518 490 l 528 532 l 593 563 l 633 543 l 633 543 m 390 449 l 390 447 l 367 460 l 236 399 l 218 485 l 307 483 l 397 593 l 464 506 l 465 507 l 482 485 l 511 485 l 490 399 l 390 449 l 390 449 m 275 258 l 231 238 l 321 122 l 303 51 l 264 33 l 233 172 l 103 239 l 147 292 l 250 290 l 275 258 l 275 258 m 632 489 l 615 421 l 551 390 l 542 433 l 589 489 l 632 489 l 632 489 m 454 299 l 456 297 l 428 297 l 338 188 l 283 257 l 364 294 l 397 431 l 497 381 l 497 383 l 521 371 l 547 383 l 565 297 l 454 299 l 454 299 m 433 76 l 401 39 l 533 -26 l 549 -97 l 521 -131 l 433 -18 l 286 -17 l 303 51 l 397 94 l 433 76 l 433 76 m 656 439 l 669 371 l 625 315 l 599 350 l 615 421 l 656 439 l 656 439 m 578 190 l 579 189 l 554 178 l 521 39 l 442 79 l 499 147 l 469 285 l 579 283 l 579 286 l 607 285 l 625 307 l 678 238 l 578 190 l 578 190 m 654 -18 l 642 -65 l 789 -68 l 833 -125 l 824 -168 l 696 -104 l 563 -165 l 549 -97 l 614 -18 l 654 -18 l 654 -18 m 697 404 l 740 349 l 724 281 l 685 300 l 669 371 l 697 404 l 697 404 m 735 147 l 736 146 l 719 125 l 749 -14 l 661 -12 l 682 74 l 596 185 l 697 232 l 696 233 l 719 244 l 726 272 l 806 233 l 735 147 l 735 147 m 894 -8 l 904 -56 l 1038 6 l 1103 -26 l 1111 -69 l 969 -67 l 876 -181 l 833 -125 l 858 -25 l 894 -8 l 894 -8 m 750 392 l 813 360 l 828 290 l 785 292 l 740 349 l 750 392 l 750 392 m 896 176 l 897 176 l 892 150 l 978 38 l 899 0 l 881 88 l 754 150 l 825 236 l 822 236 l 840 257 l 835 285 l 922 283 l 896 176 l 896 176 m 1107 106 l 1136 67 l 1231 181 l 1303 179 l 1329 144 l 1200 85 l 1165 -58 l 1103 -26 l 1081 75 l 1107 106 l 1107 106 m 804 403 l 874 401 l 917 346 l 878 328 l 813 360 l 804 403 l 804 403 m 1028 272 l 1029 272 l 1035 246 l 1163 182 l 1107 114 l 1053 185 l 911 188 l 938 294 l 936 294 l 943 321 l 925 343 l 1006 381 l 1028 272 l 1028 272 m 1249 300 l 1293 278 l 1328 421 l 1393 451 l 1432 432 l 1342 322 l 1372 178 l 1303 179 l 1239 261 l 1249 300 l 1249 300 m 847 436 l 910 465 l 974 433 l 946 400 l 874 401 l 847 436 l 847 436 m 1106 415 l 1107 417 l 1124 396 l 1267 393 l 1244 308 l 1165 347 l 1038 289 l 1015 397 l 1013 396 l 1007 424 l 982 436 l 1038 504 l 1106 415 l 1106 415 m 1293 536 l 1342 536 l 1311 679 l 1357 736 l 1400 735 l 1367 597 l 1457 481 l 1393 451 l 1301 497 l 1293 536 l 1293 536 m 871 485 l 915 539 l 986 538 l 976 496 l 910 465 l 871 485 l 871 485 m 1113 579 l 1114 581 l 1138 568 l 1267 629 l 1286 543 l 1196 544 l 1107 435 l 1039 522 l 1038 521 l 1022 543 l 993 543 l 1014 629 l 1113 579 l 1113 579 m 1229 769 l 1274 789 l 1183 906 l 1201 976 l 1240 994 l 1269 856 l 1401 789 l 1357 736 l 1254 738 l 1229 769 l 1229 769 m 872 539 l 889 607 l 953 638 l 961 594 l 915 539 l 872 539 l 872 539 m 1049 729 l 1049 731 l 1076 731 l 1167 840 l 1221 771 l 1139 733 l 1106 597 l 1007 647 l 1007 644 l 982 657 l 957 644 l 939 731 l 1049 729 l 1049 729 m 1071 951 l 1103 989 l 971 1054 l 956 1125 l 983 1158 l 1071 1046 l 1217 1044 l 1201 976 l 1107 933 l 1071 951 l 1071 951 m 849 589 l 835 657 l 879 713 l 906 678 l 889 607 l 849 589 l 849 589 m 926 838 l 925 839 l 950 850 l 983 989 l 1063 949 l 1006 881 l 1035 743 l 924 744 l 925 742 l 897 743 l 879 721 l 825 790 l 926 838 l 926 838 m 850 1046 l 861 1093 l 714 1096 l 671 1153 l 681 1196 l 808 1132 l 942 1193 l 956 1125 l 890 1046 l 850 1046 l 850 1046 m 807 624 l 764 679 l 781 747 l 819 728 l 835 657 l 807 624 l 807 624 m 822 954 l 908 843 l 807 796 l 808 794 l 783 783 l 776 756 l 699 794 l 769 881 l 767 882 l 785 903 l 754 1042 l 843 1040 l 822 954 l 822 954 m 679 792 l 681 792 l 664 771 l 669 743 l 582 744 l 608 851 l 607 851 l 613 878 l 525 990 l 606 1028 l 624 940 l 750 878 l 679 792 l 679 792 m 499 647 l 476 756 l 474 756 l 468 782 l 340 846 l 397 914 l 451 843 l 592 840 l 565 733 l 568 733 l 561 707 l 579 685 l 499 647 l 499 647 m 401 1054 l 392 1097 l 535 1094 l 628 1208 l 671 1153 l 646 1053 l 610 1036 l 599 1083 l 465 1022 l 401 1054 l 401 1054 m 754 636 l 692 668 l 676 738 l 719 736 l 764 679 l 754 636 l 754 636 m 201 849 l 175 883 l 304 943 l 339 1086 l 401 1054 l 422 953 l 397 922 l 367 961 l 274 847 l 201 849 l 201 849 z "},"4":{"ha":1481,"x_min":47,"x_max":1433,"o":"m 185 839 q 184 838 185 838 q 183 836 183 838 q 185 852 185 844 q 186 867 185 860 q 156 858 171 864 q 128 840 140 851 q 153 883 140 863 q 181 924 165 904 q 185 931 183 928 q 188 938 186 935 q 190 936 189 938 q 196 919 190 931 q 272 978 232 951 q 354 1025 311 1004 q 319 951 335 989 q 292 874 304 913 l 294 874 l 282 828 q 295 814 289 821 q 308 800 301 807 q 248 742 276 772 q 192 681 219 713 q 184 760 186 721 q 185 839 182 799 m 99 567 l 99 564 q 94 578 96 571 q 89 593 92 586 q 65 570 76 582 q 47 543 53 558 q 51 591 49 567 q 57 639 54 615 q 58 648 58 643 q 58 657 58 653 l 61 657 l 74 644 q 117 730 92 689 q 171 808 142 771 q 171 726 168 768 q 181 644 174 685 q 182 647 182 646 q 187 623 185 635 q 192 599 189 611 q 209 592 200 596 q 226 586 218 589 q 198 508 211 547 q 174 428 185 468 q 133 496 151 461 q 99 567 114 531 m 139 285 q 140 282 139 283 q 128 292 133 288 q 118 303 124 297 q 106 273 111 289 q 103 240 100 257 q 85 285 93 264 q 71 331 78 307 q 67 340 68 336 q 64 349 65 344 l 65 349 q 74 346 71 347 q 83 344 78 344 q 85 440 81 393 q 100 533 89 486 q 135 460 115 496 q 179 390 156 425 l 179 393 q 194 374 186 383 q 208 354 201 364 l 246 358 q 267 193 250 274 q 139 285 196 233 m 297 49 q 299 46 299 46 q 271 56 283 50 q 273 23 271 39 q 283 -8 275 7 q 247 26 264 8 q 214 63 229 43 q 208 67 211 65 q 201 72 204 69 q 203 73 203 72 q 204 74 203 74 q 213 74 208 72 q 221 76 217 75 q 154 256 176 158 q 218 204 185 228 q 288 161 251 181 l 288 164 q 308 151 299 157 q 329 140 318 146 q 346 151 338 146 q 361 160 354 156 q 451 19 401 88 q 374 29 413 22 q 297 49 335 36 m 543 -97 q 546 -99 543 -99 q 530 -101 538 -100 q 515 -103 522 -101 q 531 -132 522 -118 q 556 -154 540 -146 q 504 -138 529 -147 q 454 -119 479 -129 q 450 -118 451 -118 q 447 -117 449 -118 l 447 -115 q 461 -106 456 -111 q 388 -44 422 -78 q 324 28 354 -10 q 404 10 364 17 q 485 0 444 3 q 484 1 485 1 q 483 3 483 1 q 507 1 494 1 q 532 0 519 0 q 542 16 538 8 q 551 32 547 24 q 694 -56 622 -18 q 620 -80 658 -69 q 543 -97 582 -90 m 828 -122 l 831 -122 l 806 -139 q 832 -158 818 -150 q 864 -169 846 -167 q 806 -177 835 -175 q 749 -181 778 -179 q 758 -165 753 -176 q 665 -141 710 -157 q 575 -106 619 -125 q 655 -86 615 -99 q 733 -58 694 -74 q 731 -57 731 -58 q 753 -49 742 -53 q 775 -39 764 -44 l 779 -1 q 863 -12 821 -8 q 946 -18 904 -17 q 889 -74 918 -47 q 828 -122 860 -100 m 1094 -21 q 1097 -19 1097 -21 q 1090 -33 1094 -26 q 1082 -46 1086 -39 q 1115 -52 1097 -50 q 1147 -49 1132 -54 q 1099 -80 1124 -65 q 1050 -108 1075 -94 q 1050 -90 1053 -100 q 956 -110 1004 -104 q 860 -115 908 -115 q 924 -63 893 -92 q 982 -4 954 -35 l 979 -4 q 995 13 988 4 q 1011 32 1003 22 q 1005 50 1008 42 q 999 68 1001 58 q 1078 94 1039 81 q 1157 125 1118 108 q 1129 51 1144 88 q 1094 -21 1114 14 m 1292 186 q 1294 189 1294 189 q 1293 174 1293 182 q 1292 160 1293 167 q 1323 168 1307 163 q 1351 185 1339 174 q 1289 89 1324 135 q 1287 97 1289 93 q 1282 106 1285 101 q 1206 47 1246 74 q 1121 0 1165 21 q 1156 74 1140 36 q 1183 153 1171 113 q 1181 151 1181 153 q 1187 175 1183 163 q 1193 199 1190 188 q 1180 213 1186 206 q 1167 226 1174 219 q 1228 284 1199 254 q 1285 346 1257 314 q 1292 266 1290 306 q 1292 186 1294 226 m 1379 460 q 1381 463 1381 463 q 1385 449 1383 456 q 1390 435 1388 442 q 1416 456 1404 444 q 1433 485 1428 468 q 1429 426 1432 456 q 1419 369 1426 397 q 1406 382 1415 376 q 1362 297 1388 338 q 1307 217 1336 256 q 1306 300 1310 258 q 1296 382 1303 342 l 1294 381 q 1290 404 1292 392 q 1285 428 1288 417 q 1267 435 1276 431 q 1249 442 1258 439 q 1278 520 1264 481 q 1303 600 1292 560 q 1344 532 1325 567 q 1379 460 1364 497 m 1339 744 l 1339 747 l 1360 726 q 1374 757 1368 742 q 1378 789 1379 772 q 1415 679 1400 739 q 1397 685 1408 685 q 1395 589 1400 636 q 1379 493 1390 542 q 1297 638 1346 569 l 1297 635 q 1283 655 1290 646 q 1268 675 1275 664 q 1249 673 1258 674 q 1229 671 1239 672 q 1222 754 1226 713 q 1210 838 1217 796 q 1277 794 1244 817 q 1339 744 1310 772 m 1179 982 q 1178 985 1178 983 q 1192 980 1185 982 q 1206 975 1199 978 q 1205 1007 1207 990 q 1194 1039 1203 1024 q 1236 999 1217 1019 q 1275 957 1256 979 q 1266 957 1271 958 q 1257 954 1261 956 q 1297 866 1281 911 q 1324 774 1313 821 q 1258 825 1292 801 q 1188 869 1224 849 q 1189 865 1188 867 q 1167 878 1178 872 q 1146 889 1157 883 q 1129 879 1138 883 q 1113 869 1121 875 q 1069 941 1092 906 q 1022 1010 1047 976 q 1101 1000 1063 1007 q 1179 982 1140 993 m 1014 1135 q 1088 1074 1054 1107 q 1153 1003 1122 1040 q 1072 1020 1113 1014 q 989 1029 1031 1026 q 990 1028 989 1028 q 990 1026 990 1028 q 966 1028 978 1028 q 942 1029 954 1028 q 931 1013 936 1021 q 921 997 926 1004 q 851 1042 886 1021 q 778 1083 815 1064 q 853 1109 815 1099 q 932 1126 892 1119 q 929 1128 931 1128 q 944 1130 936 1129 q 960 1132 951 1131 q 944 1161 953 1147 q 921 1183 936 1175 q 1029 1146 976 1168 q 1014 1135 1021 1142 m 740 1086 q 743 1085 742 1086 q 721 1076 732 1081 q 699 1067 710 1071 q 695 1047 696 1057 q 693 1028 694 1038 q 528 1044 613 1042 q 585 1100 556 1074 q 647 1150 614 1126 l 644 1150 q 657 1158 651 1154 q 669 1165 663 1163 q 643 1185 657 1176 q 613 1196 629 1193 q 726 1208 669 1207 q 718 1192 719 1199 q 810 1169 765 1185 q 899 1133 856 1154 q 819 1114 858 1126 q 740 1086 779 1101 m 318 901 q 346 975 331 939 q 381 1047 361 1011 q 378 1046 379 1046 q 385 1058 382 1053 q 393 1071 389 1064 q 361 1077 378 1075 q 329 1074 344 1079 q 374 1103 351 1089 q 419 1129 396 1117 q 426 1135 424 1133 l 428 1133 q 425 1115 425 1122 q 518 1135 471 1129 q 614 1142 565 1142 q 550 1090 581 1118 q 492 1031 519 1061 l 494 1031 q 478 1013 486 1021 q 463 994 471 1004 q 469 976 465 985 q 475 958 472 967 q 396 932 435 946 q 318 901 357 918 m 740 811 q 667 842 704 828 q 594 872 631 857 q 584 933 589 903 q 575 992 579 963 q 621 996 599 994 q 667 997 643 997 q 716 949 692 974 q 764 899 740 925 q 751 855 757 876 q 740 811 746 833 m 868 781 q 817 840 843 811 q 764 899 792 869 q 781 957 772 928 q 799 1015 789 986 q 841 999 819 1007 q 883 981 863 990 q 906 915 896 949 q 928 849 917 882 q 898 815 913 832 q 868 781 883 797 m 971 696 q 951 773 961 735 q 928 849 940 811 q 969 894 949 872 q 1010 939 989 917 q 1040 906 1025 922 q 1071 871 1056 889 q 1064 801 1068 836 q 1054 732 1060 767 q 1013 715 1033 724 q 971 696 992 706 m 1026 576 q 1042 654 1035 615 q 1054 732 1049 693 q 1111 756 1082 744 q 1168 779 1140 768 q 1181 735 1175 757 q 1193 690 1188 713 q 1156 631 1175 660 q 1118 572 1138 601 l 1026 576 m 1025 443 q 1072 507 1049 475 q 1118 572 1094 539 q 1179 569 1149 571 q 1240 565 1210 568 q 1233 519 1238 542 q 1225 474 1229 497 q 1166 436 1196 454 q 1106 400 1136 418 q 1065 422 1086 411 q 1025 443 1044 432 m 965 325 q 1036 362 1001 343 q 1106 400 1071 381 q 1160 371 1133 385 q 1213 342 1186 357 q 1187 303 1200 322 q 1160 267 1174 285 q 1090 258 1124 261 q 1019 251 1056 254 q 992 288 1006 271 q 965 325 979 306 m 861 244 q 940 247 901 246 q 1019 251 979 249 l 1090 151 q 1051 129 1071 140 q 1010 107 1031 118 q 943 130 976 118 q 878 154 910 142 q 869 199 874 178 q 861 244 865 221 m 732 217 q 878 154 803 183 q 888 95 883 125 q 899 35 893 65 q 852 31 875 32 q 806 29 829 31 q 756 78 781 53 q 707 129 731 103 l 732 217 m 603 249 q 654 188 628 217 q 707 129 681 158 q 674 13 692 71 q 631 29 653 21 q 589 47 610 38 q 565 113 576 81 q 543 179 554 146 q 573 214 558 197 q 603 249 588 231 m 501 332 q 522 256 511 293 q 543 179 532 218 q 503 135 524 157 q 463 89 483 113 q 432 123 447 106 q 401 158 417 140 q 418 296 407 226 q 460 314 439 306 q 501 332 481 322 m 446 451 q 431 374 438 413 q 418 296 424 336 q 363 273 390 285 q 307 250 335 261 q 294 294 300 272 q 281 339 288 315 q 317 398 299 368 q 356 456 336 428 q 400 453 378 454 q 446 451 422 453 m 447 583 q 401 520 424 551 q 356 456 378 489 q 295 459 325 458 q 235 463 265 460 q 242 508 238 486 q 250 553 246 531 q 308 590 279 572 q 368 626 338 608 q 408 605 388 615 q 447 583 428 594 m 506 703 q 436 665 471 683 q 368 626 401 646 q 315 656 340 642 q 263 685 289 669 q 288 723 275 704 q 315 761 301 742 q 384 769 350 765 q 453 775 418 772 q 480 739 467 757 q 506 703 493 721 m 611 783 q 453 775 532 781 q 417 825 435 800 q 383 874 400 850 q 423 897 403 886 q 464 919 443 908 q 529 897 496 908 q 594 872 563 885 q 603 828 599 850 q 611 783 607 806 z "},"5":{"ha":1514,"x_min":47,"x_max":1467,"o":"m 551 600 q 501 606 524 600 q 474 636 479 613 q 481 658 471 650 q 507 674 492 667 q 551 685 531 685 q 596 672 572 685 q 621 656 611 665 q 628 633 631 647 q 601 606 622 611 q 551 600 579 600 m 542 504 q 493 489 515 493 q 457 504 471 485 q 453 526 449 514 q 469 551 458 538 q 505 581 486 572 q 550 589 524 589 q 581 585 568 589 q 596 568 593 581 q 584 530 601 544 q 542 504 567 515 m 575 414 q 538 378 557 392 q 499 376 519 365 q 485 395 486 382 q 489 425 485 408 q 509 467 496 451 q 546 494 522 483 q 574 503 561 501 q 596 494 588 506 q 602 456 611 476 q 575 414 593 435 m 643 346 q 625 299 636 318 q 590 279 614 279 q 572 292 578 281 q 563 319 565 303 q 561 366 556 346 q 583 407 567 386 q 606 428 594 421 q 628 429 617 435 q 649 396 649 418 q 643 346 650 374 m 735 315 q 740 265 742 288 q 717 233 738 243 q 695 234 706 226 q 674 256 685 242 q 652 298 657 278 q 654 343 647 318 q 665 372 658 361 q 685 383 672 383 q 719 363 708 383 q 735 315 729 343 m 831 328 q 857 285 849 306 q 850 244 865 264 q 828 238 842 235 q 800 247 815 240 q 764 276 776 260 q 746 318 751 292 q 744 348 743 335 q 757 367 744 361 q 796 363 778 376 q 831 328 814 350 m 911 381 q 953 353 936 368 q 965 314 971 338 q 950 298 963 301 q 919 294 938 294 q 840 335 869 296 q 824 360 829 349 q 828 383 819 372 q 865 397 843 401 q 911 381 888 393 m 963 463 q 1012 456 990 463 q 1039 426 1033 450 q 1032 405 1042 414 q 1006 389 1022 396 q 961 378 982 378 q 917 390 940 379 q 892 408 901 399 q 885 429 882 417 q 913 458 890 451 q 963 463 935 464 m 971 558 q 1019 574 997 571 q 1057 560 1042 578 q 1059 537 1064 549 q 1043 511 1054 525 q 1008 482 1026 490 q 963 474 989 474 q 932 478 944 474 q 917 494 919 482 q 928 533 911 518 q 971 558 946 547 m 938 650 q 975 684 957 671 q 1015 686 993 697 q 1027 667 1026 681 q 1024 638 1028 654 q 967 569 1013 589 q 938 559 951 561 q 917 568 925 557 q 911 608 901 588 q 938 650 921 628 m 869 717 q 888 764 876 744 q 922 783 899 783 q 941 772 935 783 q 951 743 947 760 q 952 697 957 717 q 929 657 947 676 q 907 635 918 643 q 885 633 896 628 q 863 667 864 644 q 869 717 863 689 m 778 747 q 773 797 771 775 q 796 831 775 819 q 818 828 807 836 q 840 807 829 821 q 860 765 856 785 q 858 719 865 746 q 847 690 854 701 q 828 679 840 679 q 794 700 804 681 q 778 747 783 719 m 682 735 q 656 778 665 757 q 663 818 647 799 q 684 826 671 828 q 713 815 697 824 q 749 788 736 804 q 767 744 761 771 q 769 715 769 728 q 756 696 768 701 q 717 699 735 686 q 682 735 699 713 m 483 783 q 472 817 467 797 q 487 856 478 836 q 501 895 496 876 q 490 928 507 914 q 490 928 490 929 q 489 928 489 926 q 488 944 481 935 q 490 963 494 953 q 456 1000 479 988 q 410 1022 433 1013 q 368 1045 386 1032 q 351 1086 350 1058 q 361 1117 353 1103 q 383 1141 369 1132 q 412 1153 396 1150 q 444 1153 428 1157 q 465 1135 461 1149 q 471 1106 469 1122 q 475 1074 472 1090 q 490 1046 478 1057 q 536 1027 510 1028 q 588 1028 563 1026 q 633 1025 613 1029 q 665 996 654 1021 q 661 961 674 976 q 631 933 649 946 q 601 904 614 919 q 596 869 588 889 q 599 868 599 867 q 592 853 603 858 q 582 838 582 849 q 585 828 582 832 q 591 820 588 824 q 597 813 594 817 q 596 804 599 808 q 574 780 588 789 q 544 768 560 771 q 512 769 528 765 q 483 783 496 772 m 758 906 q 760 904 758 904 l 761 904 q 749 893 760 893 q 732 883 738 893 q 733 863 726 874 q 731 846 739 853 q 700 834 717 836 q 667 836 683 832 q 639 851 651 840 q 619 878 626 863 q 624 913 611 897 q 655 941 638 928 q 685 969 672 954 q 689 1004 697 985 l 688 1004 q 693 1019 683 1014 q 704 1035 703 1024 q 690 1083 706 1063 q 656 1124 674 1104 q 629 1163 639 1143 q 632 1207 619 1182 q 684 1242 649 1236 q 746 1226 719 1249 q 756 1201 758 1215 q 749 1173 754 1188 q 738 1142 743 1158 q 739 1111 732 1126 q 772 1074 749 1086 q 819 1051 796 1061 q 860 1028 843 1042 q 876 989 878 1015 q 857 960 875 968 q 817 947 839 953 q 778 934 796 942 q 758 906 760 926 m 992 1061 q 1006 1013 990 1033 q 1039 973 1022 992 q 1065 935 1056 954 q 1063 892 1075 915 q 1032 874 1051 872 q 992 879 1013 875 q 951 884 971 883 q 921 867 931 885 q 921 865 922 865 q 915 860 918 861 q 906 860 911 860 q 897 861 901 861 q 888 858 892 861 q 879 840 878 851 q 869 826 881 829 q 809 844 836 821 q 783 903 782 868 q 803 931 785 924 q 842 944 821 939 q 882 958 864 950 q 901 986 900 965 l 900 988 l 899 988 q 911 999 900 999 q 928 1008 922 999 q 935 1058 940 1032 q 924 1109 931 1085 q 916 1156 917 1133 q 938 1193 915 1178 q 968 1205 951 1203 q 1000 1203 985 1207 q 1028 1188 1015 1199 q 1047 1163 1040 1178 q 1047 1135 1054 1146 q 1027 1113 1039 1124 q 1004 1090 1015 1101 q 992 1061 993 1078 m 1083 878 q 1083 879 1085 879 q 1083 881 1082 879 q 1090 885 1086 885 q 1099 885 1094 886 q 1109 883 1104 883 q 1118 886 1114 883 q 1147 928 1140 903 q 1158 979 1154 954 q 1171 1024 1163 1004 q 1207 1049 1179 1044 q 1240 1047 1224 1051 q 1267 1031 1256 1042 q 1286 1006 1279 1021 q 1293 974 1293 990 q 1280 949 1292 957 q 1253 938 1268 942 q 1222 927 1238 933 q 1199 906 1207 921 q 1191 856 1186 882 q 1203 806 1196 831 q 1210 760 1210 782 q 1189 724 1211 739 q 1153 720 1171 711 q 1119 743 1136 729 q 1084 766 1101 757 q 1050 763 1067 775 q 1050 762 1049 763 q 1050 760 1051 761 q 1042 758 1046 757 q 1033 763 1038 760 q 1025 768 1029 765 q 1017 769 1021 771 q 1001 756 1006 767 q 986 749 996 746 q 940 791 954 758 q 942 854 925 824 q 972 872 951 872 q 1013 866 992 871 q 1054 860 1035 861 q 1083 878 1074 858 m 1201 701 q 1203 704 1204 704 q 1210 706 1207 707 q 1218 701 1214 704 q 1226 696 1222 699 q 1236 694 1231 693 q 1280 719 1263 699 q 1313 761 1297 740 q 1344 796 1328 782 q 1388 803 1361 810 q 1416 787 1404 799 q 1434 760 1428 775 q 1440 728 1440 744 q 1431 697 1439 711 q 1408 681 1422 682 q 1379 682 1394 679 q 1347 685 1364 685 q 1317 676 1331 686 q 1288 636 1294 661 q 1278 586 1282 611 q 1265 541 1274 561 q 1229 517 1256 521 q 1197 528 1208 513 q 1175 565 1185 544 q 1153 601 1165 585 q 1121 613 1142 617 l 1121 611 q 1119 610 1119 610 q 1107 619 1110 608 q 1094 633 1104 631 q 1074 628 1083 636 q 1057 628 1065 621 q 1039 654 1044 639 q 1034 685 1033 669 q 1042 717 1035 701 q 1064 742 1050 732 q 1098 744 1081 754 q 1133 722 1115 735 q 1167 699 1150 708 q 1201 701 1185 689 m 1232 492 q 1233 492 1233 492 q 1233 493 1232 493 q 1242 491 1239 494 q 1247 483 1244 488 q 1251 476 1249 479 q 1260 471 1254 472 q 1310 474 1286 463 q 1356 497 1333 485 q 1400 514 1379 508 q 1442 501 1421 519 q 1460 475 1454 490 q 1465 444 1467 460 q 1457 413 1464 428 q 1436 388 1450 397 q 1409 383 1422 378 q 1383 397 1396 388 q 1356 414 1369 406 q 1325 419 1342 422 q 1281 395 1297 415 q 1249 354 1264 375 q 1219 319 1235 333 q 1176 313 1203 306 q 1152 338 1156 318 q 1149 380 1149 358 q 1145 421 1149 401 q 1121 446 1142 440 q 1119 445 1119 446 q 1118 444 1119 444 q 1111 450 1113 446 q 1110 459 1110 454 q 1109 469 1110 464 q 1104 476 1108 474 q 1095 481 1100 481 q 1085 481 1090 481 q 1075 481 1079 481 q 1069 488 1071 482 q 1073 550 1056 519 q 1124 588 1090 581 q 1156 576 1144 592 q 1178 540 1168 560 q 1199 503 1188 519 q 1232 492 1211 488 m 1168 289 q 1169 290 1168 290 q 1176 285 1175 289 q 1178 277 1178 282 q 1178 267 1178 272 q 1183 258 1179 263 q 1231 240 1204 240 q 1283 240 1257 239 q 1329 237 1308 242 q 1361 207 1350 232 q 1358 144 1375 175 q 1307 107 1340 114 q 1281 114 1290 104 q 1263 138 1271 124 q 1245 165 1254 151 q 1219 183 1236 179 q 1169 181 1193 192 q 1124 158 1146 169 q 1081 140 1101 146 q 1039 153 1060 135 q 1029 185 1024 167 q 1044 224 1035 204 q 1058 263 1053 244 q 1047 296 1064 282 q 1044 296 1047 296 q 1044 312 1038 303 q 1047 332 1050 321 q 1040 339 1044 336 q 1030 344 1035 342 q 1022 348 1025 346 q 1019 356 1019 350 q 1028 387 1019 372 q 1049 410 1036 401 q 1079 423 1063 419 q 1113 422 1096 426 q 1137 397 1133 417 q 1140 356 1140 378 q 1144 314 1140 333 q 1168 289 1147 294 m 1022 135 q 1024 135 1024 136 q 1025 119 1032 128 q 1022 100 1018 110 q 1056 63 1032 75 q 1103 40 1079 50 q 1145 17 1128 31 q 1161 -24 1163 4 q 1151 -54 1160 -40 q 1130 -78 1143 -68 q 1101 -90 1117 -87 q 1068 -89 1085 -93 q 1047 -72 1051 -85 q 1042 -42 1043 -58 q 1038 -10 1040 -26 q 1024 17 1036 6 q 977 35 1003 35 q 926 35 951 36 q 878 38 900 33 q 847 67 857 42 q 852 101 839 86 q 882 131 865 117 q 912 159 899 144 q 917 193 925 174 q 914 194 914 196 q 920 209 910 204 q 931 225 931 214 q 928 235 931 231 q 922 243 925 239 q 916 251 918 247 q 917 260 914 254 q 969 295 933 289 q 1029 279 1004 301 q 1040 245 1046 264 q 1026 206 1035 226 q 1011 167 1017 186 q 1022 135 1006 149 m 824 58 q 825 58 825 60 q 819 44 829 49 q 808 28 810 39 q 823 -21 807 0 q 856 -61 839 -42 q 883 -100 874 -81 q 881 -143 893 -119 q 858 -167 872 -158 q 828 -179 844 -176 q 797 -178 813 -182 q 768 -162 781 -174 q 757 -138 756 -151 q 765 -110 758 -125 q 776 -80 771 -96 q 774 -47 781 -64 q 740 -10 763 -22 q 693 11 717 1 q 652 33 669 21 q 636 74 635 46 q 656 103 638 94 q 695 116 674 111 q 735 129 717 121 q 754 158 753 138 q 753 160 753 158 q 764 170 753 169 q 781 179 775 171 q 780 200 786 190 q 783 217 774 210 q 845 226 811 236 q 893 185 879 217 q 888 151 901 165 q 858 122 875 136 q 828 93 842 108 q 824 58 815 78 m 611 76 l 613 76 l 614 75 q 601 64 613 64 q 585 54 590 64 q 577 5 572 31 q 589 -46 582 -21 q 597 -92 596 -71 q 575 -131 597 -114 q 544 -142 561 -140 q 513 -140 528 -144 q 484 -125 497 -136 q 465 -99 471 -114 q 466 -72 458 -83 q 485 -49 474 -60 q 508 -26 497 -39 q 521 3 519 -14 q 506 51 522 29 q 474 91 490 72 q 447 128 457 110 q 450 171 438 147 q 480 188 460 189 q 522 183 500 188 q 563 178 543 179 q 592 196 582 176 q 592 197 593 197 q 597 202 593 201 q 606 202 601 203 q 617 201 611 201 q 626 204 622 201 q 633 222 635 211 q 643 236 632 233 q 703 218 676 242 q 729 161 731 194 q 710 132 728 140 q 670 119 692 124 q 631 106 649 114 q 611 76 613 97 m 429 185 q 429 183 428 183 q 429 182 431 183 q 423 177 426 178 q 415 178 419 176 q 404 179 410 179 q 394 176 399 179 q 366 134 372 160 q 356 83 360 108 q 342 38 351 58 q 306 14 332 18 q 273 16 289 11 q 245 32 257 21 q 226 58 233 43 q 221 90 219 74 q 233 114 221 107 q 260 125 244 121 q 290 135 275 129 q 314 157 306 142 q 322 206 326 181 q 310 256 317 232 q 302 302 303 281 q 324 340 301 324 q 359 343 342 353 q 394 319 376 333 q 428 297 411 306 q 463 300 446 288 q 463 303 463 303 q 471 304 467 306 q 479 300 475 303 q 488 294 483 297 q 497 293 492 292 q 512 306 508 296 q 526 314 515 317 q 574 272 560 306 q 571 210 588 239 q 540 192 560 190 q 499 197 521 193 q 458 202 478 201 q 429 185 439 203 m 311 361 q 311 358 311 361 q 303 357 307 356 q 294 361 299 358 q 286 367 290 364 q 276 368 282 369 q 232 343 249 364 q 201 301 215 322 q 169 267 186 281 q 126 260 153 253 q 79 303 93 269 q 82 367 65 336 q 104 382 90 381 q 133 381 118 383 q 165 378 149 379 q 196 386 182 376 q 224 426 218 401 q 235 476 231 451 q 248 522 239 501 q 283 546 257 542 q 316 534 304 550 q 338 498 328 518 q 359 462 347 478 q 392 450 371 446 q 393 453 394 453 q 401 451 399 454 q 406 443 404 447 q 411 435 408 439 q 419 429 414 431 q 439 435 431 426 q 456 436 447 443 q 479 377 481 413 q 450 322 478 342 q 415 319 432 310 q 380 342 397 328 q 345 365 363 356 q 311 361 328 374 m 281 571 q 279 569 281 569 q 272 572 275 568 q 267 579 269 575 q 261 588 264 583 q 253 593 258 592 q 203 590 226 600 q 156 567 179 579 q 113 549 133 554 q 71 561 92 543 q 53 588 58 572 q 48 619 47 603 q 56 650 49 635 q 76 675 63 665 q 103 680 90 685 q 130 666 117 675 q 157 649 143 657 q 188 643 171 640 q 231 667 214 647 q 263 708 249 688 q 294 743 278 729 q 338 750 311 757 q 362 725 358 744 q 365 683 365 706 q 369 642 365 661 q 393 617 372 622 q 394 618 393 618 q 401 613 400 617 q 403 603 403 608 q 403 594 403 599 q 408 586 404 589 q 428 583 417 579 q 443 576 439 586 q 440 513 457 544 q 389 475 422 482 q 356 487 368 471 q 335 523 344 503 q 313 559 325 543 q 281 571 301 575 m 346 774 q 344 773 344 774 q 343 772 344 772 q 338 778 339 774 q 335 787 336 782 q 334 797 335 792 q 329 804 333 801 q 282 823 308 822 q 230 822 256 824 q 183 826 204 821 q 151 856 161 831 q 156 919 138 888 q 207 956 174 950 q 233 949 224 958 q 250 925 242 939 q 267 897 258 911 q 293 879 276 883 q 343 883 319 872 q 389 906 367 893 q 432 923 411 918 q 474 910 453 928 q 484 877 489 896 q 469 838 479 858 q 455 799 460 818 q 465 767 450 781 q 468 767 465 767 q 469 751 475 760 q 467 732 463 742 q 473 724 468 726 q 483 720 478 722 q 490 715 488 718 q 493 707 493 713 q 485 676 493 690 q 463 652 476 661 q 434 640 450 643 q 401 640 418 636 q 377 665 381 646 q 374 707 374 685 q 370 749 374 729 q 346 774 367 768 m 601 682 q 559 710 576 694 q 547 749 542 725 q 563 765 550 761 q 593 768 575 768 q 639 758 621 768 q 674 728 657 749 q 689 702 685 714 q 685 679 693 690 q 647 665 669 661 q 601 682 625 669 z "},"6":{"ha":1510,"x_min":44,"x_max":1465,"o":"m 636 632 q 604 653 617 642 q 596 681 592 664 q 607 692 597 689 q 617 694 611 694 q 629 694 622 694 q 690 664 667 694 q 697 655 693 660 q 701 644 700 650 q 699 629 704 635 q 672 618 688 615 q 636 632 656 621 m 114 576 q 89 580 100 576 q 75 596 78 583 q 82 628 71 617 q 110 651 93 640 q 143 673 126 661 q 165 706 160 685 q 161 746 171 726 q 141 783 151 765 q 126 817 131 800 q 135 850 121 833 q 166 862 147 865 q 204 849 185 858 q 247 816 232 835 q 268 767 261 797 q 270 744 271 756 q 258 728 269 733 q 247 729 251 725 q 236 739 242 733 q 226 749 231 744 q 214 750 221 753 q 192 723 194 740 q 191 685 189 706 q 193 644 193 665 q 179 607 193 624 q 114 576 154 576 m 596 568 q 558 573 575 568 q 539 594 542 578 q 544 610 538 604 q 563 622 550 617 q 597 631 582 631 q 631 621 613 631 q 650 608 644 617 q 654 593 657 601 q 634 572 650 576 q 596 568 618 568 m 401 613 q 400 611 400 611 q 391 620 392 611 q 383 632 390 629 q 344 637 364 642 q 306 626 325 632 q 270 619 288 619 q 240 635 253 618 q 230 657 232 644 q 231 682 228 669 q 242 704 235 694 q 261 719 250 714 q 283 719 274 725 q 300 706 292 714 q 318 688 308 697 q 342 679 328 679 q 378 692 363 679 q 408 718 393 704 q 436 740 422 732 q 469 739 450 749 q 483 717 483 732 q 481 685 483 701 q 477 653 478 668 q 492 631 476 638 q 493 632 493 632 q 497 619 500 628 q 499 604 494 611 q 513 599 504 597 q 525 592 522 600 q 513 545 531 567 q 469 524 494 524 q 446 538 453 524 q 435 568 439 551 q 424 599 431 585 q 401 613 418 613 m 214 492 q 203 488 210 486 q 190 492 196 489 q 176 496 183 494 q 165 492 169 497 q 156 458 151 475 q 172 424 161 442 q 192 388 182 407 q 196 349 201 369 q 180 315 190 328 q 150 292 169 301 q 126 284 139 286 q 106 293 114 282 q 99 326 93 310 q 115 358 104 342 q 135 392 125 375 q 140 431 144 410 q 119 465 136 451 q 85 489 103 478 q 56 513 68 500 q 50 547 44 526 q 74 572 56 567 q 114 576 93 576 q 165 565 144 576 q 206 531 186 554 q 217 510 213 521 q 214 492 222 500 m 589 494 q 553 482 569 485 q 525 493 536 479 q 522 510 521 500 q 535 529 528 519 q 563 551 549 544 q 596 557 576 557 q 608 556 603 557 q 619 554 614 556 q 631 542 629 550 q 621 514 633 525 q 589 494 608 503 m 393 449 l 393 447 q 381 451 386 444 q 369 460 376 458 q 333 447 349 460 q 302 419 317 433 q 273 397 288 406 q 239 399 258 389 q 210 438 215 411 q 221 485 204 465 q 240 494 229 494 q 262 489 250 493 q 285 481 274 485 q 310 483 297 478 q 338 510 329 492 q 353 547 346 529 q 369 579 360 565 q 400 593 379 593 q 423 579 417 593 q 433 549 429 565 q 444 519 438 532 q 467 506 450 506 q 468 507 468 507 q 477 497 476 506 q 485 485 478 489 q 500 487 492 482 q 514 485 508 492 q 523 437 529 464 q 493 399 517 410 q 466 401 478 392 q 443 424 454 411 q 420 446 432 436 q 393 449 408 456 m 278 258 q 269 250 276 251 q 256 249 263 249 q 242 247 249 249 q 233 238 235 244 q 240 204 228 217 q 269 181 251 192 q 303 156 286 169 q 324 122 319 143 q 306 51 332 83 q 288 34 297 42 q 267 33 278 26 q 245 60 247 43 q 245 96 243 76 q 248 135 247 115 q 236 172 249 156 q 203 194 224 189 q 163 201 182 199 q 126 211 143 204 q 106 239 110 218 q 116 271 101 258 q 150 292 131 283 q 201 305 178 306 q 253 290 225 304 q 272 277 264 285 q 278 258 281 269 m 614 424 q 586 398 600 407 q 557 396 572 389 q 547 410 549 400 q 548 419 547 414 q 550 432 549 425 q 593 483 560 468 q 615 490 607 490 q 631 485 625 493 q 635 456 642 471 q 614 424 628 440 m 457 299 l 458 297 q 445 295 453 290 q 431 297 438 300 q 403 270 411 289 q 388 233 394 251 q 371 201 381 214 q 340 188 361 188 q 297 209 314 188 q 286 257 279 231 q 299 273 289 269 q 321 278 308 276 q 346 281 333 279 q 367 294 358 283 q 381 331 381 311 q 378 369 381 350 q 378 406 376 389 q 400 431 381 422 q 427 428 415 438 q 450 406 439 418 q 473 383 461 393 q 500 381 485 374 l 500 383 q 512 378 507 386 q 524 371 517 371 q 538 378 533 371 q 550 383 543 386 q 579 344 574 371 q 568 297 585 317 q 542 288 557 285 q 513 297 528 290 q 482 308 497 304 q 457 299 467 311 m 436 76 q 432 65 438 69 q 419 58 426 61 q 408 50 413 54 q 404 39 403 46 q 425 11 408 18 q 462 2 442 4 q 502 -5 482 0 q 536 -26 522 -10 q 553 -60 549 -43 q 551 -97 557 -76 q 542 -121 549 -110 q 524 -131 536 -132 q 493 -117 503 -131 q 477 -84 483 -103 q 463 -47 471 -65 q 436 -18 454 -28 q 397 -14 417 -8 q 357 -26 376 -19 q 320 -33 338 -32 q 289 -17 303 -33 q 285 18 276 0 q 306 51 293 36 q 347 85 325 75 q 400 94 368 96 q 422 92 411 94 q 436 76 433 89 m 667 372 q 653 335 661 350 q 628 321 644 321 q 614 329 618 322 q 610 339 611 333 q 607 351 608 344 q 622 417 599 388 q 639 433 631 426 q 656 433 647 438 q 672 410 671 426 q 667 372 672 393 m 581 190 q 582 189 582 190 q 571 183 579 182 q 557 178 563 185 q 543 141 543 161 q 545 101 543 121 q 544 64 547 81 q 524 39 542 47 q 499 34 511 33 q 475 40 486 35 q 456 56 464 46 q 444 79 447 67 q 449 99 442 92 q 467 113 457 107 q 488 127 478 119 q 501 147 499 135 q 497 186 506 168 q 478 221 488 204 q 463 253 468 238 q 472 285 458 269 q 497 294 482 297 q 527 285 511 292 q 557 274 543 278 q 582 283 571 271 q 582 286 582 283 q 595 287 588 292 q 610 285 603 282 q 617 298 617 289 q 628 307 618 307 q 671 285 654 307 q 681 238 688 263 q 662 218 676 221 q 631 214 647 215 q 599 210 614 213 q 581 190 585 207 m 657 -18 q 658 -30 661 -24 q 651 -42 656 -36 q 643 -53 646 -47 q 644 -65 640 -60 q 676 -81 658 -82 q 713 -74 693 -81 q 752 -63 732 -68 q 792 -68 772 -58 q 822 -91 811 -78 q 836 -125 832 -104 q 838 -149 839 -137 q 826 -168 838 -161 q 792 -168 807 -176 q 764 -145 778 -160 q 735 -117 750 -131 q 699 -104 719 -104 q 660 -117 676 -104 q 630 -144 644 -131 q 600 -167 615 -158 q 565 -165 585 -175 q 546 -136 546 -156 q 551 -97 546 -117 q 574 -49 558 -68 q 617 -18 589 -31 q 639 -10 628 -12 q 657 -18 650 -8 m 738 347 q 740 309 742 326 q 724 285 739 292 q 707 288 715 281 q 692 303 701 290 q 678 369 668 332 q 686 390 679 382 q 700 399 690 399 q 724 383 717 399 q 738 347 732 368 m 738 147 q 738 147 738 146 q 739 146 739 147 q 733 136 742 139 q 722 125 725 133 q 726 86 717 104 q 745 51 735 68 q 760 19 756 35 q 751 -14 765 3 q 707 -34 735 -35 q 664 -12 679 -33 q 659 8 656 -3 q 669 28 663 18 q 681 50 675 39 q 685 74 688 61 q 665 106 681 94 q 633 129 649 118 q 606 152 617 140 q 599 185 594 164 q 617 204 603 201 q 649 208 632 207 q 681 213 667 210 q 700 232 696 215 q 699 233 699 232 q 710 239 701 240 q 722 244 718 238 q 726 260 729 251 q 729 272 722 269 q 778 270 753 282 q 808 233 803 258 q 799 208 811 217 q 773 190 788 199 q 747 173 758 182 q 738 147 735 164 m 897 -8 q 903 -18 903 -11 q 902 -32 903 -25 q 901 -46 901 -39 q 907 -56 900 -53 q 942 -57 926 -65 q 972 -35 957 -49 q 1003 -8 986 -21 q 1040 6 1019 6 q 1077 -2 1063 6 q 1106 -26 1092 -10 q 1118 -48 1114 -37 q 1114 -69 1122 -58 q 1085 -84 1101 -86 q 1049 -75 1068 -82 q 1011 -63 1031 -68 q 972 -67 992 -58 q 944 -95 953 -76 q 928 -133 935 -114 q 911 -167 921 -153 q 879 -181 901 -181 q 849 -163 858 -181 q 836 -125 840 -146 q 835 -72 829 -94 q 861 -25 842 -49 q 877 -9 868 -15 q 897 -8 886 -3 m 811 357 q 831 324 825 339 q 826 294 838 308 q 811 289 821 289 q 801 292 806 290 q 789 296 796 293 q 762 318 771 306 q 749 350 753 331 q 746 363 746 357 q 746 372 746 368 q 756 386 747 382 q 784 383 771 393 q 811 357 797 374 m 899 176 q 900 176 900 176 q 899 163 906 169 q 894 150 892 157 q 915 117 899 129 q 947 93 931 104 q 975 70 964 82 q 981 38 986 58 q 950 0 975 11 q 901 0 925 -11 q 888 16 889 6 q 888 39 886 26 q 891 64 890 51 q 883 88 892 76 q 851 108 871 104 q 811 115 831 113 q 776 123 792 117 q 757 150 761 129 q 765 176 753 167 q 792 193 776 185 q 819 210 807 201 q 828 236 831 219 l 826 236 q 832 247 824 244 q 843 257 840 250 q 838 272 846 265 q 838 285 831 278 q 882 305 854 306 q 925 283 910 304 q 928 257 935 271 q 912 230 922 243 q 895 203 901 217 q 899 176 889 189 m 1110 106 q 1119 99 1117 106 q 1124 86 1122 93 q 1129 73 1126 79 q 1139 67 1132 67 q 1171 81 1161 67 q 1188 114 1181 94 q 1205 152 1196 133 q 1233 181 1214 171 q 1269 189 1253 189 q 1306 179 1286 189 q 1326 165 1317 172 q 1332 144 1335 157 q 1311 118 1326 124 q 1276 110 1296 113 q 1236 105 1256 108 q 1203 85 1217 101 q 1189 47 1189 68 q 1191 6 1189 26 q 1190 -31 1193 -14 q 1168 -58 1188 -49 q 1133 -55 1149 -67 q 1106 -26 1118 -43 q 1081 21 1086 -3 q 1083 75 1076 44 q 1092 96 1086 86 q 1110 106 1097 106 m 874 397 q 906 375 893 386 q 914 347 918 364 q 903 336 913 339 q 893 333 899 333 q 881 333 888 333 q 846 340 860 333 q 819 364 832 347 q 813 373 817 368 q 808 383 810 378 q 811 399 804 392 q 838 410 822 413 q 874 397 854 407 m 1031 272 q 1032 272 1032 272 q 1036 261 1039 269 q 1038 246 1033 253 q 1070 225 1050 229 q 1110 218 1090 221 q 1146 209 1131 215 q 1165 182 1161 203 q 1154 135 1172 157 q 1110 114 1136 114 q 1091 123 1097 114 q 1081 144 1085 132 q 1072 167 1076 156 q 1056 185 1067 179 q 1017 190 1036 194 q 978 178 997 185 q 943 172 960 172 q 914 188 926 171 q 911 214 904 200 q 928 241 918 228 q 944 268 938 254 q 940 294 950 282 q 939 294 939 294 q 940 308 933 301 q 946 321 947 314 q 934 332 943 329 q 928 343 925 335 q 960 381 935 369 q 1008 381 985 392 q 1022 358 1022 374 q 1019 326 1022 343 q 1016 294 1017 310 q 1031 272 1015 279 m 1251 300 q 1263 299 1258 303 q 1274 289 1268 294 q 1284 279 1279 283 q 1296 278 1289 275 q 1318 305 1315 288 q 1319 342 1321 322 q 1317 383 1317 363 q 1331 421 1317 404 q 1396 451 1356 451 q 1420 448 1408 451 q 1435 432 1432 444 q 1428 399 1439 411 q 1400 377 1417 388 q 1367 355 1383 367 q 1344 322 1350 343 q 1349 282 1339 301 q 1369 245 1358 263 q 1384 211 1379 228 q 1375 178 1389 194 q 1343 166 1361 163 q 1306 179 1325 169 q 1263 212 1278 193 q 1242 261 1249 231 q 1240 283 1239 272 q 1251 300 1240 294 m 913 460 q 951 455 935 460 q 971 433 967 450 q 965 418 972 425 q 946 406 960 410 q 879 407 913 390 q 860 419 865 411 q 856 435 851 428 q 875 456 858 451 q 913 460 892 460 m 1108 415 q 1109 416 1110 415 q 1110 417 1108 417 q 1119 408 1118 417 q 1126 396 1119 399 q 1165 391 1144 386 q 1203 402 1185 396 q 1240 409 1222 408 q 1269 393 1257 410 q 1278 347 1285 374 q 1247 308 1271 319 q 1226 308 1235 303 q 1208 322 1217 314 q 1190 340 1200 331 q 1168 349 1181 349 q 1132 335 1147 349 q 1102 309 1117 322 q 1073 288 1088 296 q 1040 289 1058 279 q 1026 311 1025 296 q 1029 343 1026 326 q 1032 375 1032 360 q 1018 397 1032 390 q 1017 397 1017 397 q 1015 396 1017 396 q 1012 408 1008 400 q 1010 424 1015 417 q 996 429 1004 431 q 985 436 988 428 q 997 483 979 461 q 1040 504 1014 504 q 1064 490 1057 504 q 1075 460 1071 476 q 1085 429 1079 443 q 1108 415 1092 415 m 1296 536 q 1306 540 1300 542 q 1319 536 1313 539 q 1333 532 1326 533 q 1344 536 1340 531 q 1353 569 1358 553 q 1337 603 1347 586 q 1317 640 1326 621 q 1314 679 1308 658 q 1330 713 1319 700 q 1360 736 1340 726 q 1383 744 1371 742 q 1403 735 1396 746 q 1410 702 1415 718 q 1395 669 1406 686 q 1375 635 1385 653 q 1369 597 1365 618 q 1390 563 1374 576 q 1424 539 1407 550 q 1453 515 1442 528 q 1460 481 1465 501 q 1435 456 1454 461 q 1396 451 1417 451 q 1304 497 1338 451 q 1292 517 1297 507 q 1296 536 1288 528 m 921 533 q 957 546 940 543 q 985 535 974 549 q 986 518 990 528 q 981 509 985 514 q 975 499 978 504 q 947 477 961 483 q 913 471 933 471 q 890 474 901 471 q 879 486 881 478 q 889 514 876 503 q 921 533 901 525 m 1117 579 q 1117 581 1115 581 q 1128 576 1124 583 q 1140 568 1133 569 q 1177 581 1161 568 q 1208 608 1193 594 q 1236 631 1222 622 q 1269 629 1250 639 q 1299 590 1293 617 q 1289 543 1304 563 q 1269 533 1281 532 q 1247 539 1258 535 q 1223 547 1235 543 q 1199 544 1211 550 q 1171 517 1179 536 q 1156 481 1163 499 q 1140 449 1150 463 q 1110 435 1131 435 q 1087 449 1093 435 q 1076 479 1081 463 q 1065 509 1072 496 q 1042 522 1058 522 q 1040 521 1042 521 q 1033 530 1033 521 q 1025 543 1032 539 q 1009 541 1017 546 q 996 543 1001 536 q 987 591 981 564 q 1017 629 993 618 q 1044 626 1032 636 q 1067 604 1056 617 q 1090 582 1078 592 q 1117 579 1101 572 m 1232 769 q 1240 778 1233 776 q 1254 779 1247 779 q 1268 781 1261 779 q 1276 789 1275 782 q 1270 823 1282 810 q 1241 847 1258 836 q 1207 872 1224 858 q 1186 906 1190 885 q 1204 976 1178 946 q 1222 994 1211 986 q 1243 994 1232 1001 q 1264 968 1261 985 q 1264 932 1267 951 q 1260 892 1261 913 q 1272 856 1260 872 q 1306 834 1286 839 q 1347 826 1326 829 q 1383 817 1367 824 q 1404 789 1400 810 q 1394 757 1408 769 q 1360 736 1379 744 q 1308 723 1332 722 q 1257 738 1285 724 q 1238 751 1246 743 q 1232 769 1229 758 m 896 604 q 924 630 910 621 q 953 632 938 639 q 961 618 961 628 q 958 596 963 610 q 915 544 951 560 q 894 538 904 538 q 879 543 885 536 q 875 572 868 557 q 896 604 882 588 m 1051 729 q 1051 731 1051 731 q 1065 733 1057 738 q 1079 731 1072 728 q 1106 758 1097 739 q 1122 795 1115 776 q 1139 827 1129 814 q 1169 840 1149 840 q 1213 819 1196 840 q 1224 771 1231 797 q 1211 755 1221 758 q 1189 750 1201 751 q 1163 746 1176 749 q 1142 733 1150 743 q 1129 697 1129 717 q 1131 658 1129 678 q 1131 622 1133 639 q 1108 597 1128 606 q 1082 600 1093 590 q 1060 622 1071 610 q 1037 644 1049 635 q 1010 647 1025 654 l 1010 644 q 998 649 1003 642 q 985 657 993 657 q 972 649 976 657 q 960 644 967 642 q 931 684 936 657 q 942 731 925 711 q 966 740 951 743 q 997 731 981 738 q 1026 720 1013 724 q 1051 729 1040 717 m 1074 951 q 1077 963 1072 958 q 1089 970 1082 967 q 1101 978 1096 974 q 1106 989 1107 982 q 1085 1017 1101 1010 q 1048 1026 1068 1024 q 1008 1033 1028 1028 q 974 1054 988 1038 q 958 1125 949 1085 q 967 1149 961 1138 q 986 1158 974 1160 q 1017 1144 1007 1158 q 1033 1112 1026 1131 q 1047 1074 1039 1093 q 1074 1046 1054 1056 q 1113 1042 1093 1036 q 1153 1053 1133 1047 q 1190 1060 1172 1060 q 1221 1044 1207 1061 q 1225 1010 1233 1028 q 1204 976 1217 992 q 1163 942 1185 953 q 1110 933 1140 932 q 1088 936 1099 933 q 1074 951 1076 939 m 843 656 q 857 692 849 678 q 882 707 865 707 q 896 699 889 706 q 903 676 900 689 q 888 611 911 640 q 871 594 879 600 q 854 594 863 590 q 838 618 839 601 q 843 656 838 635 m 929 838 q 928 839 928 838 q 939 844 931 846 q 953 850 947 843 q 966 887 967 867 q 963 926 965 907 q 964 963 961 946 q 986 989 967 981 q 1035 987 1010 999 q 1065 949 1060 975 q 1060 928 1068 936 q 1042 915 1053 921 q 1022 901 1032 908 q 1008 881 1011 893 q 1013 842 1004 860 q 1032 807 1022 824 q 1047 774 1042 790 q 1038 743 1051 758 q 1012 733 1026 731 q 982 743 997 736 q 951 753 967 750 q 926 744 936 757 q 927 743 926 743 q 928 742 928 743 q 915 741 922 736 q 900 743 907 746 q 892 730 893 739 q 882 721 890 721 q 838 743 856 721 q 828 790 821 765 q 847 810 832 807 q 878 814 861 813 q 910 818 896 815 q 929 838 925 821 m 853 1046 q 851 1058 849 1051 q 858 1069 854 1064 q 865 1081 863 1075 q 864 1093 868 1088 q 834 1109 851 1110 q 797 1102 817 1108 q 758 1091 778 1096 q 718 1096 738 1086 q 688 1119 699 1106 q 674 1153 678 1132 q 672 1177 671 1165 q 683 1196 672 1189 q 717 1196 703 1204 q 745 1173 732 1188 q 774 1145 758 1158 q 811 1132 790 1132 q 849 1145 833 1132 q 880 1172 865 1158 q 910 1194 894 1186 q 944 1193 925 1203 q 963 1164 963 1183 q 958 1125 964 1144 q 936 1077 951 1096 q 893 1046 921 1058 q 871 1038 882 1040 q 853 1046 860 1036 m 772 681 q 769 719 768 701 q 786 743 771 736 q 801 740 794 747 q 818 725 808 736 q 832 658 842 696 q 828 647 829 651 q 824 638 826 642 q 810 629 819 629 q 785 644 793 629 q 772 681 776 660 m 825 954 q 845 922 829 933 q 877 899 861 910 q 904 876 893 888 q 911 843 915 864 q 892 824 907 826 q 860 819 878 821 q 828 815 843 818 q 810 796 814 813 q 811 794 811 796 q 800 789 808 788 q 786 783 792 790 q 784 767 781 776 q 779 756 788 758 q 731 757 756 744 q 701 794 707 769 q 709 820 697 811 q 736 838 721 829 q 763 855 751 846 q 772 881 775 864 q 771 881 771 882 q 769 882 771 881 q 776 892 768 889 q 788 903 785 894 q 783 942 792 924 q 764 976 774 960 q 749 1009 754 993 q 757 1042 744 1025 q 802 1062 774 1063 q 846 1040 831 1061 q 851 1019 854 1029 q 840 999 847 1010 q 828 978 833 989 q 825 954 822 967 m 682 792 l 683 792 q 678 781 686 783 q 667 771 669 778 q 671 756 664 763 q 672 743 678 750 q 628 723 656 722 q 585 744 600 724 q 581 771 575 757 q 598 798 588 785 q 615 825 608 811 q 611 851 621 839 q 610 851 610 851 q 611 865 604 858 q 615 878 618 871 q 595 911 611 899 q 563 935 579 924 q 535 958 546 946 q 528 990 524 969 q 560 1028 535 1017 q 608 1028 585 1039 q 622 1012 621 1022 q 622 989 624 1001 q 619 963 619 976 q 626 940 618 950 q 659 919 639 924 q 699 913 679 915 q 733 905 718 911 q 753 878 749 899 q 744 852 756 861 q 717 835 732 843 q 691 817 703 826 q 682 792 679 808 m 501 647 q 487 669 486 654 q 490 701 488 685 q 493 733 493 718 q 479 756 493 749 q 476 756 476 756 q 473 767 469 758 q 471 782 476 775 q 438 803 458 799 q 399 810 418 807 q 363 819 379 813 q 343 846 347 825 q 356 892 338 871 q 400 914 374 914 q 418 905 413 914 q 428 884 424 896 q 437 860 432 872 q 454 843 442 849 q 492 838 472 833 q 531 849 513 843 q 565 856 549 856 q 594 840 582 857 q 598 814 604 828 q 582 787 592 800 q 565 760 572 774 q 568 733 558 746 q 571 733 568 733 q 568 720 575 726 q 564 707 561 714 q 575 696 567 699 q 582 685 583 693 q 550 647 575 658 q 501 647 525 636 m 404 1054 q 391 1076 396 1065 q 394 1097 386 1086 q 425 1112 408 1114 q 460 1103 442 1110 q 499 1091 479 1096 q 538 1094 518 1086 q 566 1123 557 1104 q 582 1161 575 1142 q 599 1194 589 1181 q 631 1208 608 1208 q 660 1191 651 1208 q 674 1153 669 1174 q 674 1099 681 1122 q 649 1053 668 1076 q 633 1037 642 1043 q 613 1036 624 1031 q 606 1046 606 1039 q 607 1060 606 1053 q 608 1074 608 1067 q 601 1083 608 1081 q 567 1085 582 1093 q 537 1063 551 1076 q 506 1035 522 1049 q 468 1022 490 1022 q 404 1054 428 1022 m 699 671 q 678 704 685 689 q 683 733 672 719 q 699 739 689 739 q 719 732 706 738 q 748 710 739 722 q 761 678 757 697 q 763 665 763 671 q 764 656 764 660 q 754 642 763 646 q 725 644 739 635 q 699 671 711 654 m 204 849 q 184 863 193 856 q 178 883 175 871 q 198 910 182 904 q 233 917 214 915 q 273 923 253 919 q 307 943 293 926 q 320 981 321 960 q 318 1022 319 1001 q 319 1059 317 1042 q 342 1086 322 1076 q 376 1083 361 1094 q 404 1054 392 1071 q 428 1007 424 1031 q 425 953 432 983 q 417 932 422 942 q 400 922 411 922 q 390 928 393 922 q 384 942 386 935 q 379 955 382 949 q 369 961 376 961 q 339 947 349 961 q 322 914 329 933 q 305 876 314 894 q 276 847 296 857 q 204 849 239 832 z "},"7":{"ha":1471,"x_min":47,"x_max":1424,"o":"m 251 214 l 199 175 l 211 214 l 251 214 l 251 214 m 246 318 l 258 360 l 281 343 l 246 318 l 246 318 m 314 367 l 261 367 l 293 465 l 168 556 l 296 556 l 349 393 l 314 367 l 314 367 m 521 -12 l 500 -75 l 488 -36 l 521 -12 l 521 -12 m 454 67 l 440 108 l 468 108 l 454 67 l 454 67 m 481 147 l 439 117 l 407 214 l 251 214 l 356 289 l 494 189 l 481 147 l 481 147 m 211 214 l 103 214 l 246 318 l 211 214 l 211 214 m 356 289 l 281 343 l 314 367 l 468 367 l 481 329 l 444 354 l 356 289 l 356 289 m 513 306 l 533 367 l 551 367 l 583 465 l 601 451 l 658 276 l 606 238 l 513 306 l 513 306 m 608 472 l 586 472 l 600 514 l 613 476 l 608 472 l 608 472 m 871 -39 l 892 -100 l 860 -76 l 871 -39 l 871 -39 m 771 -12 l 736 13 l 757 29 l 771 -12 l 771 -12 m 744 67 l 729 18 l 646 78 l 521 -12 l 560 108 l 732 108 l 744 67 l 744 67 m 488 -36 l 400 -100 l 454 67 l 488 -36 l 488 -36 m 560 108 l 468 108 l 481 147 l 606 238 l 638 214 l 594 214 l 560 108 l 560 108 m 658 276 l 674 288 l 642 385 l 664 385 l 813 276 l 793 214 l 678 214 l 658 276 l 658 276 m 657 406 l 639 393 l 625 435 l 658 411 l 657 406 l 657 406 m 1171 147 l 1224 108 l 1183 108 l 1171 147 l 1171 147 m 1074 108 l 1031 108 l 1039 135 l 1074 108 l 1074 108 m 1006 158 l 1022 108 l 919 108 l 871 -39 l 832 83 l 971 183 l 1006 158 l 1006 158 m 860 -76 l 825 -181 l 771 -12 l 860 -76 l 860 -76 m 832 83 l 757 29 l 744 67 l 793 214 l 833 214 l 797 189 l 832 83 l 832 83 m 813 276 l 819 294 l 736 354 l 753 367 l 938 367 l 958 306 l 865 238 l 813 276 l 813 276 m 736 379 l 729 360 l 693 385 l 733 385 l 736 379 l 736 379 m 1303 472 l 1368 472 l 1336 449 l 1303 472 l 1303 472 m 1247 385 l 1213 360 l 1204 385 l 1247 385 l 1247 385 m 1164 385 l 1206 354 l 1122 294 l 1171 147 l 1067 222 l 1119 385 l 1164 385 l 1164 385 m 1183 108 l 1217 6 l 1074 108 l 1183 108 l 1183 108 m 1067 222 l 1039 135 l 1006 158 l 958 306 l 990 329 l 978 288 l 1067 222 l 1067 222 m 938 367 l 932 385 l 829 385 l 836 406 l 986 514 l 1039 476 l 1003 367 l 938 367 l 938 367 m 815 406 l 821 385 l 778 385 l 810 408 l 815 406 l 815 406 m 1219 814 l 1272 853 l 1260 814 l 1219 814 l 1219 814 m 1226 711 l 1213 669 l 1190 685 l 1226 711 l 1226 711 m 1158 661 l 1210 661 l 1178 564 l 1303 472 l 1175 472 l 1122 636 l 1158 661 l 1158 661 m 1336 449 l 1424 385 l 1247 385 l 1336 449 l 1336 449 m 864 472 l 881 460 l 846 435 l 858 472 l 864 472 l 864 472 m 813 411 l 810 408 l 757 447 l 765 472 l 793 472 l 813 411 l 813 411 m 1065 472 l 1175 472 l 1204 385 l 1164 385 l 1039 476 l 1051 514 l 1065 472 l 1065 472 m 950 1042 l 971 1103 l 983 1065 l 950 1042 l 950 1042 m 1017 961 l 1031 919 l 1003 919 l 1017 961 l 1017 961 m 990 882 l 1033 913 l 1065 814 l 1219 814 l 1117 739 l 978 840 l 990 882 l 990 882 m 1260 814 l 1368 814 l 1226 711 l 1260 814 l 1260 814 m 1117 739 l 1190 685 l 1158 661 l 1003 661 l 990 700 l 1026 674 l 1117 739 l 1117 739 m 938 661 l 919 661 l 888 564 l 871 576 l 813 753 l 865 790 l 958 724 l 938 661 l 938 661 m 864 556 l 885 556 l 871 514 l 860 553 l 864 556 l 864 556 m 600 1067 l 579 1129 l 613 1106 l 600 1067 l 600 1067 m 700 1042 l 736 1015 l 714 1000 l 700 1042 l 700 1042 m 726 961 l 742 1011 l 825 950 l 950 1042 l 911 919 l 740 919 l 726 961 l 726 961 m 983 1065 l 1071 1129 l 1017 961 l 983 1065 l 983 1065 m 911 919 l 1003 919 l 990 882 l 865 790 l 833 814 l 876 814 l 911 919 l 911 919 m 813 753 l 797 742 l 829 643 l 808 643 l 658 753 l 678 814 l 793 814 l 813 753 l 813 753 m 832 636 l 846 594 l 813 618 l 815 622 l 832 636 l 832 636 m 301 882 l 249 919 l 289 919 l 301 882 l 301 882 m 397 919 l 440 919 l 432 894 l 397 919 l 397 919 m 449 919 l 551 919 l 600 1067 l 639 946 l 500 844 l 465 871 l 449 919 l 449 919 m 613 1106 l 646 1208 l 700 1042 l 613 1106 l 613 1106 m 513 724 l 606 790 l 658 753 l 653 735 l 736 674 l 718 661 l 533 661 l 513 724 l 513 724 m 742 669 l 778 643 l 738 643 l 736 649 l 742 669 l 742 669 m 810 619 l 813 618 l 793 556 l 765 556 l 757 582 l 810 619 l 810 619 m 432 553 l 468 661 l 533 661 l 539 643 l 642 643 l 635 622 l 485 514 l 432 553 l 432 553 m 693 643 l 661 619 l 657 622 l 650 643 l 693 643 l 693 643 m 738 643 l 757 582 l 736 565 l 714 582 l 733 643 l 738 643 l 738 643 m 468 367 l 432 476 l 485 514 l 500 503 l 583 564 l 590 543 l 533 367 l 468 367 l 468 367 m 625 594 l 614 556 l 608 556 l 590 568 l 625 594 l 625 594 m 661 619 l 714 582 l 706 556 l 678 556 l 658 618 l 661 619 l 661 619 m 736 565 l 749 556 l 722 556 l 736 565 l 736 565 m 168 556 l 103 556 l 135 579 l 168 556 l 168 556 m 224 643 l 258 669 l 267 643 l 224 643 l 224 643 m 265 674 l 349 735 l 301 882 l 404 807 l 351 643 l 307 643 l 265 674 l 265 674 m 289 919 l 254 1024 l 397 919 l 289 919 l 289 919 m 419 514 l 407 556 l 296 556 l 267 643 l 307 643 l 432 553 l 419 514 l 419 514 m 481 700 l 494 742 l 404 807 l 432 894 l 465 871 l 513 724 l 481 700 l 481 700 m 638 814 l 674 840 l 639 946 l 714 1000 l 726 961 l 678 814 l 638 814 l 638 814 m 771 540 l 749 556 l 765 556 l 771 540 l 771 540 m 858 556 l 860 553 l 807 514 l 785 531 l 793 556 l 858 556 l 858 556 m 779 514 l 771 540 l 785 531 l 779 514 l 779 514 m 860 476 l 858 472 l 793 472 l 785 499 l 807 514 l 860 476 l 860 476 m 771 489 l 779 514 l 785 499 l 771 489 l 771 489 m 986 514 l 971 525 l 888 465 l 881 485 l 938 661 l 1003 661 l 1039 553 l 986 514 l 986 514 m 749 472 l 771 489 l 765 472 l 749 472 l 749 472 m 738 385 l 733 385 l 714 447 l 736 463 l 757 447 l 738 385 l 738 385 m 722 472 l 749 472 l 736 463 l 722 472 l 722 472 m 661 408 l 658 411 l 678 472 l 706 472 l 714 447 l 661 408 l 661 408 m 700 489 l 722 472 l 706 472 l 700 489 l 700 489 m 614 472 l 613 476 l 665 514 l 686 499 l 678 472 l 614 472 l 614 472 m 692 514 l 700 489 l 686 499 l 692 514 l 692 514 m 613 553 l 614 556 l 678 556 l 686 531 l 665 514 l 613 553 l 613 553 m 700 540 l 692 514 l 686 531 l 700 540 l 700 540 m 706 556 l 722 556 l 700 540 l 706 556 l 706 556 m 135 579 l 47 643 l 224 643 l 135 579 l 135 579 z "},"8":{"ha":1489,"x_min":47,"x_max":1442,"o":"m 756 -51 l 815 131 l 675 131 l 650 206 l 585 158 l 625 131 l 571 131 l 529 0 l 740 0 l 756 -51 l 756 -51 m 1076 61 l 1018 242 l 904 158 l 840 206 l 815 131 l 864 131 l 821 99 l 863 -32 l 1033 93 l 1076 61 l 1076 61 m 1271 340 l 1117 451 l 1074 318 l 993 318 l 1018 242 l 1058 271 l 1042 219 l 1151 139 l 1217 340 l 1271 340 l 1271 340 m 496 318 l 415 318 l 431 271 l 388 303 l 278 222 l 447 99 l 431 47 l 585 158 l 471 242 l 496 318 l 496 318 m 357 499 l 340 550 l 204 550 l 269 350 l 226 318 l 415 318 l 372 451 l 438 499 l 372 546 l 357 499 l 357 499 m 431 726 l 447 778 l 338 857 l 272 657 l 218 657 l 372 546 l 415 679 l 496 679 l 471 756 l 431 726 l 431 726 m 733 1047 l 675 867 l 815 867 l 840 790 l 904 838 l 864 867 l 918 867 l 960 997 l 750 997 l 733 1047 l 733 1047 m 626 1028 l 718 1094 l 701 1146 l 744 1114 l 718 1094 l 733 1047 l 753 1108 l 856 1035 l 1008 1146 l 960 997 l 1074 997 l 1090 1047 l 1107 997 l 1074 997 l 1058 950 l 1110 988 l 1149 867 l 1339 867 l 1213 775 l 1304 708 l 1347 740 l 1331 689 l 1304 708 l 1264 679 l 1328 679 l 1289 560 l 1442 447 l 1285 447 l 1321 340 l 1374 340 l 1331 308 l 1321 340 l 1271 340 l 1322 303 l 1221 228 l 1279 47 l 1151 139 l 1117 32 l 1160 0 l 1107 0 l 1117 32 l 1076 61 l 1097 0 l 971 0 l 911 -181 l 863 -32 l 771 -99 l 788 -149 l 744 -118 l 771 -99 l 756 -51 l 736 -111 l 635 -37 l 481 -149 l 529 0 l 415 0 l 399 -51 l 382 0 l 415 0 l 431 47 l 379 10 l 340 131 l 150 131 l 278 222 l 186 289 l 142 257 l 158 308 l 186 289 l 226 318 l 163 318 l 201 438 l 47 550 l 204 550 l 169 657 l 115 657 l 158 689 l 169 657 l 218 657 l 167 694 l 269 769 l 211 950 l 338 857 l 372 965 l 329 997 l 382 997 l 372 965 l 413 936 l 393 997 l 519 997 l 578 1178 l 626 1028 l 626 1028 m 625 867 l 668 899 l 626 1028 l 456 904 l 413 936 l 471 756 l 585 838 l 650 790 l 675 867 l 625 867 l 625 867 m 1074 679 l 1117 546 l 1053 499 l 1117 451 l 1132 499 l 1149 447 l 1285 447 l 1221 647 l 1264 679 l 1074 679 l 1074 679 m 993 679 l 1074 679 l 1058 726 l 1101 694 l 1213 775 l 1042 899 l 1058 950 l 904 838 l 1018 756 l 993 679 l 993 679 m 1053 499 l 1033 513 l 932 438 l 924 463 l 993 679 l 971 679 l 932 560 l 910 575 l 840 790 l 821 778 l 860 657 l 833 657 l 650 790 l 643 769 l 744 694 l 724 679 l 496 679 l 503 657 l 629 657 l 621 632 l 438 499 l 456 485 l 558 560 l 567 535 l 496 318 l 519 318 l 558 438 l 579 422 l 650 206 l 668 219 l 629 340 l 656 340 l 840 206 l 847 228 l 744 303 l 767 318 l 993 318 l 986 340 l 860 340 l 868 365 l 1053 499 l 1053 499 m 761 550 l 782 550 l 771 581 l 744 561 l 761 550 l 761 550 m 788 531 l 804 518 l 815 550 l 782 550 l 788 531 l 788 531 m 788 467 l 782 447 l 815 447 l 804 479 l 788 467 l 788 467 m 761 447 l 744 435 l 771 415 l 782 447 l 761 447 l 761 447 m 728 447 l 707 447 l 718 415 l 744 435 l 728 447 l 728 447 m 701 467 l 685 479 l 675 447 l 707 447 l 701 467 l 701 467 m 593 546 l 594 550 l 588 550 l 567 565 l 610 597 l 594 550 l 675 550 l 650 626 l 653 628 l 647 632 l 639 657 l 693 657 l 653 628 l 718 581 l 743 657 l 747 657 l 744 664 l 753 689 l 796 657 l 747 657 l 771 581 l 836 628 l 840 626 l 842 632 l 863 647 l 879 597 l 840 626 l 815 550 l 894 550 l 896 546 l 901 550 l 928 550 l 911 499 l 896 546 l 832 499 l 896 451 l 894 447 l 901 447 l 924 432 l 879 400 l 894 447 l 815 447 l 840 371 l 836 369 l 842 365 l 850 340 l 796 340 l 836 369 l 771 415 l 747 340 l 743 340 l 744 333 l 736 308 l 693 340 l 743 340 l 718 415 l 653 369 l 650 371 l 647 365 l 626 350 l 610 400 l 650 371 l 675 447 l 594 447 l 593 451 l 588 447 l 561 447 l 578 499 l 593 451 l 658 499 l 593 546 l 593 546 m 685 518 l 701 531 l 707 550 l 675 550 l 685 518 l 685 518 m 690 499 l 685 518 l 658 499 l 685 479 l 690 499 l 690 499 m 701 531 l 690 499 l 701 467 l 728 447 l 761 447 l 788 467 l 799 499 l 804 479 l 832 499 l 804 518 l 799 499 l 788 531 l 761 550 l 728 550 l 744 561 l 718 581 l 707 550 l 728 550 l 701 531 l 701 531 z "},"9":{"ha":1461,"x_min":47,"x_max":1414,"o":"m 1150 -36 l 1096 3 l 881 -153 l 826 11 l 882 51 l 819 51 l 744 -178 l 724 -112 l 458 -112 l 511 51 l 579 51 l 528 88 l 333 -54 l 356 11 l 140 167 l 279 268 l 333 229 l 315 289 l 75 289 l 129 328 l 47 582 l 219 582 l 240 517 l 260 576 l 65 718 l 133 718 l 215 971 l 356 869 l 333 804 l 385 842 l 310 1069 l 365 1031 l 581 1186 l 633 1022 l 579 983 l 642 983 l 715 1211 l 736 1147 l 1003 1147 l 950 983 l 882 983 l 932 946 l 1126 1088 l 1106 1022 l 1321 867 l 1182 765 l 1126 804 l 1146 746 l 1386 746 l 1332 706 l 1414 453 l 1242 453 l 1221 517 l 1201 457 l 1396 317 l 1328 317 l 1246 63 l 1106 164 l 1126 229 l 1076 192 l 1150 -36 m 1044 746 l 956 472 l 967 440 l 1096 533 l 1119 517 l 1201 576 l 1146 746 l 1044 746 m 850 147 l 932 88 l 1076 192 l 1044 289 l 757 289 l 731 268 l 860 175 l 850 147 m 850 886 l 939 613 l 967 593 l 1015 746 l 1044 746 l 1076 842 l 932 946 l 850 886 m 610 886 l 843 718 l 876 718 l 826 869 l 850 886 l 819 983 l 642 983 l 610 886 m 260 576 l 342 517 l 574 686 l 585 718 l 425 718 l 415 746 l 315 746 l 260 576 m 415 289 l 385 192 l 528 88 l 610 147 l 521 421 l 494 440 l 444 289 l 415 289 m 819 51 l 850 147 l 618 317 l 585 317 l 633 164 l 610 147 l 642 51 l 819 51 m 385 842 l 415 746 l 703 746 l 731 765 l 601 858 l 610 886 l 528 946 l 385 842 m 1044 289 l 1146 289 l 1201 457 l 1119 517 l 886 347 l 876 317 l 1036 317 l 1044 289 m 315 289 l 415 289 l 504 561 l 494 593 l 365 500 l 342 517 l 260 457 l 315 289 m 922 576 l 921 582 l 819 582 l 806 542 l 840 517 l 922 576 m 654 542 l 642 582 l 540 582 l 539 576 l 621 517 l 654 542 m 778 453 l 764 413 l 846 353 l 850 356 l 819 453 l 778 453 m 733 718 l 728 718 l 696 621 l 731 597 l 764 621 l 733 718 m 728 317 l 733 317 l 764 413 l 731 438 l 696 413 l 728 317 m 610 356 l 614 353 l 696 413 l 683 453 l 642 453 l 610 356 m 850 678 l 846 681 l 764 621 l 778 582 l 819 582 l 850 678 m 921 453 l 922 457 l 840 517 l 806 492 l 819 453 l 921 453 m 614 681 l 610 678 l 642 582 l 683 582 l 696 621 l 614 681 m 621 517 l 539 457 l 540 453 l 642 453 l 654 492 l 621 517 m 881 706 l 853 686 l 850 678 l 901 640 l 881 706 m 597 718 l 607 686 l 614 681 l 665 718 l 597 718 m 719 276 l 731 308 l 728 317 l 665 317 l 719 276 m 942 517 l 963 582 l 929 582 l 922 576 l 942 517 m 901 393 l 956 432 l 929 453 l 921 453 l 901 393 m 560 393 l 581 328 l 607 347 l 610 356 l 560 393 m 560 640 l 504 601 l 532 582 l 540 582 l 560 640 m 539 457 l 519 517 l 499 453 l 532 453 l 539 457 m 864 317 l 853 347 l 846 353 l 796 317 l 864 317 m 796 718 l 740 757 l 731 725 l 733 718 l 796 718 m 785 557 l 778 582 l 751 582 l 785 557 m 710 582 l 683 582 l 675 557 l 710 582 m 654 542 l 663 517 l 675 557 l 654 542 m 663 517 l 654 492 l 675 476 l 663 517 m 751 582 l 731 597 l 710 582 l 751 582 m 710 453 l 731 438 l 751 453 l 710 453 m 785 476 l 806 492 l 799 517 l 785 476 m 799 517 l 806 542 l 785 557 l 799 517 m 785 476 l 751 453 l 778 453 l 785 476 m 675 476 l 683 453 l 710 453 l 675 476 z "}," ":{"ha":694,"x_min":0,"x_max":0,"o":""},".":{"ha":1483,"x_min":47,"x_max":1436,"o":"m 742 -18 l 644 22 l 539 22 l 626 -65 l 742 -18 l 742 -18 m 944 22 l 839 22 l 742 -18 l 857 -65 l 944 22 l 944 22 m 929 60 l 742 514 l 742 22 l 839 22 l 929 60 l 929 60 m 1118 138 l 1019 97 l 944 22 l 1069 22 l 1118 138 l 1118 138 m 1233 311 l 1158 236 l 1118 138 l 1233 186 l 1233 311 l 1233 311 m 1196 326 l 742 514 l 1089 167 l 1158 236 l 1196 326 l 1196 326 m 1274 514 l 1233 417 l 1233 311 l 1321 399 l 1274 514 l 1274 514 m 1233 717 l 1233 611 l 1274 514 l 1321 629 l 1233 717 l 1233 717 m 1196 701 l 742 514 l 1233 514 l 1233 611 l 1196 701 l 1196 701 m 1118 890 l 1158 792 l 1233 717 l 1233 842 l 1118 890 l 1118 890 m 944 1006 l 1019 931 l 1118 890 l 1069 1006 l 944 1006 l 944 1006 m 929 968 l 742 514 l 1089 861 l 1019 931 l 929 968 l 929 968 m 742 1046 l 839 1006 l 944 1006 l 857 1093 l 742 1046 l 742 1046 m 539 1006 l 644 1006 l 742 1046 l 626 1093 l 539 1006 l 539 1006 m 554 968 l 742 514 l 742 1006 l 644 1006 l 554 968 l 554 968 m 365 890 l 464 931 l 539 1006 l 414 1006 l 365 890 l 365 890 m 250 717 l 325 792 l 365 890 l 250 842 l 250 717 l 250 717 m 163 399 l 47 514 l 163 629 l 100 779 l 250 842 l 250 1006 l 414 1006 l 476 1156 l 626 1093 l 742 1208 l 857 1093 l 1007 1156 l 1069 1006 l 1233 1006 l 1233 842 l 1383 779 l 1321 629 l 1436 514 l 1321 399 l 1383 249 l 1233 186 l 1233 22 l 1069 22 l 1007 -128 l 857 -65 l 742 -181 l 626 -65 l 476 -128 l 414 22 l 250 22 l 250 186 l 100 249 l 163 399 l 163 399 m 288 701 l 742 514 l 394 861 l 325 792 l 288 701 l 288 701 m 210 514 l 250 611 l 250 717 l 163 629 l 210 514 l 210 514 m 250 417 l 288 326 l 742 514 l 250 514 l 250 417 l 250 417 m 250 311 l 250 417 l 210 514 l 163 399 l 250 311 l 250 311 m 394 167 l 464 97 l 554 60 l 742 514 l 394 167 l 394 167 m 365 138 l 325 236 l 250 311 l 250 186 l 365 138 l 365 138 m 464 97 l 365 138 l 414 22 l 539 22 l 464 97 l 464 97 z "},"/":{"ha":1443,"x_min":47,"x_max":1396,"o":"m 611 429 q 613 408 613 418 q 614 386 614 397 q 467 347 536 386 q 358 238 396 307 q 321 93 321 169 q 246 103 283 93 q 174 132 208 113 q 138 157 153 143 q 135 178 136 168 q 135 200 135 189 q 174 347 135 281 q 318 308 240 308 q 467 347 396 307 q 529 394 503 367 q 575 454 556 422 q 593 442 585 449 q 611 429 601 436 m 67 533 q 174 640 106 601 q 279 533 213 574 q 428 493 346 493 q 506 503 468 493 q 575 533 543 514 q 585 514 581 524 q 593 493 590 504 q 585 474 590 483 q 575 454 581 464 q 428 493 508 493 q 279 453 346 493 q 174 347 213 414 q 67 454 106 386 q 56 474 60 464 q 47 493 51 483 q 56 513 51 504 q 67 533 60 522 m 174 856 q 246 885 208 875 q 321 894 283 894 q 358 749 321 818 q 467 640 396 681 q 614 601 536 601 q 613 579 614 590 q 611 557 613 568 q 593 544 601 550 q 575 533 585 539 q 529 593 556 565 q 467 640 503 621 q 318 679 396 681 q 174 640 240 678 q 135 788 135 707 q 135 809 135 799 q 138 831 136 819 q 155 843 146 838 q 174 856 164 849 m 385 1078 q 406 1080 396 1079 q 428 1081 417 1081 q 575 1042 508 1081 q 535 897 536 975 q 575 747 535 818 q 682 640 614 679 q 657 604 671 619 q 635 601 646 601 q 614 601 625 601 q 575 747 614 679 q 466 856 535 818 q 321 894 397 894 q 360 1042 321 972 q 385 1078 371 1063 m 761 1149 q 868 1042 829 1110 q 761 936 801 1003 q 721 788 721 869 q 731 710 721 747 q 761 640 742 672 q 721 621 740 628 q 682 640 701 629 q 721 788 721 707 q 681 936 721 869 q 575 1042 642 1003 q 682 1149 614 1110 q 721 1168 701 1160 q 741 1159 732 1164 q 761 1149 750 1154 m 1083 1042 q 1122 894 1122 972 q 977 856 1046 894 q 868 747 908 818 q 829 601 829 679 q 807 601 818 601 q 785 604 796 601 q 761 640 771 622 q 868 747 829 679 q 907 897 908 818 q 868 1042 906 975 q 1015 1081 935 1081 q 1037 1080 1026 1081 q 1058 1078 1047 1079 q 1071 1060 1065 1069 q 1083 1042 1076 1051 m 1306 831 q 1308 809 1307 819 q 1308 788 1308 799 q 1269 640 1308 707 q 1124 679 1203 678 q 975 640 1046 681 q 868 533 907 601 q 832 557 850 543 q 829 579 829 568 q 829 601 829 590 q 975 640 907 601 q 1084 749 1046 681 q 1122 894 1122 818 q 1269 856 1200 894 q 1288 843 1279 849 q 1306 831 1297 838 m 1376 454 q 1269 347 1338 386 q 1164 453 1231 414 q 1015 493 1097 493 q 868 454 935 493 q 849 493 857 474 q 868 533 856 513 q 938 503 900 514 q 1015 493 975 493 q 1164 533 1097 493 q 1269 640 1231 574 q 1376 533 1338 601 q 1387 513 1382 522 q 1396 493 1392 504 q 1376 454 1388 474 m 1269 132 q 1122 93 1200 93 q 1084 238 1122 169 q 975 347 1046 307 q 829 386 907 386 q 829 408 829 397 q 832 429 829 418 q 868 454 847 443 q 975 347 907 386 q 1124 308 1046 307 q 1269 347 1203 308 q 1308 200 1308 281 q 1308 178 1308 189 q 1306 157 1307 168 q 1269 132 1290 143 m 761 347 q 772 365 767 357 q 785 383 778 374 q 807 385 796 385 q 829 386 818 386 q 868 239 829 308 q 977 131 908 168 q 1122 93 1046 93 q 1113 18 1122 56 q 1083 -54 1103 -19 q 1071 -73 1076 -64 q 1058 -90 1065 -82 q 1037 -92 1047 -92 q 1015 -93 1026 -93 q 868 -54 935 -93 q 907 90 906 13 q 868 239 908 168 q 821 301 849 275 q 761 347 793 328 m 682 -161 q 575 -54 614 -122 q 681 51 642 -15 q 721 200 721 118 q 682 347 721 281 q 701 358 692 353 q 721 365 711 363 q 742 358 732 363 q 761 347 751 353 q 731 278 742 315 q 721 200 721 240 q 761 51 721 118 q 868 -54 801 -15 q 761 -161 829 -122 q 741 -172 750 -168 q 721 -181 732 -176 q 701 -172 711 -176 q 682 -161 692 -168 m 360 -54 q 331 18 340 -19 q 321 93 321 56 q 466 131 397 93 q 575 239 535 168 q 614 386 614 308 q 635 385 625 386 q 657 383 646 385 q 670 365 664 374 q 682 347 676 357 q 622 301 650 328 q 575 239 594 275 q 535 90 535 168 q 575 -54 536 13 q 428 -93 508 -93 q 406 -92 417 -93 q 385 -90 396 -92 q 360 -54 371 -75 z "},":":{"ha":1483,"x_min":47,"x_max":1436,"o":"m 268 318 l 546 318 l 546 40 l 742 236 l 938 40 l 938 318 l 1215 318 l 1019 514 l 1215 710 l 938 710 l 938 988 l 742 792 l 546 988 l 546 710 l 268 710 l 464 514 l 268 318 l 268 318 m 497 -75 l 349 -75 l 349 121 l 153 121 l 153 269 l 47 375 l 186 514 l 47 653 l 153 758 l 153 907 l 349 907 l 349 1103 l 497 1103 l 603 1208 l 742 1069 l 881 1208 l 986 1103 l 1135 1103 l 1135 907 l 1331 907 l 1331 758 l 1436 653 l 1297 514 l 1436 375 l 1331 269 l 1331 121 l 1135 121 l 1135 -75 l 986 -75 l 881 -181 l 742 -42 l 603 -181 l 497 -75 l 497 -75 m 660 318 l 546 318 l 546 432 l 464 514 l 546 596 l 546 710 l 660 710 l 742 792 l 824 710 l 938 710 l 938 596 l 1019 514 l 938 432 l 938 318 l 824 318 l 742 236 l 660 318 l 660 318 z "},";":{"ha":1443,"x_min":47,"x_max":1396,"o":"m 611 429 q 613 408 613 418 q 614 386 614 397 q 467 347 536 386 q 358 238 396 307 q 321 93 321 169 q 246 103 283 93 q 174 132 208 113 q 138 157 153 143 q 135 178 136 168 q 135 200 135 189 q 174 347 135 281 q 318 308 240 308 q 467 347 396 307 q 529 394 503 367 q 575 454 556 422 q 593 442 585 449 q 611 429 601 436 m 67 533 q 174 640 106 601 q 279 533 213 574 q 428 493 346 493 q 506 503 468 493 q 575 533 543 514 q 585 514 581 524 q 593 493 590 504 q 585 474 590 483 q 575 454 581 464 q 428 493 508 493 q 279 453 346 493 q 174 347 213 414 q 67 454 106 386 q 56 474 60 464 q 47 493 51 483 q 56 513 51 504 q 67 533 60 522 m 174 856 q 246 885 208 875 q 321 894 283 894 q 358 749 321 818 q 467 640 396 681 q 614 601 536 601 q 613 579 614 590 q 611 557 613 568 q 593 544 601 550 q 575 533 585 539 q 529 593 556 565 q 467 640 503 621 q 318 679 396 681 q 174 640 240 678 q 135 788 135 707 q 135 809 135 799 q 138 831 136 819 q 155 843 146 838 q 174 856 164 849 m 385 1078 q 406 1080 396 1079 q 428 1081 417 1081 q 575 1042 508 1081 q 535 897 536 975 q 575 747 535 818 q 682 640 614 679 q 657 604 671 619 q 635 601 646 601 q 614 601 625 601 q 575 747 614 679 q 466 856 535 818 q 321 894 397 894 q 360 1042 321 972 q 385 1078 371 1063 m 761 1149 q 868 1042 829 1110 q 761 936 801 1003 q 721 788 721 869 q 731 710 721 747 q 761 640 742 672 q 721 621 740 628 q 682 640 701 629 q 721 788 721 707 q 681 936 721 869 q 575 1042 642 1003 q 682 1149 614 1110 q 721 1168 701 1160 q 741 1159 732 1164 q 761 1149 750 1154 m 1083 1042 q 1122 894 1122 972 q 977 856 1046 894 q 868 747 908 818 q 829 601 829 679 q 807 601 818 601 q 785 604 796 601 q 761 640 771 622 q 868 747 829 679 q 907 897 908 818 q 868 1042 906 975 q 1015 1081 935 1081 q 1037 1080 1026 1081 q 1058 1078 1047 1079 q 1071 1060 1065 1069 q 1083 1042 1076 1051 m 1306 831 q 1308 809 1307 819 q 1308 788 1308 799 q 1269 640 1308 707 q 1124 679 1203 678 q 975 640 1046 681 q 868 533 907 601 q 832 557 850 543 q 829 579 829 568 q 829 601 829 590 q 975 640 907 601 q 1084 749 1046 681 q 1122 894 1122 818 q 1269 856 1200 894 q 1288 843 1279 849 q 1306 831 1297 838 m 1376 454 q 1269 347 1338 386 q 1164 453 1231 414 q 1015 493 1097 493 q 868 454 935 493 q 849 493 857 474 q 868 533 856 513 q 938 503 900 514 q 1015 493 975 493 q 1164 533 1097 493 q 1269 640 1231 574 q 1376 533 1338 601 q 1387 513 1382 522 q 1396 493 1392 504 q 1376 454 1388 474 m 1269 132 q 1122 93 1200 93 q 1084 238 1122 169 q 975 347 1046 307 q 829 386 907 386 q 829 408 829 397 q 832 429 829 418 q 868 454 847 443 q 975 347 907 386 q 1124 308 1046 307 q 1269 347 1203 308 q 1308 200 1308 281 q 1308 178 1308 189 q 1306 157 1307 168 q 1269 132 1290 143 m 761 347 q 772 365 767 357 q 785 383 778 374 q 807 385 796 385 q 829 386 818 386 q 868 239 829 308 q 977 131 908 168 q 1122 93 1046 93 q 1113 18 1122 56 q 1083 -54 1103 -19 q 1071 -73 1076 -64 q 1058 -90 1065 -82 q 1037 -92 1047 -92 q 1015 -93 1026 -93 q 868 -54 935 -93 q 907 90 906 13 q 868 239 908 168 q 821 301 849 275 q 761 347 793 328 m 682 -161 q 575 -54 614 -122 q 681 51 642 -15 q 721 200 721 118 q 682 347 721 281 q 701 358 692 353 q 721 365 711 363 q 742 358 732 363 q 761 347 751 353 q 731 278 742 315 q 721 200 721 240 q 761 51 721 118 q 868 -54 801 -15 q 761 -161 829 -122 q 741 -172 750 -168 q 721 -181 732 -176 q 701 -172 711 -176 q 682 -161 692 -168 m 360 -54 q 331 18 340 -19 q 321 93 321 56 q 466 131 397 93 q 575 239 535 168 q 614 386 614 308 q 635 385 625 386 q 657 383 646 385 q 670 365 664 374 q 682 347 676 357 q 622 301 650 328 q 575 239 594 275 q 535 90 535 168 q 575 -54 536 13 q 428 -93 508 -93 q 406 -92 417 -93 q 385 -90 396 -92 q 360 -54 371 -75 z "},"<":{"ha":1483,"x_min":46,"x_max":1438,"o":"m 614 514 q 631 450 626 482 q 613 463 622 457 q 594 475 604 468 q 606 494 601 485 q 614 514 610 503 m 158 176 q 95 247 121 207 q 58 331 69 286 q 48 422 46 375 q 68 514 50 469 q 76 494 71 503 q 86 475 81 485 q 194 367 126 406 q 165 298 175 335 q 154 221 154 261 q 158 176 154 199 m 635 407 q 625 332 635 369 q 594 260 615 294 q 485 151 554 189 q 340 113 417 113 q 378 258 340 189 q 488 367 417 326 q 560 397 522 388 q 635 407 597 407 m 594 475 q 488 367 556 408 q 339 328 417 326 q 194 367 261 329 q 299 474 232 433 q 449 514 365 514 q 594 475 528 514 m 194 661 q 339 700 261 699 q 488 661 417 701 q 594 553 556 619 q 449 514 528 514 q 299 554 365 514 q 194 661 232 594 m 631 578 q 614 514 626 546 q 606 534 610 525 q 594 553 601 543 q 613 565 604 560 q 631 578 622 571 m 194 661 q 86 553 126 622 q 76 534 81 543 q 68 514 71 525 q 48 606 50 558 q 58 697 46 653 q 95 781 69 742 q 158 851 121 821 q 154 807 154 828 q 165 730 154 767 q 194 661 175 693 m 340 915 q 485 877 417 915 q 594 768 554 839 q 625 696 615 733 q 635 621 635 658 q 560 631 597 621 q 488 661 522 640 q 378 770 417 701 q 340 915 340 839 m 158 851 q 187 940 165 899 q 241 1015 208 982 q 315 1069 274 1047 q 404 1097 357 1090 q 392 1081 397 1089 q 381 1061 386 1072 q 350 990 360 1026 q 340 915 340 953 q 266 906 303 915 q 194 875 229 896 q 175 864 183 869 q 158 851 167 858 m 678 625 q 631 578 657 599 q 635 621 635 599 q 678 625 657 621 m 594 1061 q 701 957 661 1024 q 742 807 742 890 q 703 661 742 728 q 594 768 636 700 q 556 917 554 839 q 594 1061 557 994 m 742 642 q 678 625 710 629 q 690 642 685 633 q 703 661 696 651 q 722 650 713 654 q 742 642 731 646 m 594 1061 q 526 1091 563 1081 q 449 1101 489 1101 q 404 1097 426 1101 q 474 1160 435 1135 q 558 1198 514 1186 q 650 1208 603 1210 q 742 1188 697 1206 q 722 1180 731 1185 q 703 1169 713 1175 q 594 1061 633 1129 m 889 1061 q 928 917 926 994 q 889 768 929 839 q 781 661 847 700 q 742 807 742 728 q 782 957 742 890 q 889 1061 822 1024 m 806 625 q 742 642 774 629 q 762 650 753 646 q 781 661 771 654 q 793 642 788 651 q 806 625 799 633 m 889 1061 q 781 1169 850 1129 q 762 1180 771 1175 q 742 1188 753 1185 q 833 1208 786 1206 q 925 1198 881 1210 q 1009 1160 969 1186 q 1079 1097 1049 1135 q 1035 1101 1056 1101 q 958 1091 994 1101 q 889 1061 921 1081 m 1143 915 q 1105 770 1143 839 q 996 661 1067 701 q 924 631 961 640 q 849 621 886 621 q 858 696 849 658 q 889 768 868 733 q 998 877 929 839 q 1143 915 1067 915 m 1079 1097 q 1168 1069 1126 1090 q 1242 1015 1210 1047 q 1297 940 1275 982 q 1325 851 1318 899 q 1308 864 1317 858 q 1289 875 1300 869 q 1217 906 1254 896 q 1143 915 1181 915 q 1133 990 1143 953 q 1103 1061 1124 1026 q 1092 1081 1097 1072 q 1079 1097 1086 1089 m 853 578 q 806 625 826 599 q 849 621 826 621 q 853 578 849 599 m 1289 661 q 1185 554 1251 594 q 1035 514 1118 514 q 889 553 956 514 q 996 661 928 619 q 1144 700 1067 701 q 1289 661 1222 699 m 869 514 q 853 578 857 546 q 870 565 861 571 q 889 553 879 560 q 878 534 882 543 q 869 514 874 525 m 1289 661 q 1319 730 1308 693 q 1329 807 1329 767 q 1325 851 1329 828 q 1388 781 1363 821 q 1426 697 1414 742 q 1435 606 1438 653 q 1415 514 1433 558 q 1408 534 1413 525 q 1397 553 1403 543 q 1289 661 1357 622 m 1289 367 q 1144 328 1222 329 q 996 367 1067 326 q 889 475 928 408 q 1035 514 956 514 q 1185 474 1118 514 q 1289 367 1251 433 m 853 450 q 869 514 857 482 q 878 494 874 503 q 889 475 882 485 q 870 463 879 468 q 853 450 861 457 m 1289 367 q 1397 475 1357 406 q 1408 494 1403 485 q 1415 514 1413 503 q 1435 422 1433 469 q 1426 331 1438 375 q 1388 247 1414 286 q 1325 176 1363 207 q 1329 221 1329 199 q 1319 298 1329 261 q 1289 367 1308 335 m 1143 113 q 998 151 1067 113 q 889 260 929 189 q 858 332 868 294 q 849 407 849 369 q 924 397 886 407 q 996 367 961 388 q 1105 258 1067 326 q 1143 113 1143 189 m 806 403 q 853 450 826 429 q 849 407 849 429 q 806 403 826 407 m 1143 113 q 1217 122 1181 113 q 1289 153 1254 132 q 1308 164 1300 158 q 1325 176 1317 169 q 1297 88 1318 129 q 1242 13 1275 46 q 1168 -41 1210 -19 q 1079 -69 1126 -62 q 1092 -53 1086 -61 q 1103 -33 1097 -44 q 1133 38 1124 1 q 1143 113 1143 75 m 742 221 q 781 367 742 300 q 889 260 847 328 q 928 111 929 189 q 889 -33 926 33 q 782 71 822 4 q 742 221 742 138 m 742 386 q 806 403 774 399 q 793 385 799 394 q 781 367 788 376 q 762 378 771 374 q 742 386 753 382 m 889 -33 q 958 -63 921 -53 q 1035 -74 994 -74 q 1079 -69 1056 -74 q 1009 -133 1049 -107 q 925 -170 969 -158 q 833 -180 881 -182 q 742 -160 786 -178 q 762 -152 753 -157 q 781 -142 771 -147 q 889 -33 850 -101 m 594 -33 q 556 111 557 33 q 594 260 554 189 q 703 367 636 328 q 742 221 742 300 q 701 71 742 138 q 594 -33 661 4 m 678 403 q 742 386 710 399 q 722 378 731 382 q 703 367 713 374 q 690 385 696 376 q 678 403 685 394 m 594 -33 q 703 -142 633 -101 q 722 -152 713 -147 q 742 -160 731 -157 q 650 -180 697 -178 q 558 -170 603 -182 q 474 -133 514 -158 q 404 -69 435 -107 q 449 -74 426 -74 q 526 -63 489 -74 q 594 -33 563 -53 m 635 407 q 631 450 635 429 q 678 403 657 429 q 635 407 657 407 m 404 -69 q 315 -41 357 -62 q 241 13 274 -19 q 187 88 208 46 q 158 176 165 129 q 175 164 167 169 q 194 153 183 158 q 266 122 229 132 q 340 113 303 113 q 350 38 340 75 q 381 -33 360 1 q 392 -53 386 -44 q 404 -69 397 -61 z "},">":{"ha":1483,"x_min":47,"x_max":1436,"o":"m 785 589 q 778 598 779 592 q 779 610 776 604 q 788 617 782 615 q 800 615 794 618 q 807 606 806 613 q 806 594 808 600 q 797 588 803 589 q 785 589 790 586 m 779 657 q 765 667 769 660 q 763 686 760 675 q 792 703 769 708 q 806 692 801 700 q 808 674 811 683 q 797 659 806 664 q 779 657 789 654 m 846 618 q 839 635 839 625 q 846 651 839 644 q 863 658 853 658 q 879 651 872 658 q 886 635 886 644 q 879 618 886 625 q 863 611 872 611 q 846 618 853 611 m 885 553 q 887 571 882 563 q 901 582 892 579 q 931 564 924 588 q 914 535 936 542 q 896 537 904 532 q 885 553 888 542 m 901 446 q 885 475 878 453 q 895 491 888 486 q 914 493 903 496 q 931 463 935 486 q 901 446 924 440 m 846 375 q 839 392 839 382 q 846 410 839 403 q 863 417 853 417 q 879 410 872 417 q 886 392 886 403 q 879 375 886 382 q 863 368 872 368 q 846 375 853 368 m 763 342 q 765 360 760 351 q 781 371 769 368 q 799 369 790 374 q 810 354 807 364 q 792 325 815 332 q 763 342 769 319 m 690 325 q 676 336 681 328 q 674 354 671 344 q 685 369 676 364 q 703 371 693 374 q 717 360 713 368 q 719 342 722 351 q 709 327 717 332 q 690 325 701 322 m 603 375 q 596 392 596 382 q 603 410 596 403 q 620 417 610 417 q 638 410 631 417 q 644 392 644 403 q 638 375 644 382 q 620 368 631 368 q 603 375 610 368 m 553 464 q 569 493 547 486 q 588 491 579 496 q 599 475 596 486 q 597 457 601 465 q 582 446 592 449 q 553 464 560 440 m 569 535 q 553 564 547 542 q 564 578 556 574 q 582 581 572 583 q 597 570 592 578 q 599 551 601 563 q 588 537 596 542 q 569 535 579 532 m 603 618 q 596 635 596 625 q 603 651 596 644 q 620 658 610 658 q 638 651 631 658 q 644 635 644 644 q 638 618 644 625 q 620 611 631 611 q 603 618 610 611 m 674 674 q 692 703 668 696 q 721 686 714 708 q 719 668 724 676 q 703 657 714 660 q 685 659 693 654 q 674 674 676 664 m 856 710 q 837 733 840 718 q 840 763 833 749 q 864 781 849 778 q 894 778 879 785 q 912 754 908 769 q 908 725 915 739 q 885 706 900 710 q 856 710 869 703 m 828 838 q 790 867 803 844 q 783 914 776 889 q 813 952 790 939 q 861 958 836 965 q 899 929 886 951 q 904 882 911 907 q 875 844 897 857 q 828 838 853 831 m 979 751 q 960 795 960 769 q 979 839 960 821 q 1023 858 997 858 q 1067 839 1049 858 q 1086 795 1086 821 q 1067 751 1086 769 q 1023 732 1049 732 q 979 751 997 732 m 1065 601 q 1072 649 1058 626 q 1110 678 1085 671 q 1157 672 1135 685 q 1186 633 1179 658 q 1180 586 1193 608 q 1142 557 1167 564 q 1094 563 1117 550 q 1065 601 1072 575 m 1110 350 q 1072 379 1085 357 q 1065 426 1058 401 q 1094 465 1072 451 q 1142 471 1117 478 q 1180 442 1167 464 q 1186 394 1193 419 q 1157 356 1179 369 q 1110 350 1135 343 m 979 188 q 960 233 960 207 q 979 276 960 258 q 1023 296 997 296 q 1067 276 1049 296 q 1086 233 1086 258 q 1067 188 1086 207 q 1023 169 1049 169 q 979 188 997 169 m 785 114 q 790 161 778 139 q 829 190 803 183 q 876 184 854 197 q 906 146 899 171 q 899 99 913 121 q 861 69 886 76 q 814 76 836 63 q 785 114 792 89 m 622 69 q 584 99 597 76 q 578 146 571 121 q 607 184 585 171 q 654 190 629 197 q 692 160 679 183 q 699 113 706 138 q 669 75 692 88 q 622 69 647 63 m 415 188 q 397 232 397 207 q 415 276 397 257 q 460 296 435 296 q 504 276 486 296 q 524 232 524 257 q 504 188 524 207 q 460 169 486 169 q 415 188 435 169 m 297 394 q 303 442 290 419 q 342 471 317 464 q 389 465 367 478 q 418 426 411 453 q 412 379 425 401 q 374 350 399 357 q 326 356 349 343 q 297 394 304 369 m 340 556 q 303 585 315 563 q 297 633 290 608 q 326 672 304 658 q 374 678 349 685 q 412 648 399 671 q 418 600 425 625 q 388 562 411 575 q 340 556 365 549 m 415 751 q 397 795 397 769 q 415 839 397 821 q 460 858 435 858 q 504 839 486 858 q 524 795 524 821 q 504 751 524 769 q 460 732 486 732 q 415 751 435 732 m 578 882 q 584 929 571 907 q 622 958 597 951 q 669 952 647 965 q 699 914 692 939 q 693 867 706 889 q 654 838 681 844 q 607 844 629 831 q 578 882 585 857 m 988 940 q 940 1001 951 961 q 950 1078 929 1042 q 1013 1125 972 1114 q 1089 1115 1053 1136 q 1136 1053 1125 1094 q 1126 976 1147 1013 q 1065 930 1106 940 q 988 940 1024 919 m 817 557 q 815 569 814 563 q 822 578 817 575 q 834 579 828 581 q 843 572 840 578 q 844 560 846 567 q 838 551 843 554 q 826 550 832 549 q 817 557 819 551 m 938 628 q 934 657 931 642 q 953 681 938 672 q 982 684 967 688 q 1006 667 997 681 q 1009 636 1013 651 q 990 613 1006 621 q 961 609 976 606 q 938 628 946 613 m 1168 760 q 1158 837 1147 796 q 1204 899 1168 878 q 1281 908 1240 919 q 1343 861 1322 897 q 1353 785 1364 825 q 1306 722 1342 744 q 1229 713 1269 701 q 1168 760 1189 724 m 828 514 q 843 529 828 529 q 858 514 858 529 q 843 499 858 499 q 828 514 828 499 m 968 514 q 980 541 968 529 q 1007 553 992 553 q 1034 541 1022 553 q 1046 514 1046 529 q 1034 487 1046 499 q 1007 475 1022 475 q 980 487 992 475 q 968 514 968 499 m 1233 514 q 1263 585 1233 556 q 1335 615 1293 615 q 1406 585 1376 615 q 1436 514 1436 556 q 1406 442 1436 472 q 1335 413 1376 413 q 1263 442 1293 413 q 1233 514 1233 472 m 822 450 q 815 459 817 453 q 817 471 814 465 q 826 478 819 476 q 838 476 832 479 q 844 467 843 474 q 843 456 846 461 q 834 449 840 450 q 822 450 828 447 m 953 347 q 934 371 938 356 q 938 400 931 386 q 961 419 946 415 q 990 415 976 422 q 1009 392 1006 407 q 1006 363 1013 376 q 982 344 997 347 q 953 347 967 340 m 1204 129 q 1158 191 1168 150 q 1168 268 1147 232 q 1229 315 1189 304 q 1306 306 1269 326 q 1353 244 1342 285 q 1343 167 1364 203 q 1281 119 1322 131 q 1204 129 1240 108 m 779 418 q 785 439 772 432 q 797 440 790 442 q 806 433 803 439 q 807 422 808 428 q 800 413 806 415 q 788 411 794 410 q 779 418 782 413 m 840 265 q 837 294 833 279 q 856 318 840 310 q 885 322 869 325 q 908 304 900 318 q 912 274 915 289 q 894 250 908 258 q 864 247 879 243 q 840 265 849 250 m 950 -50 q 940 26 929 -14 q 988 88 951 67 q 1065 98 1024 108 q 1126 51 1106 88 q 1136 -26 1147 15 q 1089 -87 1125 -67 q 1013 -97 1053 -108 q 950 -50 972 -86 m 726 413 q 742 428 726 428 q 757 413 757 428 q 742 397 757 397 q 726 413 726 397 m 703 249 q 715 276 703 264 q 742 288 726 288 q 769 276 757 288 q 781 249 781 264 q 769 222 781 233 q 742 210 757 210 q 715 222 726 210 q 703 249 703 233 m 640 -79 q 670 -8 640 -37 q 742 22 700 22 q 813 -8 783 22 q 843 -79 843 -37 q 813 -151 843 -121 q 742 -181 783 -181 q 670 -151 700 -181 q 640 -79 640 -121 m 683 413 q 676 422 678 415 q 678 433 675 428 q 687 440 681 439 q 699 439 693 442 q 706 430 704 436 q 704 418 707 424 q 695 411 701 413 q 683 413 689 410 m 590 250 q 572 274 575 258 q 575 303 568 289 q 599 322 583 318 q 628 318 614 325 q 647 294 643 310 q 643 265 650 279 q 619 247 635 250 q 590 250 604 243 m 394 -87 q 347 -26 358 -67 q 357 51 336 15 q 419 98 379 88 q 496 88 460 108 q 543 26 532 67 q 533 -50 554 -14 q 472 -97 513 -86 q 394 -87 431 -108 m 640 456 q 646 476 635 469 q 667 471 660 483 q 668 459 669 465 q 661 450 667 453 q 649 449 656 447 q 640 456 643 450 m 478 363 q 474 392 471 376 q 493 415 478 407 q 522 419 507 422 q 546 400 538 415 q 549 371 553 386 q 532 347 546 356 q 501 344 517 340 q 478 363 486 347 m 140 167 q 131 243 119 203 q 178 306 142 283 q 254 315 214 326 q 315 268 294 304 q 326 191 338 232 q 279 129 315 150 q 202 119 243 108 q 140 167 161 131 m 625 514 q 640 529 625 529 q 656 514 656 529 q 640 499 656 499 q 625 514 625 499 m 438 514 q 449 541 438 529 q 476 553 461 553 q 503 541 492 553 q 515 514 515 529 q 503 487 515 499 q 476 475 492 475 q 449 487 461 475 q 438 514 438 499 m 47 514 q 77 585 47 556 q 149 615 107 615 q 220 585 190 615 q 250 514 250 556 q 220 442 250 472 q 149 413 190 413 q 77 442 107 413 q 47 514 47 472 m 646 551 q 640 572 635 558 q 649 579 643 578 q 661 578 656 581 q 668 569 667 575 q 667 557 669 563 q 646 551 660 544 m 493 613 q 474 636 478 621 q 478 665 471 651 q 501 684 486 681 q 532 681 517 688 q 549 657 546 672 q 546 628 553 642 q 522 609 538 613 q 493 613 507 606 m 178 722 q 131 784 142 743 q 140 861 119 825 q 202 908 161 897 q 279 899 243 919 q 326 837 315 878 q 315 760 338 796 q 254 713 294 724 q 178 722 214 701 m 678 594 q 676 606 675 600 q 683 615 678 613 q 695 617 689 618 q 704 610 701 615 q 706 598 707 604 q 699 589 704 592 q 687 588 693 586 q 678 594 681 589 m 575 725 q 572 754 568 739 q 590 778 575 769 q 619 781 604 785 q 643 763 635 778 q 647 733 650 749 q 628 710 643 718 q 599 706 614 703 q 575 725 583 710 m 357 976 q 347 1053 336 1013 q 394 1115 358 1094 q 472 1125 431 1136 q 533 1078 513 1114 q 543 1001 554 1042 q 496 940 532 961 q 419 930 460 919 q 357 976 378 940 m 726 615 q 742 631 726 631 q 757 615 757 631 q 742 600 757 600 q 726 615 726 600 m 703 779 q 715 806 703 794 q 742 818 726 818 q 769 806 757 818 q 781 779 781 794 q 769 752 781 764 q 742 740 757 740 q 715 752 726 740 q 703 779 703 764 m 640 1107 q 670 1178 640 1149 q 742 1208 700 1208 q 813 1178 783 1208 q 843 1107 843 1149 q 813 1035 843 1065 q 742 1006 783 1006 q 670 1035 700 1006 q 640 1107 640 1065 z "},"?":{"ha":1483,"x_min":47,"x_max":1436,"o":"m 1215 640 l 1088 860 l 868 988 l 615 988 l 396 860 l 268 640 l 268 388 l 396 168 l 615 40 l 868 40 l 1088 168 l 1215 388 l 1215 640 l 1215 640 m 1003 1165 l 1060 1065 l 1175 1065 l 1175 988 l 1106 988 l 1146 918 l 1215 878 l 1215 947 l 1293 947 l 1293 832 l 1393 775 l 1354 707 l 1293 742 l 1293 661 l 1333 592 l 1368 653 l 1436 614 l 1378 514 l 1436 414 l 1368 375 l 1333 436 l 1293 367 l 1293 286 l 1354 321 l 1393 253 l 1293 196 l 1293 81 l 1215 81 l 1215 150 l 1146 110 l 1106 40 l 1175 40 l 1175 -37 l 1060 -37 l 1003 -137 l 935 -99 l 969 -37 l 889 -37 l 819 -78 l 881 -112 l 842 -181 l 742 -122 l 642 -181 l 603 -112 l 664 -78 l 594 -37 l 514 -37 l 549 -99 l 481 -137 l 424 -37 l 308 -37 l 308 40 l 378 40 l 338 110 l 268 150 l 268 81 l 190 81 l 190 196 l 90 253 l 129 321 l 190 286 l 190 367 l 150 436 l 115 375 l 47 414 l 106 514 l 47 614 l 115 653 l 150 592 l 190 661 l 190 742 l 129 707 l 90 775 l 190 832 l 190 947 l 268 947 l 268 878 l 338 918 l 378 988 l 308 988 l 308 1065 l 424 1065 l 481 1165 l 549 1126 l 514 1065 l 594 1065 l 664 1106 l 603 1140 l 642 1208 l 742 1150 l 842 1208 l 881 1140 l 819 1106 l 889 1065 l 969 1065 l 935 1126 l 1003 1165 l 1003 1165 z "},"A":{"ha":1482,"x_min":35,"x_max":1435,"o":"m 150 854 q 184 938 161 897 q 242 1013 207 978 q 400 1103 311 1079 q 308 944 335 1038 q 224 910 264 933 q 150 854 183 886 m 240 513 q 150 671 174 582 q 222 726 182 703 q 308 763 261 750 l 308 761 q 344 676 321 715 q 399 604 367 636 q 315 570 356 593 q 242 514 275 547 l 240 513 m 579 419 q 489 409 535 408 q 399 421 443 410 q 470 477 431 454 q 554 513 510 500 q 711 506 632 490 q 579 419 633 475 m 490 944 q 478 853 478 899 q 490 764 479 807 q 310 763 401 788 l 308 763 q 297 856 296 810 q 308 944 297 901 q 399 958 353 957 q 490 946 444 958 l 490 944 m 579 606 q 640 556 607 578 q 711 521 672 535 q 631 526 671 528 q 554 513 592 524 q 399 604 465 538 q 579 606 486 629 m 490 946 q 582 1103 518 1039 q 667 1069 626 1092 q 740 1013 707 1047 q 683 938 706 978 q 649 856 661 899 q 578 910 617 888 q 492 946 539 933 l 490 946 m 579 606 q 490 764 514 674 q 647 675 582 739 q 719 535 665 599 q 652 578 688 561 q 579 606 617 596 m 740 700 q 733 542 719 622 q 647 675 703 621 q 637 765 636 719 q 649 856 638 811 q 705 784 682 824 q 740 700 728 744 m 835 675 q 785 614 807 647 q 749 542 763 581 q 740 700 764 624 q 832 856 765 789 q 845 765 844 811 q 835 675 846 719 m 558 1194 q 651 1206 606 1207 q 740 1194 697 1206 q 582 1103 647 1168 q 400 1103 490 1128 q 472 1158 432 1135 q 558 1194 511 1182 m 899 1103 q 990 946 965 1039 q 903 910 943 933 q 832 856 864 888 q 742 1013 808 944 l 740 1013 q 815 1069 775 1047 q 899 1103 856 1092 m 992 764 q 958 679 981 719 q 903 606 935 639 q 763 535 825 586 q 835 675 814 596 q 992 764 900 739 m 899 1103 q 826 1159 867 1136 q 740 1194 785 1182 q 831 1206 785 1206 q 924 1194 876 1207 q 1082 1103 1015 1169 q 899 1103 990 1128 m 992 764 q 992 944 1015 851 l 990 946 q 1083 958 1038 958 q 1174 944 1129 957 q 1185 856 1185 901 q 1174 763 1186 810 l 1172 763 q 992 764 1081 788 m 771 521 q 842 556 808 535 q 903 606 875 578 q 1083 604 993 629 q 928 513 1017 538 q 851 526 890 524 q 771 521 811 528 m 1082 1103 q 1240 1013 1171 1079 q 1297 938 1274 978 q 1331 854 1319 897 q 1258 910 1299 886 q 1174 944 1218 933 q 1082 1103 1147 1038 m 1332 671 q 1298 588 1321 628 q 1240 513 1275 547 l 1240 514 q 1083 604 1172 581 q 1138 676 1115 636 q 1174 761 1161 715 l 1174 763 q 1260 726 1221 750 q 1332 671 1300 703 m 1083 421 q 993 409 1039 410 q 903 419 947 408 q 769 506 849 475 q 928 513 850 492 q 1012 477 972 500 q 1083 421 1051 454 m 1331 854 q 1422 696 1397 788 q 1434 603 1435 649 q 1422 513 1433 557 q 1332 671 1399 604 q 1331 854 1356 764 m 1332 354 q 1260 299 1300 322 q 1174 263 1221 275 l 1174 264 q 1083 421 1149 356 q 1240 513 1172 444 q 1298 439 1275 479 q 1332 354 1321 399 m 992 263 q 835 351 900 286 q 806 424 824 389 q 763 492 789 460 q 903 419 826 438 q 958 347 935 388 q 992 263 981 307 m 1422 513 q 1434 424 1433 469 q 1422 331 1435 378 q 1331 172 1397 236 q 1332 354 1356 263 q 1388 428 1364 388 q 1422 513 1411 468 m 1174 81 q 1083 69 1129 69 q 990 81 1038 68 l 992 82 q 992 263 1015 175 q 1081 251 1035 251 q 1172 263 1126 250 l 1174 263 q 1185 171 1186 217 q 1174 81 1185 125 m 832 171 q 740 326 765 238 q 749 483 764 403 q 785 412 763 444 q 835 351 807 379 q 845 261 846 307 q 832 171 844 215 m 1331 172 q 1240 14 1307 83 q 1082 -76 1171 -53 q 1174 81 1149 -10 q 1331 172 1264 106 m 899 -78 q 815 -44 856 -67 q 740 14 775 -21 l 742 14 q 832 171 808 82 q 903 116 864 139 q 990 81 943 93 q 954 -6 978 33 q 899 -78 931 -46 m 649 171 q 637 261 638 215 q 647 351 636 307 q 733 483 704 406 q 740 326 718 404 q 705 242 728 282 q 649 171 682 203 m 1082 -76 q 1010 -132 1050 -108 q 924 -168 971 -156 q 740 -168 829 -193 q 899 -78 832 -144 q 1082 -76 992 -101 m 582 -78 q 527 -6 550 -46 q 490 81 504 33 l 492 81 q 578 116 539 93 q 649 171 617 139 q 683 88 661 128 q 740 14 706 49 q 667 -44 707 -21 q 582 -78 626 -67 m 490 263 q 579 419 514 354 q 719 492 656 439 q 647 351 667 428 q 490 263 582 286 m 740 -168 q 558 -168 654 -193 q 472 -132 511 -156 q 400 -76 432 -108 q 582 -78 490 -101 q 656 -133 615 -110 q 740 -168 696 -157 m 308 81 q 297 171 297 125 q 308 263 296 217 l 310 263 q 401 251 356 250 q 490 263 447 251 q 478 173 479 218 q 490 82 478 128 l 490 81 q 399 69 444 68 q 308 81 353 69 m 400 -76 q 242 14 311 -53 q 150 172 174 82 q 308 81 219 106 q 400 -76 333 -10 m 150 354 q 184 439 161 399 q 240 513 207 479 l 242 513 q 315 456 275 478 q 399 421 356 433 q 344 349 367 389 q 308 264 321 310 l 308 263 q 222 299 261 275 q 150 354 182 322 m 554 513 q 700 503 626 493 q 554 513 626 493 m 150 172 q 95 244 118 204 q 60 331 72 283 q 60 513 35 426 q 94 428 71 468 q 150 354 118 388 q 150 172 126 263 m 579 606 q 630 563 603 582 q 689 531 657 544 q 630 563 657 544 q 579 606 603 582 m 60 513 q 60 696 35 601 q 95 782 72 742 q 150 854 118 822 q 150 671 126 763 q 60 513 83 604 z "},"B":{"ha":1483,"x_min":47,"x_max":1436,"o":"m 911 1147 q 1001 1147 956 1154 q 1089 1115 1047 1139 q 1160 1056 1131 1092 q 1206 978 1190 1019 q 1106 994 1157 994 q 1006 971 1054 993 q 975 1069 1000 1024 q 911 1147 950 1115 m 850 700 q 855 668 851 685 q 864 636 858 651 q 844 645 853 640 q 824 656 835 650 q 804 669 813 663 q 786 682 796 675 q 819 689 803 685 q 850 700 835 693 m 726 1018 q 742 1042 732 1031 q 757 1018 751 1031 q 792 869 797 947 q 742 729 786 792 q 692 869 697 792 q 726 1018 686 947 m 850 700 q 876 847 842 776 q 981 958 910 918 l 1006 971 q 1007 957 1007 964 q 1007 943 1007 950 q 963 797 1007 861 q 850 700 919 732 m 1199 778 l 1186 753 q 1075 648 1146 682 q 928 622 1004 614 q 1024 735 960 692 q 1171 779 1089 779 q 1185 779 1178 779 q 1199 778 1192 779 m 1206 978 q 1283 933 1247 963 q 1343 861 1319 903 q 1374 774 1367 819 q 1375 683 1382 728 q 1297 747 1343 722 q 1199 778 1251 772 q 1222 878 1221 826 q 1206 978 1222 929 m 910 558 q 897 576 903 568 q 883 596 890 585 q 873 616 878 607 q 864 636 868 625 q 896 627 879 631 q 928 622 913 624 q 917 591 921 607 q 910 558 913 575 m 1269 514 q 1246 499 1258 504 q 1097 464 1175 458 q 957 514 1019 469 q 1097 564 1019 558 q 1246 529 1175 569 q 1269 514 1258 524 m 906 514 q 910 558 906 538 q 957 514 929 535 q 910 469 929 493 q 906 514 906 490 m 1269 514 q 1340 590 1313 546 q 1375 683 1367 633 q 1419 606 1403 649 q 1436 514 1436 563 q 1419 422 1436 465 q 1375 344 1403 379 q 1340 438 1367 394 q 1269 514 1313 482 m 1199 250 q 1185 249 1192 249 q 1171 249 1178 249 q 1024 292 1089 249 q 928 406 960 336 q 1075 380 1004 414 q 1186 275 1146 346 l 1199 250 m 1375 344 q 1374 254 1382 300 q 1343 167 1367 208 q 1283 95 1319 125 q 1206 50 1247 65 q 1222 150 1222 99 q 1199 250 1221 201 q 1297 281 1251 256 q 1375 344 1343 306 m 864 392 q 873 412 868 403 q 883 432 878 421 q 897 451 890 443 q 910 469 903 460 q 917 437 913 453 q 928 406 921 421 q 896 401 913 404 q 864 392 879 397 m 1006 57 l 981 69 q 876 181 910 110 q 850 328 842 251 q 963 231 919 296 q 1007 85 1007 167 q 1007 71 1007 78 q 1006 57 1007 64 m 1206 50 q 1160 -28 1190 8 q 1089 -87 1131 -64 q 1001 -119 1047 -111 q 911 -119 956 -126 q 975 -42 950 -87 q 1006 57 1000 4 q 1106 34 1054 35 q 1206 50 1157 33 m 786 346 q 804 359 796 353 q 824 372 813 365 q 844 383 835 378 q 864 392 853 388 q 855 360 858 376 q 850 328 851 343 q 819 339 835 335 q 786 346 803 343 m 742 -14 q 726 10 732 -3 q 692 158 686 81 q 742 299 697 236 q 792 158 786 236 q 757 10 797 81 q 742 -14 751 -3 m 697 346 q 742 350 718 350 q 786 346 765 350 q 742 299 763 326 q 697 346 721 326 m 742 -14 q 817 -84 774 -57 q 911 -119 861 -111 q 833 -164 876 -147 q 742 -181 790 -181 q 650 -164 693 -181 q 572 -119 607 -147 q 666 -84 622 -111 q 742 -14 710 -57 m 476 85 q 520 231 476 167 q 633 328 564 296 q 608 181 642 251 q 503 69 574 110 l 478 57 q 476 71 476 64 q 476 85 476 78 m 572 -119 q 482 -119 528 -126 q 394 -87 436 -111 q 323 -28 353 -64 q 278 50 293 8 q 378 34 326 33 q 478 57 429 35 q 508 -42 483 4 q 572 -119 533 -87 m 619 392 q 640 383 631 388 q 660 372 649 378 q 679 359 671 365 q 697 346 688 353 q 665 339 681 343 q 633 328 649 335 q 628 360 632 343 q 619 392 625 376 m 285 250 l 297 275 q 408 380 338 346 q 556 406 479 414 q 459 292 524 336 q 313 249 394 249 q 299 249 306 249 q 285 250 292 249 m 278 50 q 200 95 236 65 q 140 167 164 125 q 109 254 117 208 q 108 344 101 300 q 186 281 140 306 q 285 250 232 256 q 262 150 263 201 q 278 50 261 99 m 574 469 q 587 451 581 460 q 600 432 593 443 q 610 412 606 421 q 619 392 615 403 q 588 401 604 397 q 556 406 571 404 q 567 437 563 421 q 574 469 571 453 m 214 514 q 238 529 225 524 q 386 564 308 569 q 526 514 464 558 q 386 464 464 469 q 238 499 308 458 q 214 514 225 504 m 47 514 q 64 606 47 563 q 108 683 81 649 q 144 590 117 633 q 214 514 171 546 q 144 438 171 482 q 108 344 117 394 q 64 422 81 379 q 47 514 47 465 m 574 558 q 578 514 578 538 q 574 469 578 490 q 526 514 554 493 q 574 558 554 535 m 285 778 q 299 779 292 779 q 313 779 306 779 q 459 735 394 779 q 556 622 524 692 q 408 648 479 614 q 297 753 338 682 l 285 778 m 108 683 q 109 774 101 728 q 140 861 117 819 q 200 933 164 903 q 278 978 236 963 q 262 878 261 929 q 285 778 263 826 q 186 747 232 772 q 108 683 140 722 m 619 636 q 610 616 615 625 q 600 596 606 607 q 587 576 593 585 q 574 558 581 568 q 567 591 571 575 q 556 622 563 607 q 588 627 571 624 q 619 636 604 631 m 478 971 l 503 958 q 608 847 574 918 q 633 700 642 776 q 520 797 564 732 q 476 943 476 861 q 476 957 476 950 q 478 971 476 964 m 278 978 q 323 1056 293 1019 q 394 1115 353 1092 q 482 1147 436 1139 q 572 1147 528 1154 q 508 1069 533 1115 q 478 971 483 1024 q 378 994 429 993 q 278 978 326 994 m 697 682 q 679 669 688 675 q 660 656 671 663 q 640 645 649 650 q 619 636 631 640 q 628 668 625 651 q 633 700 632 685 q 665 689 649 693 q 697 682 681 685 m 572 1147 q 650 1192 607 1175 q 742 1208 693 1208 q 833 1192 790 1208 q 911 1147 876 1175 q 817 1112 861 1139 q 742 1042 774 1085 q 666 1112 710 1085 q 572 1147 622 1139 m 742 729 q 786 682 763 701 q 742 678 765 678 q 697 682 718 678 q 742 729 721 701 z "},"C":{"ha":1444,"x_min":47,"x_max":1397,"o":"m 417 -154 l 75 188 l 417 188 l 417 -154 l 417 -154 m 661 433 l 661 469 l 697 433 l 661 433 l 661 433 m 74 801 l 415 1143 l 415 801 l 74 801 l 74 801 m 697 557 l 661 521 l 661 557 l 697 557 l 697 557 m 722 928 l 849 801 l 785 801 l 785 644 l 722 582 l 661 644 l 661 801 l 594 801 l 722 928 l 722 928 m 749 557 l 697 557 l 722 582 l 749 557 l 749 557 m 481 1169 l 964 1169 l 722 928 l 481 1169 l 481 1169 m 785 557 l 785 644 l 896 756 l 849 801 l 1029 801 l 1029 622 l 983 668 l 872 557 l 785 557 l 785 557 m 1029 368 l 1029 433 l 872 433 l 810 494 l 872 557 l 1029 557 l 1029 622 l 1156 494 l 1029 368 l 1029 368 m 785 469 l 785 521 l 810 494 l 785 469 l 785 469 m 1397 736 l 1397 253 l 1156 494 l 1397 736 l 1397 736 m 785 433 l 872 433 l 983 322 l 1029 368 l 1029 189 l 850 189 l 896 233 l 785 344 l 785 433 l 785 433 m 596 188 l 661 188 l 661 344 l 722 407 l 785 344 l 785 189 l 850 189 l 722 61 l 596 188 l 596 188 m 697 433 l 749 433 l 722 407 l 697 433 l 697 433 m 964 -181 l 481 -181 l 722 61 l 964 -181 l 964 -181 m 661 433 l 661 344 l 550 235 l 596 188 l 417 188 l 417 367 l 461 321 l 572 433 l 661 433 l 661 433 m 415 801 l 594 801 l 549 756 l 661 644 l 661 557 l 572 557 l 463 668 l 415 621 l 415 801 l 415 801 m 415 621 l 415 557 l 572 557 l 635 494 l 572 433 l 417 433 l 417 367 l 289 494 l 415 621 l 415 621 m 785 557 l 785 521 l 749 557 l 785 557 l 785 557 m 1029 1143 l 1371 801 l 1029 801 l 1029 1143 l 1029 1143 m 785 433 l 749 433 l 785 469 l 785 433 l 785 433 m 1371 189 l 1029 -153 l 1029 189 l 1371 189 l 1371 189 m 47 253 l 47 736 l 289 494 l 47 253 l 47 253 m 661 521 l 661 469 l 635 494 l 661 521 l 661 521 z "},"D":{"ha":1444,"x_min":47,"x_max":1397,"o":"m 47 215 l 47 253 l 289 494 l 417 367 l 417 188 l 75 188 l 47 215 l 47 215 m 661 469 l 661 433 l 572 433 l 635 494 l 661 469 l 661 469 m 47 736 l 47 775 l 74 801 l 415 801 l 415 621 l 289 494 l 47 736 l 47 736 m 572 557 l 661 557 l 661 521 l 635 494 l 572 557 l 572 557 m 725 826 l 785 801 l 724 657 l 665 803 l 725 826 l 725 826 m 608 610 l 464 672 l 489 731 l 550 756 l 608 610 l 608 610 m 607 381 l 546 236 l 486 261 l 461 322 l 607 381 l 607 381 m 390 497 l 417 557 l 561 496 l 415 438 l 390 497 l 390 497 m 836 379 l 981 318 l 956 258 l 894 233 l 836 379 l 836 379 m 721 163 l 660 189 l 721 333 l 781 188 l 721 163 l 721 163 m 1054 493 l 1029 432 l 885 493 l 1031 553 l 1054 493 l 1054 493 m 838 608 l 900 753 l 958 728 l 983 667 l 838 608 l 838 608 m 1003 -181 l 964 -181 l 722 61 l 850 189 l 1029 189 l 1029 -153 l 1003 -181 l 1003 -181 m 749 433 l 785 433 l 785 344 l 722 407 l 749 433 l 749 433 m 481 -181 l 443 -181 l 417 -154 l 417 188 l 596 188 l 722 61 l 481 -181 l 481 -181 m 661 344 l 661 433 l 697 433 l 722 407 l 661 344 l 661 344 m 1397 775 l 1397 736 l 1156 494 l 1029 622 l 1029 801 l 1371 801 l 1397 775 l 1397 775 m 785 521 l 785 557 l 872 557 l 810 494 l 785 521 l 785 521 m 1397 253 l 1397 215 l 1371 189 l 1029 189 l 1029 368 l 1156 494 l 1397 253 l 1397 253 m 872 433 l 785 433 l 785 469 l 810 494 l 872 433 l 872 433 m 964 1169 l 1003 1169 l 1029 1143 l 1029 801 l 849 801 l 722 928 l 964 1169 l 964 1169 m 785 644 l 785 557 l 749 557 l 722 582 l 785 644 l 785 644 m 443 1169 l 481 1169 l 722 928 l 594 801 l 415 801 l 415 1143 l 443 1169 l 443 1169 m 722 582 l 697 557 l 661 557 l 661 644 l 722 582 l 722 582 z "},"E":{"ha":1486,"x_min":47,"x_max":1436,"o":"m 360 1096 l 406 1096 l 360 1017 l 360 1096 m 497 1096 l 586 1096 l 542 1069 l 497 1096 m 897 1096 l 986 1096 l 942 1069 l 897 1096 m 1078 1096 l 1124 1096 l 1124 1017 l 1078 1096 m 1124 11 l 1124 -68 l 1078 -68 l 1124 11 m 986 -68 l 897 -68 l 942 -42 l 986 -68 m 586 -68 l 497 -68 l 542 -42 l 586 -68 m 406 -68 l 360 -68 l 360 11 l 406 -68 m 1124 965 l 1124 896 l 963 896 l 882 1035 l 942 1069 l 1124 965 m 360 63 l 360 132 l 521 132 l 603 -7 l 542 -42 l 360 63 m 1124 735 l 1124 617 l 1021 793 l 1124 735 m 360 293 l 360 411 l 463 235 l 360 293 m 638 1096 l 847 1096 l 882 1035 l 742 954 l 603 1035 l 638 1096 m 847 -68 l 638 -68 l 603 -7 l 742 74 l 882 -7 l 847 -68 m 963 896 l 1021 793 l 844 896 l 963 896 m 521 132 l 463 235 l 639 132 l 521 132 m 1124 132 l 1124 63 l 942 -42 l 882 -7 l 963 132 l 1124 132 m 360 896 l 360 965 l 542 1069 l 603 1035 l 521 896 l 360 896 m 742 74 l 639 132 l 844 132 l 742 74 m 742 954 l 844 896 l 639 896 l 742 954 m 963 132 l 844 132 l 1021 235 l 963 132 m 521 896 l 639 896 l 463 793 l 521 896 m 1124 411 l 1124 293 l 1021 235 l 1124 411 m 360 617 l 360 735 l 463 793 l 360 617 m 121 826 l 160 850 l 160 758 l 121 826 m 239 896 l 317 940 l 290 896 l 239 896 m 586 1096 l 663 1139 l 638 1096 l 586 1096 m 742 1185 l 782 1208 l 821 1139 l 742 1185 m 1324 269 l 1364 201 l 1324 178 l 1324 269 m 1244 132 l 1168 88 l 1193 132 l 1244 132 m 897 -68 l 821 -111 l 847 -68 l 897 -68 m 742 -157 l 703 -181 l 663 -111 l 742 -157 m 360 896 l 360 735 l 221 654 l 186 714 l 290 896 l 360 896 m 1264 374 l 1299 314 l 1193 132 l 1124 132 l 1124 293 l 1264 374 m 360 617 l 360 411 l 301 514 l 360 617 m 1124 617 l 1182 514 l 1124 411 l 1124 617 m 47 474 l 71 514 l 117 435 l 47 474 m 117 593 l 160 669 l 160 619 l 117 593 m 317 940 l 360 1017 l 360 965 l 317 940 m 1368 593 l 1436 554 l 1414 514 l 1368 593 m 1368 435 l 1324 358 l 1324 408 l 1368 435 m 1168 88 l 1124 11 l 1124 63 l 1168 88 m 406 1096 l 429 1135 l 497 1096 l 406 1096 m 1078 -68 l 1054 -107 l 986 -68 l 1078 -68 m 221 654 l 301 514 l 221 374 l 160 408 l 160 619 l 221 654 m 1264 654 l 1324 619 l 1324 408 l 1264 374 l 1182 514 l 1264 654 m 160 132 l 160 178 l 239 132 l 160 132 m 160 269 l 160 358 l 186 314 l 160 269 m 160 669 l 160 758 l 186 714 l 160 669 m 160 850 l 160 896 l 239 896 l 160 850 m 1244 896 l 1324 896 l 1324 850 l 1244 896 m 1324 758 l 1324 669 l 1299 714 l 1324 758 m 1324 358 l 1324 269 l 1299 314 l 1324 358 m 1324 178 l 1324 132 l 1244 132 l 1324 178 m 221 374 l 360 293 l 360 132 l 290 132 l 186 314 l 221 374 m 1124 735 l 1124 896 l 1193 896 l 1299 714 l 1264 654 l 1124 735 m 429 -107 l 406 -68 l 497 -68 l 429 -107 m 360 11 l 317 88 l 360 63 l 360 11 m 160 358 l 117 435 l 160 408 l 160 358 m 71 514 l 47 554 l 117 593 l 71 514 m 1124 965 l 1124 1017 l 1168 940 l 1124 965 m 1324 669 l 1368 593 l 1324 619 l 1324 669 m 1414 514 l 1436 474 l 1368 435 l 1414 514 m 986 1096 l 1054 1135 l 1078 1096 l 986 1096 m 782 -181 l 742 -157 l 821 -111 l 782 -181 m 663 -111 l 586 -68 l 638 -68 l 663 -111 m 317 88 l 239 132 l 290 132 l 317 88 m 160 178 l 121 201 l 160 269 l 160 178 m 1168 940 l 1244 896 l 1193 896 l 1168 940 m 1324 850 l 1364 826 l 1324 758 l 1324 850 m 663 1139 l 703 1208 l 742 1185 l 663 1139 m 821 1139 l 897 1096 l 847 1096 l 821 1139 z "},"F":{"ha":1483,"x_min":47,"x_max":1436,"o":"m 1054 826 q 921 947 992 890 q 831 955 876 953 q 742 957 786 957 q 652 955 697 957 q 563 947 607 953 q 429 826 492 890 q 308 693 364 764 q 302 603 304 649 q 299 514 300 558 q 302 424 300 469 q 308 335 304 379 q 429 201 364 264 q 563 81 492 136 q 652 74 607 76 q 742 71 697 72 q 831 74 786 72 q 921 81 876 76 q 1054 201 992 136 q 1175 335 1118 264 q 1183 424 1181 379 q 1185 514 1185 469 q 1183 603 1185 558 q 1175 693 1181 649 q 1054 826 1118 764 m 921 947 q 1031 933 976 942 q 1139 911 1085 925 q 1161 803 1153 857 q 1175 693 1169 749 q 1243 606 1211 650 q 1303 514 1275 563 q 1243 422 1275 465 q 1175 335 1211 378 q 1161 225 1169 279 q 1139 117 1153 171 q 1031 94 1086 103 q 921 81 976 86 q 835 13 879 44 q 742 -47 790 -19 q 563 81 649 7 q 453 94 507 86 q 344 117 399 103 q 322 225 331 171 q 308 335 314 279 q 181 514 235 421 q 240 607 208 563 q 308 693 272 651 q 322 803 314 749 q 344 911 331 858 q 453 933 399 925 q 563 947 507 942 q 649 1015 606 983 q 742 1075 693 1047 q 834 1015 790 1047 q 921 947 878 983 m 250 1006 q 340 1071 292 1043 q 439 1118 388 1099 q 381 1020 403 1074 q 344 911 360 967 q 236 874 290 896 q 138 817 182 853 q 185 917 157 869 q 250 1006 213 964 m 47 514 q 64 624 50 571 q 100 728 78 676 q 129 616 106 669 q 181 514 153 563 q 129 412 153 465 q 100 300 106 358 q 64 404 78 351 q 47 514 50 457 m 250 22 q 185 111 213 64 q 138 211 157 158 q 236 153 182 175 q 344 117 290 132 q 381 8 360 63 q 439 -90 403 -46 q 339 -43 386 -71 q 250 22 292 -15 m 742 -181 q 632 -164 685 -178 q 528 -128 579 -150 q 640 -99 586 -122 q 742 -47 693 -75 q 844 -99 790 -75 q 956 -128 897 -122 q 851 -164 904 -150 q 742 -181 799 -178 m 1233 22 q 1144 -43 1192 -15 q 1044 -90 1097 -71 q 1102 8 1081 -46 q 1139 117 1124 63 q 1248 153 1194 132 q 1346 211 1301 175 q 1299 112 1326 160 q 1233 22 1271 64 m 1436 514 q 1419 404 1433 457 q 1383 300 1406 351 q 1354 412 1378 358 q 1303 514 1331 465 q 1354 616 1331 563 q 1383 728 1378 669 q 1419 624 1406 676 q 1436 514 1433 571 m 1233 1006 q 1299 917 1271 964 q 1346 817 1326 869 q 1248 874 1301 853 q 1139 911 1194 896 q 1102 1020 1124 967 q 1044 1118 1081 1074 q 1144 1071 1097 1099 q 1233 1006 1192 1043 m 742 1208 q 851 1192 799 1206 q 956 1156 904 1178 q 844 1126 897 1150 q 742 1075 790 1103 q 640 1126 693 1103 q 528 1156 586 1150 q 632 1192 579 1178 q 742 1208 685 1206 z "},"G":{"ha":1483,"x_min":47,"x_max":1436,"o":"m 140 861 q 219 903 160 896 q 365 890 278 910 q 389 799 374 847 q 425 697 404 750 q 226 651 311 681 q 144 772 168 718 q 140 861 121 826 m 1257 376 q 1339 256 1315 310 q 1343 167 1363 201 q 1265 125 1324 132 q 1118 138 1206 118 q 1094 229 1110 181 q 1058 331 1079 278 q 1257 376 1172 347 m 472 586 q 490 551 481 568 q 508 514 499 533 q 490 477 499 494 q 472 442 481 460 q 422 478 446 460 q 376 514 399 496 q 422 550 399 532 q 472 586 446 568 m 1011 586 q 1061 550 1038 568 q 1107 514 1085 532 q 1061 478 1085 496 q 1011 442 1038 460 q 994 477 1003 460 q 975 514 985 494 q 994 551 985 533 q 1011 586 1003 568 m 536 458 q 550 435 543 447 q 564 411 557 424 q 578 387 571 399 q 592 364 585 375 q 565 381 578 372 q 539 397 551 389 q 538 428 538 413 q 536 458 538 443 m 892 664 q 919 647 906 656 q 944 631 932 639 q 946 600 946 615 q 947 569 946 585 q 933 592 940 581 q 919 617 926 604 q 906 641 913 629 q 892 664 899 653 m 544 711 q 541 672 542 692 q 539 631 540 651 q 506 608 522 619 q 472 586 489 597 q 447 642 458 614 q 425 697 436 669 q 483 705 453 701 q 544 711 513 708 m 1011 442 q 1036 386 1025 414 q 1058 331 1047 358 q 1001 323 1031 326 q 939 317 971 319 q 942 356 942 336 q 944 397 943 376 q 978 419 961 408 q 1011 442 994 431 m 536 569 l 536 514 l 536 458 q 522 487 529 474 q 508 514 515 500 q 522 541 515 528 q 536 569 529 554 m 947 569 q 961 541 954 554 q 975 514 968 528 q 961 487 968 500 q 947 458 954 474 l 947 514 l 947 569 m 558 831 q 614 808 586 819 q 669 783 642 797 q 647 750 658 767 q 625 717 636 733 q 584 715 604 715 q 544 711 564 714 q 551 773 547 743 q 558 831 554 803 m 939 317 q 933 255 936 285 q 925 197 929 225 q 869 219 897 208 q 814 244 842 231 q 836 278 825 261 q 858 311 847 294 q 899 313 879 313 q 939 317 919 314 m 592 664 q 578 641 585 653 q 564 617 571 629 q 550 592 557 604 q 536 569 543 581 q 538 600 538 585 q 539 631 538 615 q 565 647 551 639 q 592 664 578 656 m 947 458 q 946 428 946 443 q 944 397 946 413 q 919 381 932 389 q 892 364 906 372 q 906 387 899 375 q 919 411 913 399 q 933 435 926 424 q 947 458 940 447 m 686 719 q 663 706 675 713 q 639 692 651 699 q 615 678 626 685 q 592 664 603 671 q 608 691 600 678 q 625 717 617 704 q 656 718 640 718 q 686 719 671 718 m 892 364 q 875 337 883 350 q 858 311 867 324 q 828 310 843 310 q 797 308 813 310 q 820 322 808 315 q 844 336 832 329 q 869 350 857 343 q 892 364 881 357 m 742 747 q 769 733 756 740 q 797 719 782 726 l 742 719 l 686 719 q 715 733 701 726 q 742 747 728 740 m 797 308 q 769 294 782 301 q 742 281 756 288 q 715 294 728 288 q 686 308 701 301 l 742 308 l 797 308 m 701 364 q 667 383 685 374 q 649 394 658 389 q 632 404 640 399 q 622 422 626 413 q 611 439 617 431 q 592 474 601 457 l 592 514 l 592 554 q 611 589 601 571 q 622 606 617 597 q 632 624 626 615 q 649 634 640 629 q 667 644 658 639 q 701 664 685 653 l 742 664 l 782 664 q 817 644 799 653 q 834 634 825 639 q 851 624 843 629 q 862 606 857 615 q 872 589 867 597 q 892 554 881 571 l 892 514 l 892 474 q 872 439 881 457 q 862 422 867 431 q 851 404 857 413 q 834 394 843 399 q 817 383 825 389 q 782 364 799 374 l 742 364 l 701 364 m 394 1115 q 483 1111 429 1135 q 604 1029 538 1088 q 558 831 575 944 q 457 867 506 851 q 365 890 408 882 q 353 1037 346 978 q 394 1115 360 1096 m 1118 138 q 1131 -9 1138 50 q 1089 -87 1124 -68 q 1000 -83 1054 -107 q 879 -1 946 -60 q 925 197 908 83 q 1026 161 978 176 q 1118 138 1075 146 m 742 879 q 778 833 760 857 q 814 783 796 810 q 778 766 796 775 q 742 747 761 757 q 705 766 722 757 q 669 783 688 775 q 706 833 688 810 q 742 879 724 857 m 742 149 q 706 194 724 171 q 669 244 688 218 q 705 262 688 253 q 742 281 722 271 q 778 262 761 271 q 814 244 796 253 q 778 194 796 218 q 742 149 760 171 m 858 717 q 875 691 867 704 q 892 664 883 678 q 869 678 881 671 q 844 692 857 685 q 820 706 832 699 q 797 719 808 713 q 828 718 813 718 q 858 717 843 718 m 625 311 q 608 337 617 324 q 592 364 600 350 q 615 350 603 357 q 639 336 626 343 q 663 322 651 329 q 686 308 675 315 q 656 310 671 310 q 625 311 640 310 m 604 1029 q 667 1160 632 1113 q 742 1208 701 1208 q 817 1160 782 1208 q 879 1029 851 1113 q 813 961 847 999 q 742 879 778 924 q 671 961 706 924 q 604 1029 636 999 m 879 -1 q 817 -133 851 -85 q 742 -181 782 -181 q 667 -133 701 -181 q 604 -1 632 -85 q 671 67 636 29 q 742 149 706 104 q 813 67 778 104 q 879 -1 847 29 m 925 831 q 933 773 929 803 q 939 711 936 743 q 899 715 919 714 q 858 717 879 715 q 836 750 847 733 q 814 783 825 767 q 869 808 842 797 q 925 831 897 819 m 558 197 q 551 255 554 225 q 544 317 547 285 q 584 313 564 314 q 625 311 604 313 q 647 278 636 294 q 669 244 658 261 q 614 219 642 231 q 558 197 586 208 m 1089 1115 q 1131 1037 1124 1096 q 1118 890 1138 978 q 1026 867 1075 882 q 925 831 978 851 q 879 1029 908 944 q 1000 1111 946 1088 q 1089 1115 1054 1135 m 604 -1 q 483 -83 538 -60 q 394 -87 429 -107 q 353 -9 360 -68 q 365 138 346 50 q 457 161 408 146 q 558 197 506 176 q 604 -1 575 83 m 1058 697 q 1036 642 1047 669 q 1011 586 1025 614 q 978 608 994 597 q 944 631 961 619 q 942 672 943 651 q 939 711 942 692 q 1001 705 971 708 q 1058 697 1031 701 m 425 331 q 447 386 436 358 q 472 442 458 414 q 506 419 489 431 q 539 397 522 408 q 541 356 540 376 q 544 317 542 336 q 483 323 513 319 q 425 331 453 326 m 1343 861 q 1339 772 1363 826 q 1257 651 1315 718 q 1058 697 1172 681 q 1094 799 1079 750 q 1118 890 1110 847 q 1265 903 1206 910 q 1343 861 1324 896 m 365 138 q 219 125 278 118 q 140 167 160 132 q 144 256 121 201 q 226 376 168 310 q 425 331 311 347 q 389 229 404 278 q 365 138 374 181 m 1257 651 q 1388 589 1340 624 q 1436 514 1436 554 q 1388 439 1436 474 q 1257 376 1340 404 q 1189 443 1226 408 q 1107 514 1151 478 q 1189 585 1151 550 q 1257 651 1226 619 m 47 514 q 95 589 47 554 q 226 651 143 624 q 294 585 257 619 q 376 514 332 550 q 294 443 332 478 q 226 376 257 408 q 95 439 143 404 q 47 514 47 474 z "},"H":{"ha":1483,"x_min":47,"x_max":1436,"o":"m 485 903 q 494 915 489 910 q 504 926 499 919 q 519 929 511 928 q 533 931 526 931 q 633 917 586 938 q 600 817 601 871 q 625 715 599 764 q 710 632 656 664 q 690 604 701 618 q 672 601 681 601 q 654 600 664 601 q 647 660 654 631 q 625 715 640 689 q 550 788 597 763 q 447 808 503 814 q 485 903 454 861 m 742 990 q 769 979 754 986 q 850 917 819 957 q 772 847 800 893 q 742 746 743 801 q 750 688 742 717 q 774 632 758 658 q 758 624 767 628 q 742 618 750 621 q 710 632 725 624 q 733 688 725 658 q 742 746 742 717 q 713 847 740 801 q 633 917 685 893 q 714 979 664 957 q 742 990 729 986 m 860 719 q 859 717 860 718 q 858 715 858 717 q 857 713 857 714 q 856 711 857 713 q 857 713 857 713 q 858 715 857 714 q 859 717 858 717 q 860 719 860 718 m 482 964 q 418 962 450 961 q 356 969 386 963 q 310 1000 317 981 q 316 1041 304 1019 q 351 1083 328 1063 q 394 1115 374 1103 q 444 1136 415 1126 q 498 1146 474 1146 q 536 1131 522 1146 q 540 1076 550 1115 q 517 1018 533 1046 q 482 964 500 990 m 742 1208 q 796 1201 765 1207 q 847 1183 826 1196 q 872 1151 868 1171 q 849 1101 876 1131 q 798 1063 825 1079 q 742 1035 771 1047 q 685 1063 713 1047 q 635 1101 658 1079 q 611 1151 607 1131 q 636 1183 615 1171 q 688 1201 657 1196 q 742 1208 718 1207 m 979 926 q 999 903 990 915 q 1036 808 1029 861 q 935 790 982 814 q 860 719 889 765 q 883 820 885 768 q 850 917 882 872 q 950 931 897 938 q 965 929 957 931 q 979 926 972 928 m 829 601 q 811 601 819 601 q 793 604 803 601 q 774 632 782 618 q 856 711 825 661 q 829 601 829 660 m 1089 1115 q 1133 1083 1110 1103 q 1167 1041 1156 1063 q 1173 1000 1179 1019 q 1128 969 1167 981 q 1065 962 1097 963 q 1001 964 1033 961 q 967 1018 983 990 q 943 1076 950 1046 q 947 1131 933 1115 q 985 1146 961 1146 q 1039 1136 1010 1146 q 1089 1115 1068 1126 m 1154 751 q 1157 737 1156 744 q 1158 722 1158 729 q 1144 622 1165 669 q 1045 656 1099 654 q 943 631 992 657 q 861 546 892 600 q 832 565 846 553 q 829 583 829 575 q 829 601 829 592 q 943 631 890 601 q 1016 706 990 658 q 1036 808 1042 753 q 1131 771 1089 801 q 1154 751 1143 763 m 1343 861 q 1364 811 1354 840 q 1374 758 1374 782 q 1358 719 1374 733 q 1304 715 1343 706 q 1246 739 1274 722 q 1192 774 1218 756 q 1190 838 1189 806 q 1197 900 1190 869 q 1228 945 1208 939 q 1269 940 1247 951 q 1310 905 1290 928 q 1343 861 1331 882 m 1218 514 q 1207 486 1214 501 q 1144 406 1185 436 q 1075 485 1121 457 q 974 514 1029 513 q 915 506 944 514 q 860 482 886 497 q 852 497 856 489 q 846 514 849 506 q 852 531 849 522 q 861 546 856 539 q 915 522 886 531 q 974 514 944 514 q 1075 544 1029 515 q 1144 622 1121 572 q 1207 542 1185 592 q 1218 514 1214 526 m 1436 514 q 1429 460 1435 490 q 1411 408 1424 429 q 1378 383 1399 388 q 1329 407 1358 379 q 1291 458 1307 431 q 1263 514 1275 485 q 1291 570 1275 543 q 1329 621 1307 597 q 1378 644 1358 649 q 1411 619 1399 640 q 1429 568 1424 599 q 1436 514 1435 538 m 1154 276 q 1131 257 1143 265 q 1036 219 1089 226 q 1016 322 1042 275 q 943 397 990 369 q 829 426 890 426 q 829 444 829 436 q 832 463 829 453 q 860 482 846 474 q 943 397 892 428 q 1045 372 992 371 q 1144 406 1099 374 q 1158 306 1165 358 q 1157 291 1158 299 q 1154 276 1156 283 m 1343 167 q 1310 123 1331 146 q 1269 88 1290 100 q 1228 83 1247 76 q 1197 128 1208 89 q 1190 190 1190 158 q 1192 254 1189 222 q 1246 289 1218 272 q 1304 313 1274 306 q 1358 308 1343 322 q 1374 270 1374 294 q 1364 217 1374 246 q 1343 167 1354 188 m 979 101 q 965 99 972 100 q 950 97 957 97 q 850 111 897 90 q 883 210 882 157 q 858 313 885 264 q 774 396 828 364 q 793 424 782 410 q 811 426 803 426 q 829 426 819 426 q 858 313 829 364 q 933 240 886 265 q 1036 219 981 214 q 999 125 1029 167 q 990 113 994 118 q 979 101 985 108 m 1089 -87 q 1039 -108 1068 -99 q 985 -118 1010 -118 q 947 -103 961 -118 q 943 -49 933 -89 q 967 10 950 -18 q 1001 64 983 38 q 1065 66 1033 67 q 1128 58 1097 65 q 1173 28 1167 47 q 1167 -13 1179 8 q 1133 -55 1156 -35 q 1089 -87 1110 -75 m 742 38 q 714 49 729 42 q 633 111 664 71 q 713 181 685 135 q 742 282 740 226 q 733 340 742 311 q 710 396 725 369 q 742 410 725 403 q 758 403 750 407 q 774 396 767 400 q 750 340 758 369 q 742 282 742 311 q 772 181 743 226 q 850 111 800 135 q 769 49 819 71 q 742 38 754 42 m 742 -181 q 688 -174 718 -179 q 636 -156 657 -168 q 611 -123 615 -143 q 635 -74 607 -103 q 685 -35 658 -51 q 742 -7 713 -19 q 798 -35 771 -19 q 849 -74 825 -51 q 872 -123 876 -103 q 847 -156 868 -143 q 796 -174 826 -168 q 742 -181 765 -179 m 504 101 q 494 113 499 108 q 485 125 489 118 q 447 219 454 167 q 550 240 503 214 q 625 313 597 265 q 647 367 640 339 q 654 426 654 396 q 672 426 664 426 q 690 424 681 426 q 710 396 701 410 q 625 313 656 364 q 600 210 599 264 q 633 111 601 157 q 533 97 586 90 q 519 99 526 97 q 504 101 511 100 m 538 396 q 540 397 539 397 q 543 400 543 400 q 540 397 543 400 q 538 396 538 396 m 394 -87 q 351 -55 374 -75 q 316 -13 328 -35 q 310 28 304 8 q 356 58 317 47 q 418 66 386 65 q 482 64 450 67 q 517 10 500 38 q 540 -49 533 -18 q 536 -103 550 -89 q 498 -118 522 -118 q 444 -108 474 -118 q 394 -87 415 -99 m 329 276 q 326 291 328 283 q 325 306 325 299 q 339 406 318 358 q 436 372 383 374 q 538 396 489 371 q 467 320 492 367 q 447 219 442 274 q 353 257 394 226 q 341 266 346 261 q 329 276 336 271 m 624 482 q 651 463 638 474 q 654 444 654 453 q 654 426 654 436 q 543 400 594 426 q 624 482 593 429 m 140 167 q 119 217 129 188 q 110 270 110 246 q 124 308 110 294 q 179 313 139 322 q 238 289 210 306 q 292 254 265 272 q 294 190 294 222 q 286 128 293 158 q 256 83 275 89 q 215 88 236 76 q 173 123 193 100 q 140 167 153 146 m 265 514 q 276 542 269 526 q 339 622 299 592 q 408 544 363 572 q 510 514 454 515 q 568 522 539 514 q 624 546 597 531 q 638 514 631 531 q 631 497 635 506 q 624 482 628 489 q 568 506 597 497 q 510 514 539 514 q 408 485 454 513 q 339 406 363 457 q 276 486 299 436 q 265 514 269 501 m 47 514 q 54 568 49 538 q 72 619 60 599 q 105 644 85 640 q 154 621 125 649 q 192 570 176 597 q 221 514 208 543 q 192 458 208 485 q 154 407 176 431 q 105 383 125 379 q 72 408 85 388 q 54 460 60 429 q 47 514 49 490 m 329 751 q 341 762 336 757 q 353 771 346 767 q 447 808 394 801 q 467 707 442 754 q 538 632 492 660 q 436 656 489 657 q 339 622 383 654 q 325 722 318 669 q 326 737 325 729 q 329 751 328 744 m 543 629 q 597 608 569 614 q 654 600 625 601 q 654 583 654 592 q 651 565 654 575 q 624 546 638 554 q 588 592 608 571 q 543 629 568 614 m 140 861 q 173 905 153 882 q 215 940 193 928 q 256 945 236 951 q 286 900 275 939 q 294 838 293 869 q 292 774 294 806 q 238 739 265 756 q 179 715 210 722 q 124 719 139 706 q 110 758 110 733 q 119 811 110 782 q 140 861 129 840 z "},"I":{"ha":1483,"x_min":47,"x_max":1436,"o":"m 597 733 q 607 749 600 740 q 615 749 611 749 q 624 750 619 750 q 655 745 640 750 q 683 733 669 740 q 667 676 668 707 q 683 615 667 644 q 726 572 697 590 q 722 565 724 569 q 717 558 719 561 q 699 557 710 557 q 683 615 699 588 q 639 660 667 644 q 581 675 611 675 q 597 733 581 706 m 742 785 q 757 776 753 779 q 800 733 786 760 q 758 691 774 718 q 742 632 742 664 q 757 572 742 600 q 742 565 750 567 q 726 572 733 567 q 742 632 742 600 q 726 691 742 664 q 683 733 710 718 q 726 776 699 763 q 742 785 731 779 m 801 618 q 800 615 801 617 q 799 614 800 614 q 800 615 800 615 q 801 618 801 617 m 588 781 q 490 811 535 785 q 423 869 450 833 q 383 945 396 904 q 373 1030 371 986 q 394 1115 375 1074 q 480 1092 440 1111 q 549 1041 519 1072 q 594 968 578 1010 q 611 881 611 926 q 588 781 611 828 m 742 1208 q 803 1145 779 1182 q 838 1067 828 1108 q 841 981 847 1025 q 811 897 835 938 q 742 821 785 851 q 672 897 700 850 q 642 981 649 938 q 646 1067 636 1025 q 680 1145 656 1108 q 742 1208 704 1182 m 876 749 q 886 733 882 740 q 903 675 903 706 q 845 660 872 675 q 801 618 818 646 q 816 676 817 646 q 800 733 815 707 q 828 745 814 740 q 860 750 843 750 q 868 749 864 750 q 876 749 872 749 m 785 557 q 768 558 774 557 q 763 565 765 561 q 757 572 760 569 q 799 614 785 589 q 785 557 785 588 m 1089 1115 q 1110 1030 1108 1074 q 1100 945 1113 986 q 1060 869 1088 904 q 993 811 1033 833 q 896 781 949 785 q 874 881 874 825 q 890 968 874 926 q 936 1041 907 1010 q 1004 1092 965 1072 q 1089 1115 1043 1111 m 976 649 q 977 640 976 644 q 978 632 978 636 q 973 601 978 615 q 961 572 968 586 q 903 588 935 588 q 843 572 872 589 q 800 529 818 558 q 786 540 792 535 q 785 557 785 546 q 843 572 815 557 q 888 617 872 589 q 903 675 903 644 q 961 658 933 675 q 976 649 968 654 m 1343 861 q 1319 776 1339 815 q 1269 708 1300 738 q 1196 663 1238 679 q 1108 646 1154 646 q 1008 668 1053 646 q 1039 765 1013 721 q 1097 833 1061 806 q 1173 872 1132 860 q 1258 883 1214 885 q 1343 861 1301 881 m 1013 514 q 1004 499 1007 503 q 961 456 988 469 q 919 498 946 482 q 860 514 892 514 q 800 499 828 514 q 793 514 794 506 q 800 529 794 522 q 860 514 828 514 q 919 530 892 514 q 961 572 946 546 q 1004 529 990 557 q 1013 514 1007 525 m 1436 514 q 1373 452 1410 476 q 1294 418 1336 428 q 1209 415 1253 408 q 1125 444 1165 421 q 1049 514 1078 472 q 1125 583 1078 556 q 1209 613 1165 607 q 1294 610 1253 619 q 1373 576 1336 600 q 1436 514 1410 551 m 976 379 q 961 369 968 372 q 903 353 933 353 q 888 411 903 383 q 843 456 872 439 q 785 471 815 471 q 786 489 785 482 q 793 494 789 492 q 800 499 797 496 q 843 456 818 469 q 903 440 872 439 q 961 456 935 440 q 973 427 968 442 q 978 396 978 413 q 977 388 978 392 q 976 379 976 383 m 1343 167 q 1258 145 1301 147 q 1173 156 1214 143 q 1097 195 1132 168 q 1039 263 1061 222 q 1008 360 1013 307 q 1108 383 1056 383 q 1196 367 1154 383 q 1269 321 1238 350 q 1319 252 1300 292 q 1343 167 1339 213 m 876 279 q 868 278 872 279 q 860 278 864 278 q 828 283 843 278 q 800 294 814 288 q 816 352 815 321 q 800 413 817 383 q 757 456 786 438 q 762 463 760 458 q 767 469 764 467 q 785 471 774 471 q 800 413 785 440 q 844 368 817 383 q 903 353 872 353 q 886 294 903 321 q 876 279 882 288 m 1089 -87 q 1004 -64 1043 -83 q 936 -13 965 -44 q 890 60 907 18 q 874 147 874 101 q 896 247 874 203 q 993 217 949 243 q 1060 158 1033 193 q 1100 83 1088 124 q 1110 -2 1113 42 q 1089 -87 1108 -46 m 742 243 q 726 251 731 249 q 683 294 699 265 q 726 337 710 310 q 742 396 742 364 q 726 456 742 428 q 742 463 733 461 q 757 456 750 461 q 742 396 742 428 q 758 337 742 364 q 800 294 774 310 q 757 251 786 268 q 742 243 753 249 m 742 -181 q 680 -117 704 -154 q 646 -39 656 -81 q 642 47 636 3 q 672 131 649 90 q 742 207 700 178 q 811 131 783 178 q 841 47 835 90 q 838 -39 847 3 q 803 -117 828 -81 q 742 -181 779 -154 m 607 279 q 597 294 600 288 q 581 353 581 321 q 639 368 611 353 q 683 413 667 383 q 699 471 699 440 q 717 469 710 471 q 722 463 719 467 q 726 456 724 458 q 683 413 697 438 q 667 352 667 383 q 683 294 668 321 q 655 283 669 288 q 624 278 640 278 q 615 278 619 278 q 607 279 611 279 m 638 454 l 640 456 l 642 456 l 640 456 l 638 454 m 394 -87 q 373 -2 375 -46 q 383 83 371 42 q 423 158 396 124 q 490 217 450 193 q 588 247 535 243 q 611 147 611 200 q 594 60 611 101 q 549 -13 578 18 q 480 -64 519 -44 q 394 -87 440 -83 m 507 379 q 506 388 507 383 q 506 396 506 392 q 510 427 506 413 q 522 456 515 442 q 579 440 549 440 q 638 454 610 439 q 595 410 610 438 q 581 353 581 383 q 522 369 549 353 q 507 379 515 372 m 683 499 q 690 494 686 496 q 697 489 694 492 q 699 471 699 482 q 642 456 667 471 q 683 499 668 471 m 140 167 q 164 252 144 213 q 215 321 183 292 q 288 367 246 350 q 375 383 329 383 q 475 360 428 383 q 444 263 471 307 q 386 195 421 222 q 310 156 351 168 q 226 145 269 143 q 140 167 182 147 m 471 514 q 479 529 476 525 q 522 572 496 558 q 565 530 538 546 q 624 514 592 514 q 683 529 656 514 q 690 514 689 522 q 683 499 689 506 q 624 514 656 514 q 565 498 592 514 q 522 456 538 482 q 479 499 496 469 q 471 514 476 503 m 47 514 q 110 576 74 551 q 189 610 147 600 q 274 613 231 619 q 358 583 318 607 q 435 514 404 557 q 358 444 404 471 q 274 415 318 421 q 189 418 231 408 q 110 452 147 428 q 47 514 74 476 m 507 649 q 522 658 515 654 q 581 675 549 675 q 596 617 581 644 q 639 574 611 590 q 580 588 611 589 q 522 572 549 588 q 510 601 515 586 q 506 632 506 615 q 506 640 506 636 q 507 649 507 644 m 642 572 q 699 557 667 557 q 697 539 699 546 q 690 534 694 536 q 683 529 686 532 q 665 553 676 543 q 642 572 654 564 m 140 861 q 226 883 182 881 q 310 872 269 885 q 386 833 351 860 q 444 765 421 806 q 475 668 471 721 q 375 646 431 646 q 288 663 329 646 q 215 708 246 679 q 164 776 183 738 q 140 861 144 815 z "},"J":{"ha":1481,"x_min":47,"x_max":1433,"o":"m 467 864 l 354 1107 l 526 1028 l 467 864 l 467 864 m 686 954 l 740 929 l 794 954 l 744 819 l 740 817 l 736 819 l 686 954 l 686 954 m 954 1028 l 1126 1107 l 1014 864 l 954 1028 l 954 1028 m 435 508 l 436 513 l 438 510 l 435 508 l 435 508 m 744 819 l 743 815 l 740 817 l 744 819 l 744 819 m 528 729 l 526 732 l 576 868 l 625 765 l 528 729 l 528 729 m 604 879 l 585 889 l 593 911 l 604 879 l 604 879 m 481 417 l 374 376 l 435 508 l 438 510 l 481 417 l 481 417 m 385 349 l 354 335 l 364 357 l 385 349 l 385 349 m 489 397 l 489 397 l 485 406 l 489 397 l 489 397 m 485 406 l 481 417 l 481 417 l 485 406 l 485 406 m 739 513 l 489 397 l 485 406 l 481 417 l 739 513 l 739 513 m 1044 513 l 1047 508 l 1043 510 l 1044 513 l 1044 513 m 736 819 l 740 817 l 738 815 l 736 819 l 736 819 m 644 772 l 604 879 l 736 819 l 738 815 l 644 772 l 644 772 m 576 868 l 563 899 l 585 889 l 576 868 l 576 868 m 644 772 l 635 768 l 644 772 l 644 772 l 644 772 m 1126 335 l 1096 349 l 1117 357 l 1126 335 l 1126 335 m 1000 417 l 1043 510 l 1047 508 l 1107 376 l 1000 417 l 1000 417 m 996 407 l 1000 417 l 1000 417 l 996 407 l 996 407 m 743 815 l 744 819 l 876 879 l 836 772 l 743 815 l 743 815 m 904 868 l 896 889 l 918 899 l 904 868 l 904 868 m 481 608 l 485 619 l 481 608 l 481 608 l 481 608 m 739 513 l 481 608 l 485 619 l 489 628 l 739 513 l 739 513 m 954 732 l 953 729 l 856 765 l 904 868 l 954 732 l 954 732 m 876 879 l 888 911 l 896 889 l 876 879 l 876 879 m 856 764 l 846 768 l 856 765 l 856 764 l 856 764 m 740 513 l 740 513 l 740 513 l 740 513 m 625 764 l 625 765 l 635 768 l 625 764 l 625 764 m 740 514 l 625 764 l 635 768 l 644 772 l 740 514 l 740 514 m 996 618 l 1000 608 l 1000 608 l 996 618 l 996 618 m 836 772 l 836 772 l 846 768 l 836 772 l 836 772 m 740 514 l 836 772 l 846 768 l 856 764 l 740 514 l 740 514 m 993 397 l 992 397 l 996 407 l 993 397 l 993 397 m 742 513 l 992 628 l 996 618 l 1000 608 l 742 513 l 742 513 m 740 513 l 1000 417 l 996 407 l 992 397 l 740 513 l 740 513 m 794 954 l 888 1206 l 954 1028 l 794 954 l 794 954 m 1014 864 l 1035 807 l 1092 786 l 960 726 l 956 728 l 954 732 l 1014 864 l 1014 864 m 1256 726 l 1433 660 l 1182 567 l 1256 726 l 1256 726 m 960 726 l 957 725 l 956 728 l 960 726 l 960 726 m 521 726 l 525 728 l 524 725 l 521 726 l 521 726 m 374 649 l 342 660 l 364 668 l 374 649 l 374 649 m 385 676 l 521 726 l 524 725 l 489 628 l 385 676 l 385 676 m 489 628 l 489 628 l 485 619 l 489 628 l 489 628 m 953 729 l 954 732 l 956 728 l 953 729 l 953 729 m 956 297 l 954 293 l 953 296 l 956 297 l 956 297 m 888 114 l 876 146 l 896 136 l 888 114 l 888 114 m 856 261 l 953 296 l 954 293 l 904 157 l 856 261 l 856 261 m 847 257 l 856 261 l 856 261 l 847 257 l 847 257 m 740 513 l 740 513 l 740 513 l 740 513 l 740 513 m 1107 649 l 1117 668 l 1139 660 l 1107 649 l 1107 649 m 1096 676 l 993 629 l 957 725 l 960 726 l 1096 676 l 1096 676 m 1047 517 l 1043 515 l 1000 608 l 1107 649 l 1047 517 l 1047 517 m 1096 676 l 1126 690 l 1117 668 l 1096 676 l 1096 676 m 996 618 l 992 628 l 993 629 l 996 618 l 996 618 m 836 253 l 836 253 l 847 257 l 836 253 l 836 253 m 836 253 l 740 513 l 856 261 l 847 257 l 836 253 l 836 253 m 1092 786 l 1335 899 l 1256 726 l 1092 786 l 1092 786 m 1047 508 l 1044 513 l 1047 517 l 1182 567 l 1157 513 l 1182 458 l 1047 508 l 1047 508 m 1256 299 l 1335 126 l 1092 239 l 1256 299 l 1256 299 m 1044 513 l 1043 515 l 1047 517 l 1044 513 l 1044 513 m 740 208 l 736 207 l 738 210 l 740 208 l 740 208 m 563 126 l 576 157 l 585 136 l 563 126 l 563 126 m 644 253 l 738 210 l 736 207 l 604 146 l 644 253 l 644 253 m 633 257 l 644 253 l 644 253 l 633 257 l 633 257 m 993 397 l 1096 349 l 960 299 l 957 300 l 993 397 l 993 397 m 1117 357 l 1107 376 l 1139 365 l 1117 357 l 1117 357 m 625 261 l 625 261 l 633 257 l 625 261 l 625 261 m 625 261 l 739 510 l 644 253 l 633 257 l 625 261 l 625 261 m 1182 458 l 1433 365 l 1256 299 l 1182 458 l 1182 458 m 954 293 l 956 297 l 960 299 l 1092 239 l 1035 218 l 1014 161 l 954 293 l 954 293 m 954 -3 l 888 -181 l 794 71 l 954 -3 l 954 -3 m 525 297 l 521 299 l 524 300 l 525 297 l 525 297 m 956 297 l 957 300 l 960 299 l 956 297 l 956 297 m 342 365 l 374 376 l 364 357 l 342 365 l 342 365 m 385 349 l 489 397 l 524 300 l 521 299 l 385 349 l 385 349 m 743 210 l 836 253 l 876 146 l 744 206 l 743 210 l 743 210 m 896 136 l 904 157 l 918 126 l 896 136 l 896 136 m 1014 161 l 1126 -82 l 954 -3 l 1014 161 l 1014 161 m 794 71 l 740 96 l 686 71 l 736 207 l 740 208 l 744 206 l 794 71 l 794 71 m 526 -3 l 354 -82 l 467 161 l 526 -3 l 526 -3 m 438 515 l 436 513 l 433 517 l 438 515 l 438 515 m 740 208 l 743 210 l 744 206 l 740 208 l 740 208 m 354 690 l 385 676 l 364 668 l 354 690 l 354 690 m 481 608 l 438 515 l 433 517 l 374 649 l 481 608 l 481 608 m 526 293 l 528 296 l 625 261 l 576 157 l 526 293 l 526 293 m 585 136 l 604 146 l 593 114 l 585 136 l 585 136 m 739 513 l 740 513 l 740 513 l 740 513 l 739 513 l 739 513 m 686 71 l 593 -181 l 526 -3 l 686 71 l 686 71 m 467 161 l 446 218 l 389 239 l 521 299 l 525 297 l 526 293 l 467 161 l 467 161 m 225 299 l 47 365 l 299 458 l 225 299 l 225 299 m 625 765 l 625 764 l 740 513 l 740 513 l 625 765 l 625 765 m 525 728 l 526 732 l 528 729 l 525 728 l 525 728 m 525 297 l 528 296 l 526 293 l 525 297 l 525 297 m 740 514 l 740 513 l 625 764 l 740 514 l 740 514 m 389 239 l 146 126 l 225 299 l 389 239 l 389 239 m 299 458 l 324 513 l 299 567 l 433 517 l 436 513 l 435 508 l 299 458 l 299 458 m 225 726 l 146 899 l 389 786 l 225 726 l 225 726 m 739 510 l 740 513 l 740 513 l 836 253 l 740 513 l 739 510 l 739 510 m 526 1028 l 593 1206 l 686 954 l 526 1028 l 526 1028 m 299 567 l 47 660 l 225 726 l 299 567 l 299 567 m 389 786 l 446 807 l 467 864 l 526 732 l 525 728 l 521 726 l 389 786 l 389 786 m 740 513 l 992 628 l 742 513 l 740 513 l 740 513 l 740 513 l 740 514 l 740 513 l 740 513 l 740 514 l 740 513 l 740 513 z "},"K":{"ha":1483,"x_min":47,"x_max":1436,"o":"m 546 40 l 742 236 l 938 40 l 938 318 l 1215 318 l 1019 514 l 1215 710 l 938 710 l 938 988 l 742 792 l 546 988 l 546 710 l 268 710 l 464 514 l 268 318 l 546 318 l 546 40 l 546 40 m 986 -75 l 881 -181 l 742 -42 l 603 -181 l 497 -75 l 349 -75 l 349 121 l 153 121 l 153 269 l 47 375 l 186 514 l 47 653 l 153 758 l 153 907 l 349 907 l 349 1103 l 497 1103 l 603 1208 l 742 1069 l 881 1208 l 986 1103 l 1135 1103 l 1135 907 l 1331 907 l 1331 758 l 1436 653 l 1297 514 l 1436 375 l 1331 269 l 1331 121 l 1135 121 l 1135 -75 l 986 -75 l 986 -75 z "},"L":{"ha":1481,"x_min":47,"x_max":1433,"o":"m 1090 -86 q 744 -181 931 -178 q 745 -178 744 -179 q 746 -176 746 -178 q 1088 -82 931 -172 q 1089 -84 1089 -83 q 1090 -86 1089 -85 m 1085 -75 q 921 -142 1006 -119 q 746 -168 836 -165 l 746 -156 q 917 -131 833 -153 q 1078 -64 1001 -108 q 1081 -69 1081 -67 q 1085 -75 1082 -72 m 854 707 q 742 738 803 735 l 742 818 q 894 776 826 815 q 875 742 885 758 q 854 707 865 725 m 932 840 q 840 878 888 865 q 742 892 792 890 l 742 957 q 965 897 858 957 q 949 869 957 883 q 932 840 940 856 m 1038 1024 q 895 1082 969 1063 q 742 1103 821 1101 l 742 1135 q 903 1113 825 1133 q 1054 1051 982 1092 q 1046 1038 1050 1044 q 1038 1024 1042 1031 m 1065 1072 q 909 1137 990 1115 q 742 1160 828 1158 l 742 1178 q 1075 1089 918 1176 q 1065 1072 1069 1078 m 1081 1100 q 917 1167 1003 1144 q 742 1190 832 1189 l 742 1199 q 919 1174 833 1197 q 1085 1107 1006 1151 q 1081 1100 1082 1101 m 742 1063 q 1018 989 890 1063 l 993 947 q 742 1015 876 1013 l 742 1063 m 742 511 l 742 651 q 811 632 779 651 q 777 572 794 601 q 742 511 760 542 m 621 582 q 672 632 639 613 q 707 572 690 601 q 742 511 724 542 l 621 582 m 476 665 q 525 728 497 700 q 589 776 553 757 q 609 742 600 760 q 629 707 618 725 q 582 671 603 692 q 546 625 561 650 q 512 644 529 635 q 476 665 494 654 m 356 735 q 519 897 417 839 q 535 869 526 883 q 551 840 543 856 q 413 701 465 790 q 384 718 397 710 q 356 735 371 726 m 264 788 q 352 901 301 850 q 465 989 403 953 l 490 947 q 386 867 432 914 q 306 763 340 821 l 264 788 m 201 824 q 301 952 243 894 q 431 1051 360 1010 q 438 1038 433 1044 q 446 1024 442 1031 q 324 929 379 983 q 229 807 269 875 q 215 815 222 811 q 201 824 208 819 m 165 844 q 408 1089 256 997 q 413 1081 411 1085 q 418 1072 415 1076 q 284 969 343 1029 q 181 836 225 910 q 165 844 169 842 m 147 856 q 256 997 193 935 q 399 1107 319 1060 q 403 1100 401 1101 q 154 851 247 1007 q 147 856 149 854 m 742 511 q 681 476 711 493 q 621 442 651 460 q 607 475 611 457 q 601 511 603 493 l 742 511 m 515 511 q 524 453 517 482 q 546 399 531 425 q 512 378 529 388 q 476 358 494 369 q 435 511 438 429 l 515 511 m 361 511 q 375 413 363 461 q 413 321 388 365 q 384 305 397 313 q 356 289 371 297 q 312 397 326 340 q 296 511 297 453 l 361 511 m 239 511 q 256 381 239 444 q 306 260 274 318 q 285 247 294 253 q 264 236 275 242 q 190 511 193 364 l 239 511 m 150 511 q 229 215 153 353 q 215 208 222 211 q 201 200 208 204 q 118 511 121 343 l 150 511 m 93 511 q 116 344 94 425 q 181 188 138 263 q 165 178 169 182 q 75 511 78 333 l 93 511 m 63 511 q 87 336 64 421 q 154 172 110 251 q 147 168 149 169 q 54 511 57 329 l 63 511 m 51 433 q 47 511 47 471 q 51 433 47 472 m 742 511 l 742 372 q 672 390 703 372 q 707 451 690 421 q 742 511 724 481 m 629 315 q 742 286 681 286 l 742 206 q 589 246 661 206 q 609 281 600 264 q 629 315 618 299 m 551 182 q 742 132 639 132 l 742 65 q 627 81 683 67 q 519 125 571 96 q 535 153 526 140 q 551 182 543 167 m 490 75 q 742 8 607 11 l 742 -40 q 465 33 593 -37 l 490 75 m 446 -1 q 588 -60 514 -40 q 742 -81 663 -79 l 742 -112 q 581 -90 658 -111 q 431 -29 503 -69 q 446 -1 436 -15 m 418 -50 q 574 -113 493 -92 q 742 -136 656 -135 l 742 -154 q 408 -65 565 -154 q 413 -58 411 -61 q 418 -50 415 -54 m 403 -76 q 567 -144 482 -121 q 742 -168 651 -167 l 742 -175 q 564 -151 650 -175 q 399 -83 478 -128 q 403 -76 400 -82 m 742 511 q 802 477 772 494 q 863 442 832 460 q 811 390 842 408 q 777 451 794 421 q 742 511 760 481 m 854 317 q 938 399 906 346 q 972 378 956 388 q 1007 358 989 369 q 894 246 964 286 q 875 281 885 264 q 854 317 865 299 m 932 182 q 1010 243 975 208 q 1071 321 1046 278 q 1099 306 1086 314 q 1128 289 1113 297 q 965 125 1067 186 q 949 154 957 140 q 932 182 940 168 m 993 76 q 1178 260 1108 143 q 1199 248 1189 253 q 1219 236 1208 243 q 1018 33 1143 108 q 1006 55 1011 44 q 993 76 1000 65 m 1038 -1 q 1254 215 1174 81 q 1268 208 1261 211 q 1282 200 1275 204 q 1054 -29 1199 58 q 1046 -15 1050 -22 q 1038 -1 1042 -8 m 1081 -76 q 1329 172 1239 17 l 1338 168 q 1227 26 1290 89 q 1085 -83 1164 -37 q 1083 -80 1083 -81 q 1081 -76 1082 -79 m 1303 188 q 1318 178 1314 182 q 1213 41 1274 103 q 1075 -65 1151 -21 q 1065 -50 1071 -58 q 1303 188 1214 39 m 742 511 l 863 582 q 882 511 879 551 l 742 511 m 968 511 q 938 624 965 575 q 972 644 956 635 q 1007 664 989 654 q 1049 511 1046 596 l 968 511 m 1122 511 q 1108 609 1121 561 q 1071 701 1096 657 q 1099 718 1086 710 q 1128 735 1113 726 q 1188 511 1185 632 l 1122 511 m 1244 511 q 1227 641 1244 578 q 1178 763 1210 704 l 1219 788 q 1293 511 1290 660 l 1244 511 m 1333 511 q 1313 665 1332 590 q 1254 807 1293 739 q 1268 815 1261 811 q 1282 824 1275 819 q 1343 673 1322 751 q 1365 511 1364 594 l 1333 511 m 1390 511 q 1367 679 1389 597 q 1303 836 1346 761 q 1318 844 1314 842 q 1408 511 1406 689 l 1390 511 m 1421 511 q 1397 687 1419 601 q 1329 851 1374 772 l 1338 856 q 1405 690 1382 776 q 1429 511 1428 603 l 1421 511 m 1343 858 q 1359 831 1351 844 q 1374 801 1367 817 l 1374 800 l 1374 799 l 1374 800 l 1374 801 q 1359 831 1367 817 q 1343 858 1351 844 m 1342 857 q 1340 856 1340 857 q 1338 856 1339 856 q 1227 997 1290 935 q 1085 1107 1164 1060 q 1088 1111 1088 1110 q 1342 857 1247 1017 m 1329 851 q 1324 848 1326 849 q 1318 844 1321 847 q 1213 983 1274 921 q 1075 1089 1151 1044 q 1078 1094 1076 1092 q 1081 1100 1079 1097 q 1329 851 1239 1007 m 1303 836 l 1282 824 q 1054 1051 1197 967 q 1060 1062 1057 1057 q 1065 1072 1063 1067 q 1199 969 1140 1029 q 1303 836 1258 910 m 1254 807 q 1237 797 1246 801 q 1219 788 1228 793 q 1131 901 1182 850 q 1018 989 1081 953 q 1028 1007 1024 999 q 1038 1024 1032 1015 q 1254 807 1174 943 m 1178 763 q 1153 749 1165 756 q 1128 735 1140 742 q 965 897 1067 836 q 979 922 972 910 q 993 947 986 935 q 1178 763 1108 878 m 1071 701 q 1039 683 1056 692 q 1007 664 1022 674 q 894 776 965 735 q 913 809 904 793 q 932 840 922 825 q 1071 701 1019 789 m 938 624 l 863 582 q 811 632 843 614 q 833 669 822 651 q 854 707 843 688 q 938 624 906 675 m 1421 511 q 1397 336 1419 421 q 1329 172 1374 251 q 1324 175 1326 174 q 1318 178 1321 176 q 1408 511 1406 333 l 1421 511 m 1390 511 q 1303 188 1388 338 l 1282 200 q 1365 511 1363 343 l 1390 511 m 1333 511 q 1254 215 1331 353 q 1237 226 1246 221 q 1219 236 1228 231 q 1293 511 1290 364 l 1333 511 m 1244 511 q 1227 381 1244 444 q 1178 260 1210 318 l 1128 289 q 1172 397 1157 340 q 1188 511 1186 453 l 1244 511 m 1122 511 q 1108 413 1121 461 q 1071 321 1096 365 q 1039 340 1056 331 q 1007 358 1022 349 q 1049 511 1046 429 l 1122 511 m 968 511 q 960 453 967 482 q 938 399 953 425 q 900 420 918 410 q 863 442 882 431 q 876 475 872 457 q 882 511 881 493 l 968 511 m 1433 511 q 1409 333 1432 419 q 1342 165 1386 246 q 1340 167 1340 167 q 1338 168 1339 167 q 1405 333 1382 247 q 1429 511 1428 419 l 1433 511 m 742 -136 l 742 -112 q 1054 -29 907 -110 q 1060 -40 1057 -35 q 1065 -50 1063 -44 q 909 -113 990 -92 q 742 -136 828 -135 m 742 -81 l 742 -40 q 1018 33 890 -37 q 1028 17 1024 25 q 1038 -1 1032 8 q 895 -60 969 -40 q 742 -81 821 -79 m 742 8 l 742 65 q 965 125 863 68 q 979 100 972 113 q 993 76 986 88 q 872 26 935 43 q 742 8 808 10 m 742 132 l 742 206 q 894 246 825 206 q 913 215 904 231 q 932 182 922 199 q 840 145 888 158 q 742 132 792 132 m 742 286 l 742 372 q 811 390 781 372 q 833 353 822 371 q 854 317 843 335 q 742 286 803 286 m 143 165 q 145 167 144 167 q 147 168 146 167 q 399 -83 240 10 q 397 -85 397 -85 q 396 -87 397 -86 q 253 22 317 -42 q 143 165 189 86 m 403 -76 q 154 172 247 17 q 160 175 157 174 q 165 178 163 176 q 408 -65 256 25 q 406 -71 407 -68 q 403 -76 404 -74 m 418 -50 q 181 188 269 39 l 201 200 q 301 72 243 129 q 431 -29 360 14 l 418 -50 m 229 215 q 247 226 238 221 q 264 236 256 231 q 465 33 339 110 q 456 17 461 25 q 446 -1 451 8 q 229 215 310 79 m 306 260 l 356 289 q 519 125 417 186 l 490 75 q 306 260 375 144 m 413 321 q 444 340 428 331 q 476 358 461 349 q 589 246 518 288 q 570 215 579 231 q 551 182 561 199 q 413 321 465 235 m 546 399 q 583 420 565 410 q 621 442 601 431 q 672 390 640 410 q 651 353 661 371 q 629 315 640 335 q 546 399 576 346 m 143 857 q 145 856 144 857 q 147 856 146 856 q 54 511 57 694 l 50 511 q 74 690 51 603 q 143 857 97 778 m 154 851 q 160 848 157 849 q 165 844 163 847 q 75 511 78 692 l 63 511 q 87 687 64 601 q 154 851 110 772 m 181 836 l 201 824 q 140 673 161 751 q 118 511 119 594 l 93 511 q 116 679 94 597 q 181 836 138 761 m 229 807 q 264 788 247 797 q 190 511 193 660 l 150 511 q 171 665 151 590 q 229 807 190 739 m 306 763 q 331 749 318 756 q 356 735 343 742 q 296 511 299 633 l 239 511 q 256 641 239 578 q 306 763 274 704 m 413 701 q 476 665 443 683 q 435 511 438 594 l 361 511 q 413 701 364 615 m 546 625 q 583 603 565 614 q 621 582 601 593 q 601 511 604 551 l 515 511 q 546 625 518 575 m 742 1204 l 742 1199 q 399 1107 557 1196 q 397 1109 397 1108 q 396 1111 397 1110 q 742 1204 557 1201 m 742 1190 l 742 1178 q 408 1089 565 1175 q 406 1094 407 1092 q 403 1100 404 1097 q 742 1190 560 1188 m 742 1160 l 742 1135 q 431 1051 574 1132 l 418 1072 q 574 1137 493 1115 q 742 1160 656 1158 m 742 1103 l 742 1063 q 465 989 593 1063 q 456 1007 461 999 q 446 1024 451 1015 q 588 1082 514 1063 q 742 1103 663 1101 m 742 1015 l 742 957 q 519 897 624 957 l 490 947 q 742 1015 610 1014 m 742 892 l 742 818 q 589 776 660 815 q 570 809 579 793 q 551 840 561 825 q 644 878 596 865 q 742 892 692 890 m 742 738 l 742 651 q 672 632 704 651 q 651 669 661 651 q 629 707 640 688 q 742 738 681 735 z "},"M":{"ha":1482,"x_min":49,"x_max":1435,"o":"m 582 721 q 474 910 529 817 q 363 1096 419 1003 q 359 1103 360 1099 q 356 1110 358 1107 l 372 1101 q 481 979 425 1039 q 597 864 536 919 q 592 792 594 828 q 582 721 589 757 m 710 774 q 726 763 718 768 q 742 753 735 758 q 758 763 750 758 q 774 774 767 768 q 744 678 761 725 q 742 676 744 676 q 740 678 740 676 q 724 726 732 701 q 710 774 717 750 m 886 863 q 1004 979 949 918 q 1113 1103 1060 1040 q 1119 1106 1115 1106 q 1128 1110 1124 1107 q 1122 1096 1125 1104 q 1010 910 1065 1003 q 903 721 956 817 q 886 863 890 792 m 581 513 l 581 515 l 582 514 q 581 513 581 513 m 744 678 l 744 675 q 743 676 743 675 q 742 676 743 676 q 744 678 744 676 m 631 629 l 629 631 q 641 672 636 651 q 651 714 646 693 q 666 681 658 697 q 682 647 674 664 q 656 638 669 642 q 631 629 643 633 m 667 719 l 654 728 q 657 744 657 739 q 662 732 660 738 q 667 719 664 726 m 607 464 q 572 451 589 457 q 538 439 554 446 q 559 475 549 457 q 581 513 569 493 q 582 514 582 513 l 607 464 m 543 424 q 532 418 538 421 q 521 413 526 415 q 529 426 524 418 q 537 425 533 425 q 543 424 540 425 m 611 454 q 610 458 610 456 q 610 456 610 457 q 611 454 611 456 m 610 458 q 607 464 607 464 l 607 465 q 608 462 608 463 q 610 458 608 461 m 742 515 q 676 485 710 500 q 611 454 643 469 q 610 456 611 456 q 610 458 610 457 q 608 462 608 461 q 607 465 608 463 q 674 490 640 478 q 742 515 708 503 m 903 515 q 904 513 904 514 q 903 514 903 513 l 903 515 m 740 678 q 742 676 742 676 q 740 675 742 675 l 740 678 m 692 651 q 679 685 685 668 q 667 719 674 703 q 703 698 685 708 q 740 678 721 688 l 740 675 q 692 651 714 661 m 651 714 q 640 738 644 726 q 647 733 643 735 q 654 728 651 731 q 651 714 651 719 m 692 650 q 690 649 690 650 q 688 649 689 649 q 692 651 689 649 l 692 650 m 964 413 q 952 418 957 415 q 940 424 947 421 q 954 426 951 426 q 964 413 960 421 m 878 465 q 890 489 885 476 q 903 514 896 501 q 904 513 904 513 q 926 475 915 493 q 947 439 936 457 q 913 452 929 446 q 878 465 896 458 m 876 460 q 878 465 876 463 q 877 462 878 463 q 876 460 876 461 m 744 675 l 744 678 q 782 698 764 688 q 818 719 800 708 q 806 685 811 703 q 793 651 800 668 q 744 675 771 661 m 833 714 q 832 721 832 717 q 831 728 832 725 q 838 732 833 731 q 844 736 842 733 q 839 725 842 731 q 833 714 836 719 m 607 565 q 608 567 607 567 q 608 571 608 568 q 608 567 608 568 q 607 565 607 567 m 742 515 q 674 540 708 528 q 607 565 640 553 q 608 567 607 567 q 608 571 608 568 q 610 573 610 572 q 611 575 610 574 q 676 545 643 560 q 742 515 710 531 m 856 631 q 854 629 854 631 q 828 638 842 633 q 803 646 815 642 q 818 681 810 664 q 833 714 826 697 q 844 672 839 693 q 856 631 849 651 m 818 719 q 823 732 821 726 q 828 744 825 738 q 831 728 828 739 l 818 719 m 803 646 q 800 647 801 647 q 797 649 799 647 q 800 647 799 647 q 803 646 801 647 m 682 646 l 682 647 q 688 649 686 647 q 685 647 686 647 q 682 646 683 647 l 682 646 m 742 515 q 712 581 726 547 q 682 646 697 614 q 685 647 683 647 q 688 649 686 647 q 690 649 689 649 q 692 650 690 650 q 717 583 704 617 q 742 515 729 549 m 876 569 q 877 567 876 568 q 878 565 878 567 q 877 567 878 567 q 876 569 876 568 m 793 650 l 793 651 q 797 649 796 649 q 795 649 796 649 q 793 650 794 650 m 743 515 q 768 583 756 549 q 793 650 781 617 q 795 649 794 650 q 797 649 796 649 q 800 647 799 647 q 803 646 801 647 q 773 581 788 614 q 743 515 758 547 m 874 454 q 876 460 874 457 q 875 457 875 458 q 874 454 875 456 m 743 515 q 808 545 775 531 q 874 575 842 560 q 875 572 875 574 q 876 569 875 571 q 877 567 876 568 q 878 565 878 567 q 810 540 844 553 q 743 515 776 528 m 743 515 q 810 490 776 503 q 878 465 843 478 q 876 460 876 463 q 874 454 874 457 q 808 485 840 469 q 743 515 775 500 m 774 774 q 832 983 806 878 q 883 1194 858 1089 q 887 1201 886 1197 q 889 1208 888 1206 q 892 1200 892 1204 q 896 1192 893 1196 q 885 1027 889 1108 q 886 863 882 946 q 832 817 860 839 q 774 774 804 794 m 903 721 l 911 683 q 930 679 921 681 q 947 675 939 678 q 903 651 925 664 q 858 628 882 639 l 857 629 q 856 631 856 631 q 878 676 867 654 q 903 721 890 699 m 1089 658 q 1255 658 1172 654 q 1421 668 1338 661 q 1428 666 1424 667 q 1435 663 1432 665 l 1422 658 q 1211 605 1317 632 q 1001 547 1106 578 q 1043 604 1021 576 q 1089 658 1065 632 m 858 628 q 857 626 857 628 l 857 629 l 858 628 m 626 628 l 628 629 l 628 628 l 626 628 m 538 590 q 525 595 531 593 q 513 600 519 597 q 521 601 517 601 q 529 603 525 601 l 538 590 m 543 607 q 626 628 585 615 l 628 628 q 619 601 624 614 q 611 575 615 589 q 577 591 594 583 q 543 607 560 599 m 611 575 q 610 573 610 574 q 608 571 610 572 q 610 573 610 572 q 611 575 610 574 m 854 629 q 856 631 856 631 q 857 629 856 629 l 854 629 m 856 401 l 856 399 l 854 400 l 856 401 m 826 286 q 822 298 824 293 q 818 310 821 303 q 831 303 826 304 l 826 286 m 803 383 q 828 392 815 388 q 854 400 842 397 l 856 399 q 844 358 849 378 q 833 317 839 338 q 818 350 826 333 q 803 383 810 367 m 797 382 q 801 383 800 382 q 803 383 801 383 q 801 383 801 383 q 797 382 800 382 m 947 590 l 956 603 q 963 601 958 601 q 971 600 967 601 q 959 595 964 597 q 947 590 954 593 l 947 590 m 940 606 q 907 591 924 599 q 874 575 890 583 q 865 601 869 589 q 857 626 861 614 q 858 628 858 628 q 900 616 879 621 q 940 606 921 611 m 904 517 l 903 517 q 890 540 896 528 q 878 565 885 553 q 913 578 896 572 q 947 590 929 583 q 926 554 936 572 q 904 517 915 536 m 940 606 q 953 611 947 608 q 964 617 958 614 q 960 610 961 614 q 956 603 958 606 q 948 605 951 604 q 940 606 944 606 m 876 569 q 875 572 875 571 q 874 575 875 574 q 875 572 875 574 q 876 569 875 571 m 793 379 q 795 381 794 381 q 797 382 796 381 q 795 381 796 381 q 793 379 794 381 m 793 379 q 768 447 781 414 q 743 515 756 481 q 803 383 772 447 q 801 383 801 383 q 797 382 800 382 q 795 381 796 381 q 793 379 794 381 m 947 675 q 1137 783 1043 728 q 1324 896 1231 838 q 1330 899 1326 897 q 1336 901 1333 900 q 1333 894 1333 897 q 1329 886 1332 890 q 1206 777 1267 833 q 1089 658 1146 721 q 947 675 1018 663 m 904 513 q 903 515 904 514 q 904 517 904 517 q 952 533 928 525 q 1001 547 976 540 q 981 515 990 533 q 1001 483 990 497 q 952 498 976 490 q 904 513 928 506 m 1089 371 q 1206 253 1144 308 q 1331 143 1267 197 q 1333 136 1332 140 q 1336 129 1335 132 q 1331 132 1333 131 q 1325 135 1328 133 q 1137 247 1231 192 q 947 354 1043 301 q 1018 365 983 361 q 1089 371 1053 368 m 903 515 l 903 517 l 904 517 q 903 515 904 515 m 742 354 q 740 353 740 353 l 740 354 l 742 354 m 640 293 q 646 305 643 300 q 651 317 649 310 q 653 309 653 313 q 654 303 653 306 q 647 298 651 300 q 640 293 643 296 m 692 379 q 717 367 704 372 q 740 354 729 361 l 740 353 q 703 331 721 342 q 667 310 685 321 q 679 344 674 328 q 692 379 685 361 m 686 382 q 692 379 692 379 q 686 382 692 379 m 874 454 q 907 439 890 447 q 940 424 924 431 q 899 413 919 418 q 858 401 879 408 q 857 403 857 403 q 865 428 861 415 q 874 454 869 442 m 954 426 q 947 439 953 431 q 959 435 954 436 q 971 431 964 433 l 954 426 m 682 383 q 684 383 683 383 q 686 382 685 382 q 684 383 685 382 q 682 383 683 383 m 682 383 q 712 449 697 415 q 742 514 726 482 q 717 447 729 481 q 692 379 704 413 q 686 382 692 379 q 684 383 685 382 q 682 383 683 383 m 1001 483 q 1211 425 1106 451 q 1424 372 1317 399 q 1435 368 1426 371 q 1428 365 1432 367 q 1421 363 1424 364 q 1255 373 1338 369 q 1089 371 1172 376 q 1001 483 1040 425 m 856 399 l 856 401 l 858 401 q 903 378 882 390 q 947 354 925 367 q 928 351 938 353 q 910 347 919 350 q 906 328 907 338 q 903 310 906 319 q 878 353 890 332 q 856 399 867 375 m 886 168 q 884 2 881 85 q 894 -164 888 -81 q 892 -171 893 -167 q 889 -178 892 -175 l 885 -165 q 832 46 858 -60 q 774 257 806 151 q 831 214 804 236 q 886 168 858 192 m 628 401 l 626 401 l 628 403 l 628 401 m 856 401 q 857 403 857 403 q 858 401 858 403 l 856 401 m 513 431 l 538 439 l 529 426 l 513 431 m 543 424 q 577 439 560 431 q 611 454 594 447 q 619 428 615 442 q 628 403 624 415 l 626 401 q 585 413 606 408 q 543 424 564 418 m 744 354 q 768 367 756 361 q 793 379 781 372 q 806 344 800 361 q 818 310 811 328 q 782 331 800 321 q 744 353 764 342 l 744 354 m 831 303 q 832 309 832 306 q 833 317 832 313 q 839 305 836 310 q 844 293 842 300 q 837 298 840 296 q 831 303 833 300 m 903 310 q 1010 120 956 214 q 1122 -68 1065 26 q 1125 -74 1124 -71 q 1128 -79 1126 -76 q 1121 -76 1125 -76 q 1114 -72 1117 -75 q 1004 51 1060 -10 q 886 168 949 113 q 903 310 890 239 m 774 257 q 742 276 757 268 q 726 267 735 272 q 711 256 718 263 q 740 353 724 303 q 742 354 742 353 q 744 353 744 353 q 774 257 761 304 m 599 168 q 481 51 536 113 q 371 -72 425 -10 q 363 -76 367 -75 q 356 -79 360 -76 q 361 -67 358 -75 q 474 121 419 28 q 582 310 529 214 q 599 168 594 239 m 582 517 q 581 515 582 515 l 581 517 l 582 517 m 742 354 l 744 354 l 744 353 q 742 354 743 353 m 519 617 q 532 612 526 614 q 543 607 538 610 q 536 605 540 606 q 529 603 532 604 q 519 617 525 611 m 607 565 q 594 540 600 553 q 582 517 589 528 l 581 517 q 559 554 569 536 q 538 590 549 572 q 572 578 554 583 q 607 565 589 572 m 629 399 q 631 400 629 400 q 656 392 643 396 q 682 383 669 388 q 667 350 675 367 q 651 317 658 333 q 641 358 646 338 q 629 399 636 378 m 654 303 q 667 310 658 304 q 657 286 663 297 q 654 303 657 292 m 742 515 l 743 515 l 742 515 m 711 256 q 652 47 679 151 q 599 -165 625 -58 l 594 -178 q 592 -170 593 -174 q 589 -162 590 -167 q 599 3 596 -79 q 599 168 603 85 q 653 214 625 192 q 711 256 681 236 m 582 310 l 574 347 q 555 351 564 350 q 536 354 546 351 q 626 401 582 379 l 628 401 q 629 399 629 400 q 606 353 618 375 q 582 310 594 332 m 394 371 q 230 372 311 375 q 65 361 149 368 q 57 365 61 364 q 49 368 53 365 q 56 370 51 369 q 63 374 60 371 q 274 425 169 399 q 483 483 379 451 q 440 426 463 453 q 394 371 418 399 m 682 647 l 682 646 q 713 581 697 614 q 743 515 728 547 l 742 515 q 712 581 726 547 q 682 647 697 614 m 628 629 q 629 631 629 631 l 631 629 l 628 629 m 628 401 q 629 401 629 401 q 631 400 629 400 q 629 399 629 399 q 628 401 629 400 m 742 515 l 743 515 q 713 581 728 547 q 682 646 697 614 q 712 581 697 614 q 742 515 726 547 m 536 354 q 347 247 440 301 q 161 136 254 193 q 154 133 158 133 q 147 129 150 132 q 154 146 153 140 q 278 253 218 199 q 394 371 339 308 q 536 354 465 367 m 483 483 q 494 499 489 490 q 504 515 499 507 q 494 531 499 522 q 483 547 489 539 q 531 533 507 540 q 581 517 556 525 l 581 515 l 581 513 q 531 498 556 506 q 483 483 507 490 m 393 660 q 278 776 338 721 q 156 885 218 832 l 147 901 q 155 898 151 899 q 163 894 158 897 q 347 783 254 838 q 536 675 440 728 q 465 665 500 668 q 393 660 429 663 m 742 514 l 742 515 l 743 515 q 768 447 756 481 q 793 379 781 414 q 768 447 781 414 q 743 515 756 481 l 742 514 m 597 864 q 598 1028 601 947 q 588 1192 594 1108 q 591 1200 590 1196 q 594 1208 592 1204 q 597 1201 596 1206 q 600 1194 599 1197 q 653 983 626 1088 q 710 774 679 878 q 653 817 681 794 q 597 864 625 840 m 483 547 q 274 604 379 578 q 64 657 169 631 q 49 663 57 660 q 57 666 53 665 q 65 669 61 667 q 230 659 149 663 q 393 660 311 656 q 440 604 417 632 q 483 547 463 576 m 536 675 l 574 683 l 582 721 q 606 676 593 699 q 629 631 618 654 q 628 629 629 629 l 626 628 q 581 651 603 639 q 536 675 558 664 m 743 515 q 808 545 775 531 q 874 575 840 560 q 808 545 842 560 q 743 515 775 531 l 742 515 l 743 515 l 742 515 l 743 515 z "},"N":{"ha":1483,"x_min":47,"x_max":1436,"o":"m 589 667 l 621 724 l 686 724 l 650 701 l 633 701 l 625 688 l 589 667 l 589 667 m 533 458 l 500 514 l 533 569 l 533 528 l 525 514 l 533 500 l 533 458 l 533 458 m 686 304 l 621 304 l 589 361 l 625 340 l 633 326 l 650 326 l 686 304 l 686 304 m 894 361 l 863 304 l 797 304 l 835 326 l 850 326 l 858 340 l 894 361 l 894 361 m 951 569 l 983 514 l 951 458 l 951 500 l 960 514 l 951 528 l 951 569 l 951 569 m 863 724 l 894 667 l 858 688 l 850 701 l 835 701 l 797 724 l 863 724 l 863 724 m 572 560 l 572 597 l 579 608 l 585 619 l 618 638 l 601 608 l 589 601 l 589 589 l 572 560 l 572 560 m 618 390 l 585 408 l 579 419 l 572 431 l 572 468 l 589 439 l 589 426 l 601 419 l 618 390 l 618 390 m 788 344 l 754 326 l 742 326 l 729 326 l 696 344 l 731 344 l 742 338 l 753 344 l 788 344 l 788 344 m 911 468 l 911 431 l 906 419 l 899 408 l 865 390 l 883 419 l 894 426 l 894 439 l 911 468 l 911 468 m 865 638 l 899 619 l 906 608 l 911 597 l 911 560 l 894 589 l 894 601 l 883 608 l 865 638 l 865 638 m 754 701 l 788 683 l 753 683 l 742 690 l 731 683 l 696 683 l 729 701 l 742 701 l 754 701 l 754 701 m 636 671 l 647 676 l 658 683 l 696 683 l 667 667 l 654 667 l 647 654 l 618 638 l 636 671 l 636 671 m 554 501 l 554 514 l 554 526 l 572 560 l 572 525 l 565 514 l 572 503 l 572 468 l 554 501 l 554 501 m 658 344 l 647 351 l 636 357 l 618 390 l 647 374 l 654 361 l 667 361 l 696 344 l 658 344 l 658 344 m 847 357 l 836 351 l 825 344 l 788 344 l 817 361 l 831 361 l 836 374 l 865 390 l 847 357 l 847 357 m 931 526 l 931 514 l 931 501 l 911 468 l 911 503 l 918 514 l 911 525 l 911 560 l 931 526 l 931 526 m 825 683 l 836 676 l 847 671 l 865 638 l 836 654 l 831 667 l 817 667 l 788 683 l 825 683 l 825 683 m 554 564 l 554 606 l 561 618 l 568 631 l 604 651 l 585 619 l 572 611 l 572 597 l 554 564 l 554 564 m 604 376 l 568 397 l 561 410 l 554 422 l 554 464 l 572 431 l 572 417 l 585 408 l 604 376 l 604 376 m 792 326 l 756 304 l 742 304 l 728 304 l 692 326 l 729 326 l 742 318 l 754 326 l 792 326 l 792 326 m 931 464 l 931 422 l 924 410 l 915 397 l 879 376 l 899 408 l 911 417 l 911 431 l 931 464 l 931 464 m 879 651 l 915 631 l 924 618 l 931 606 l 931 564 l 911 597 l 911 611 l 899 619 l 879 651 l 879 651 m 756 724 l 792 701 l 754 701 l 742 710 l 729 701 l 692 701 l 728 724 l 742 724 l 756 724 l 756 724 m 625 688 l 638 694 l 650 701 l 692 701 l 658 683 l 644 683 l 636 671 l 604 651 l 625 688 l 625 688 m 533 500 l 533 514 l 533 528 l 554 564 l 554 526 l 546 514 l 554 501 l 554 464 l 533 500 l 533 500 m 650 326 l 638 333 l 625 340 l 604 376 l 636 357 l 644 344 l 658 344 l 692 326 l 650 326 l 650 326 m 858 340 l 846 333 l 835 326 l 792 326 l 825 344 l 840 344 l 847 357 l 879 376 l 858 340 l 858 340 m 951 528 l 951 514 l 951 500 l 931 464 l 931 501 l 938 514 l 931 526 l 931 564 l 951 528 l 951 528 m 835 701 l 846 694 l 858 688 l 879 651 l 847 671 l 840 683 l 825 683 l 792 701 l 835 701 l 835 701 m 533 569 l 533 635 l 589 667 l 568 631 l 554 622 l 554 606 l 533 569 l 533 569 m 589 361 l 533 393 l 533 458 l 554 422 l 554 406 l 568 397 l 589 361 l 589 361 m 797 304 l 742 272 l 686 304 l 728 304 l 742 297 l 756 304 l 797 304 l 797 304 m 951 458 l 951 393 l 894 361 l 915 397 l 931 406 l 931 422 l 951 458 l 951 458 m 894 667 l 951 635 l 951 569 l 931 606 l 931 622 l 915 631 l 894 667 l 894 667 m 742 756 l 797 724 l 756 724 l 742 731 l 728 724 l 686 724 l 742 756 l 742 756 m 524 732 l 569 811 l 663 811 l 611 782 l 588 782 l 575 761 l 524 732 l 524 732 m 444 435 l 399 514 l 444 593 l 444 535 l 433 514 l 444 493 l 444 435 l 444 435 m 663 217 l 569 217 l 524 296 l 575 267 l 588 246 l 611 246 l 663 217 l 663 217 m 960 296 l 914 217 l 822 217 l 874 246 l 896 246 l 908 267 l 960 296 l 960 296 m 1039 593 l 1085 514 l 1039 435 l 1039 493 l 1051 514 l 1039 535 l 1039 593 l 1039 593 m 914 811 l 960 732 l 908 761 l 896 782 l 874 782 l 822 811 l 914 811 l 914 811 m 501 578 l 501 632 l 510 647 l 519 664 l 565 690 l 542 649 l 525 639 l 525 621 l 501 578 l 501 578 m 565 338 l 519 364 l 510 381 l 501 396 l 501 450 l 525 407 l 525 389 l 542 379 l 565 338 l 565 338 m 807 274 l 760 246 l 742 246 l 724 246 l 678 274 l 725 274 l 742 264 l 758 274 l 807 274 l 807 274 m 983 450 l 983 396 l 974 381 l 965 364 l 918 338 l 942 379 l 958 389 l 958 408 l 983 450 l 983 450 m 918 690 l 965 664 l 974 647 l 983 632 l 983 578 l 958 619 l 958 639 l 942 649 l 918 690 l 918 690 m 760 782 l 807 754 l 758 754 l 742 764 l 725 754 l 678 754 l 724 782 l 742 782 l 760 782 l 760 782 m 592 736 l 608 746 l 624 754 l 678 754 l 636 731 l 617 731 l 607 714 l 565 690 l 592 736 l 592 736 m 474 496 l 474 514 l 474 532 l 501 578 l 501 531 l 492 514 l 501 497 l 501 450 l 474 496 l 474 496 m 624 274 l 608 282 l 592 292 l 565 338 l 607 314 l 617 297 l 636 297 l 678 274 l 624 274 l 624 274 m 892 292 l 876 282 l 860 274 l 807 274 l 849 297 l 867 297 l 876 314 l 918 338 l 892 292 l 892 292 m 1010 532 l 1010 514 l 1010 496 l 983 450 l 983 497 l 992 514 l 983 531 l 983 578 l 1010 532 l 1010 532 m 860 754 l 876 746 l 892 736 l 918 690 l 876 714 l 867 731 l 849 731 l 807 754 l 860 754 l 860 754 m 474 586 l 474 644 l 485 663 l 494 681 l 546 710 l 519 664 l 501 653 l 501 632 l 474 586 l 474 586 m 546 318 l 494 347 l 485 365 l 474 383 l 474 442 l 501 396 l 501 375 l 519 364 l 546 318 l 546 318 m 814 246 l 763 217 l 742 217 l 722 217 l 669 246 l 724 246 l 742 236 l 760 246 l 814 246 l 814 246 m 1010 442 l 1010 383 l 1000 365 l 989 347 l 938 318 l 965 364 l 983 375 l 983 396 l 1010 442 l 1010 442 m 938 710 l 989 681 l 1000 663 l 1010 646 l 1010 586 l 983 632 l 983 653 l 965 664 l 938 710 l 938 710 m 763 811 l 814 782 l 760 782 l 742 792 l 724 782 l 669 782 l 722 811 l 742 811 l 763 811 l 763 811 m 575 761 l 593 771 l 611 782 l 669 782 l 624 754 l 603 754 l 592 736 l 546 710 l 575 761 l 575 761 m 444 493 l 444 514 l 444 535 l 474 586 l 474 532 l 464 514 l 474 496 l 474 442 l 444 493 l 444 493 m 611 246 l 593 257 l 575 267 l 546 318 l 592 292 l 603 274 l 624 274 l 669 246 l 611 246 l 611 246 m 908 267 l 890 257 l 874 246 l 814 246 l 860 274 l 881 274 l 892 292 l 938 318 l 908 267 l 908 267 m 1039 535 l 1039 514 l 1039 493 l 1010 442 l 1010 496 l 1019 514 l 1010 532 l 1010 586 l 1039 535 l 1039 535 m 874 782 l 890 771 l 908 761 l 938 710 l 892 736 l 881 754 l 860 754 l 814 782 l 874 782 l 874 782 m 444 593 l 444 686 l 524 732 l 494 681 l 474 668 l 474 644 l 444 593 l 444 593 m 524 296 l 444 342 l 444 435 l 474 383 l 474 360 l 494 347 l 524 296 l 524 296 m 822 217 l 742 171 l 663 217 l 722 217 l 742 204 l 763 217 l 822 217 l 822 217 m 1039 435 l 1039 342 l 960 296 l 989 347 l 1010 360 l 1010 383 l 1039 435 l 1039 435 m 960 732 l 1039 686 l 1039 593 l 1010 646 l 1010 668 l 989 681 l 960 732 l 960 732 m 742 857 l 822 811 l 763 811 l 742 824 l 722 811 l 663 811 l 742 857 l 742 857 m 433 822 l 499 935 l 629 935 l 556 893 l 524 893 l 507 864 l 433 822 l 433 822 m 321 401 l 256 514 l 321 626 l 321 543 l 304 514 l 321 485 l 321 401 l 321 401 m 629 93 l 499 93 l 433 206 l 507 164 l 524 135 l 556 135 l 629 93 l 629 93 m 1050 206 l 985 93 l 854 93 l 928 135 l 961 135 l 978 164 l 1050 206 l 1050 206 m 1163 626 l 1228 514 l 1163 401 l 1163 485 l 1179 514 l 1163 543 l 1163 626 l 1163 626 m 985 935 l 1050 822 l 978 864 l 961 893 l 928 893 l 854 935 l 985 935 l 985 935 m 401 606 l 401 681 l 414 703 l 426 725 l 492 764 l 458 704 l 435 692 l 435 664 l 401 606 l 401 606 m 492 264 l 426 303 l 414 325 l 401 347 l 401 422 l 435 364 l 435 336 l 458 324 l 492 264 l 492 264 m 833 172 l 768 135 l 742 135 l 717 135 l 650 172 l 719 172 l 742 160 l 765 172 l 833 172 l 833 172 m 1083 422 l 1083 347 l 1069 325 l 1057 303 l 992 264 l 1025 324 l 1049 336 l 1049 364 l 1083 422 l 1083 422 m 992 764 l 1057 725 l 1069 703 l 1083 681 l 1083 606 l 1049 664 l 1049 692 l 1025 704 l 992 764 l 992 764 m 768 893 l 833 856 l 765 856 l 742 868 l 718 856 l 650 856 l 717 893 l 742 893 l 768 893 l 768 893 m 531 829 l 553 842 l 575 856 l 650 856 l 592 821 l 565 821 l 551 797 l 492 764 l 531 829 l 531 829 m 363 488 l 363 514 l 363 540 l 401 606 l 401 538 l 388 514 l 401 490 l 401 422 l 363 488 l 363 488 m 575 172 l 553 186 l 531 199 l 492 264 l 551 231 l 565 207 l 592 207 l 650 172 l 575 172 l 575 172 m 954 199 l 932 186 l 910 172 l 833 172 l 892 207 l 919 207 l 932 231 l 992 264 l 954 199 l 954 199 m 1121 540 l 1121 514 l 1121 488 l 1083 422 l 1083 490 l 1096 514 l 1083 538 l 1083 606 l 1121 540 l 1121 540 m 910 856 l 932 842 l 954 829 l 992 764 l 932 797 l 919 821 l 892 821 l 833 856 l 910 856 l 910 856 m 363 615 l 363 700 l 378 725 l 392 749 l 464 792 l 426 725 l 401 711 l 401 681 l 363 615 l 363 615 m 464 236 l 392 279 l 378 303 l 363 328 l 363 413 l 401 347 l 401 317 l 426 303 l 464 236 l 464 236 m 843 135 l 771 93 l 742 93 l 714 93 l 640 135 l 717 135 l 742 121 l 768 135 l 843 135 l 843 135 m 1121 413 l 1121 328 l 1107 303 l 1092 279 l 1019 236 l 1057 303 l 1083 317 l 1083 347 l 1121 413 l 1121 413 m 1019 792 l 1092 749 l 1107 725 l 1121 700 l 1121 615 l 1083 681 l 1083 711 l 1057 725 l 1019 792 l 1019 792 m 771 935 l 843 893 l 768 893 l 742 907 l 717 893 l 640 893 l 714 935 l 742 935 l 771 935 l 771 935 m 507 864 l 532 879 l 556 893 l 640 893 l 575 856 l 544 856 l 531 829 l 464 792 l 507 864 l 507 864 m 321 485 l 321 514 l 321 543 l 363 615 l 363 540 l 349 514 l 363 488 l 363 413 l 321 485 l 321 485 m 556 135 l 532 149 l 507 164 l 464 236 l 531 199 l 544 172 l 575 172 l 640 135 l 556 135 l 556 135 m 978 164 l 953 149 l 928 135 l 843 135 l 910 172 l 939 172 l 954 199 l 1019 236 l 978 164 l 978 164 m 1163 543 l 1163 514 l 1163 485 l 1121 413 l 1121 488 l 1136 514 l 1121 540 l 1121 615 l 1163 543 l 1163 543 m 928 893 l 953 879 l 978 864 l 1019 792 l 954 829 l 939 856 l 910 856 l 843 893 l 928 893 l 928 893 m 321 626 l 321 757 l 433 822 l 392 749 l 363 733 l 363 700 l 321 626 l 321 626 m 433 206 l 321 271 l 321 401 l 363 328 l 363 296 l 392 279 l 433 206 l 433 206 m 854 93 l 742 28 l 629 93 l 714 93 l 742 76 l 771 93 l 854 93 l 854 93 m 1163 401 l 1163 271 l 1050 206 l 1092 279 l 1121 296 l 1121 328 l 1163 401 l 1163 401 m 1050 822 l 1163 757 l 1163 626 l 1121 700 l 1121 733 l 1092 749 l 1050 822 l 1050 822 m 742 1000 l 854 935 l 771 935 l 742 951 l 714 935 l 629 935 l 742 1000 l 742 1000 m 301 954 l 394 1115 l 581 1115 l 476 1056 l 429 1056 l 406 1014 l 301 954 l 301 954 m 140 353 l 47 514 l 140 675 l 140 554 l 117 514 l 140 474 l 140 353 l 140 353 m 581 -87 l 394 -87 l 301 74 l 406 14 l 429 -28 l 476 -28 l 581 -87 l 581 -87 m 1182 74 l 1089 -87 l 903 -87 l 1007 -28 l 1054 -28 l 1078 14 l 1182 74 l 1182 74 m 1343 675 l 1436 514 l 1343 353 l 1343 474 l 1367 514 l 1343 554 l 1343 675 l 1343 675 m 1089 1115 l 1182 954 l 1078 1014 l 1054 1056 l 1007 1056 l 903 1115 l 1089 1115 l 1089 1115 m 254 644 l 254 753 l 274 785 l 292 817 l 385 871 l 336 786 l 303 767 l 303 729 l 254 644 l 254 644 m 385 157 l 292 211 l 274 243 l 254 275 l 254 383 l 303 299 l 303 261 l 336 242 l 385 157 l 385 157 m 872 26 l 779 -28 l 742 -28 l 706 -28 l 611 26 l 708 26 l 742 8 l 775 26 l 872 26 l 872 26 m 1229 383 l 1229 275 l 1211 243 l 1193 211 l 1099 157 l 1147 242 l 1181 261 l 1181 299 l 1229 383 l 1229 383 m 1099 871 l 1193 817 l 1211 785 l 1229 753 l 1229 644 l 1181 729 l 1181 767 l 1147 786 l 1099 871 l 1099 871 m 779 1056 l 872 1001 l 775 1001 l 742 1021 l 708 1001 l 611 1001 l 706 1056 l 742 1056 l 779 1056 l 779 1056 m 439 964 l 471 983 l 503 1001 l 611 1001 l 526 953 l 489 953 l 469 919 l 385 871 l 439 964 l 439 964 m 200 478 l 200 514 l 200 550 l 254 644 l 254 547 l 235 514 l 254 481 l 254 383 l 200 478 l 200 478 m 503 26 l 471 44 l 439 64 l 385 157 l 469 108 l 489 75 l 526 75 l 611 26 l 503 26 l 503 26 m 1044 64 l 1013 44 l 981 26 l 872 26 l 957 75 l 994 75 l 1014 108 l 1099 157 l 1044 64 l 1044 64 m 1283 550 l 1283 514 l 1283 478 l 1229 383 l 1229 481 l 1249 514 l 1229 547 l 1229 644 l 1283 550 l 1283 550 m 981 1001 l 1013 983 l 1044 964 l 1099 871 l 1014 919 l 994 953 l 957 953 l 872 1001 l 981 1001 l 981 1001 m 200 658 l 200 779 l 221 815 l 242 850 l 346 910 l 292 817 l 254 794 l 254 753 l 200 658 l 200 658 m 346 118 l 242 178 l 221 214 l 200 249 l 200 369 l 254 275 l 254 232 l 292 211 l 346 118 l 346 118 m 888 -28 l 783 -87 l 742 -87 l 701 -87 l 597 -28 l 706 -28 l 742 -49 l 779 -28 l 888 -28 l 888 -28 m 1283 369 l 1283 249 l 1263 214 l 1243 178 l 1139 118 l 1193 211 l 1229 232 l 1229 275 l 1283 369 l 1283 369 m 1138 910 l 1243 850 l 1263 815 l 1283 779 l 1283 658 l 1229 753 l 1229 794 l 1193 817 l 1138 910 l 1138 910 m 783 1115 l 888 1056 l 779 1056 l 742 1076 l 706 1056 l 597 1056 l 701 1115 l 742 1115 l 783 1115 l 783 1115 m 406 1014 l 442 1035 l 476 1056 l 597 1056 l 503 1001 l 461 1001 l 439 964 l 346 910 l 406 1014 l 406 1014 m 140 474 l 140 514 l 140 554 l 200 658 l 200 550 l 179 514 l 200 478 l 200 369 l 140 474 l 140 474 m 476 -28 l 442 -7 l 406 14 l 346 118 l 439 64 l 461 26 l 503 26 l 597 -28 l 476 -28 l 476 -28 m 1078 14 l 1043 -7 l 1007 -28 l 888 -28 l 981 26 l 1024 26 l 1044 64 l 1139 118 l 1078 14 l 1078 14 m 1343 554 l 1343 514 l 1343 474 l 1283 369 l 1283 478 l 1304 514 l 1283 550 l 1283 658 l 1343 554 l 1343 554 m 1007 1056 l 1043 1035 l 1078 1014 l 1138 910 l 1044 964 l 1024 1001 l 981 1001 l 888 1056 l 1007 1056 l 1007 1056 m 140 675 l 140 861 l 301 954 l 242 850 l 200 826 l 200 779 l 140 675 l 140 675 m 301 74 l 140 167 l 140 353 l 200 249 l 200 201 l 242 178 l 301 74 l 301 74 m 903 -87 l 742 -181 l 581 -87 l 701 -87 l 742 -111 l 783 -87 l 903 -87 l 903 -87 m 1343 353 l 1343 167 l 1182 74 l 1243 178 l 1283 201 l 1283 249 l 1343 353 l 1343 353 m 1182 954 l 1343 861 l 1343 675 l 1283 779 l 1283 826 l 1243 850 l 1182 954 l 1182 954 m 742 1208 l 903 1115 l 783 1115 l 742 1139 l 701 1115 l 581 1115 l 742 1208 l 742 1208 z "},"O":{"ha":1486,"x_min":49,"x_max":1438,"o":"m 760 579 q 749 600 746 583 q 768 611 753 614 q 781 592 783 607 q 760 579 776 576 m 792 563 q 792 585 779 572 q 814 585 801 597 q 819 573 818 579 q 814 563 819 567 q 792 563 801 550 m 808 532 q 821 551 806 546 q 840 540 835 556 q 839 528 842 533 q 829 521 836 522 q 808 532 814 517 m 819 476 q 808 496 806 481 q 828 507 814 511 q 838 500 835 506 q 840 488 842 494 q 819 476 835 472 m 792 443 q 792 465 779 453 q 814 465 803 476 q 814 443 826 453 q 792 443 801 431 m 749 428 q 761 449 746 443 q 781 436 776 451 q 769 417 785 422 q 757 418 763 415 q 749 428 751 421 m 717 417 q 706 436 701 422 q 713 447 707 443 q 725 447 718 450 q 736 428 740 442 q 717 417 731 413 m 672 443 q 672 465 660 453 q 683 470 676 471 q 694 465 689 469 q 694 442 706 453 q 672 443 682 432 m 646 488 q 657 508 643 504 q 678 496 672 511 q 665 476 681 482 q 646 488 651 472 m 657 519 q 646 540 642 525 q 665 551 650 554 q 676 532 681 546 q 657 519 672 517 m 671 563 q 672 585 660 572 q 694 585 683 596 q 694 563 704 572 q 671 563 682 550 m 706 592 q 717 611 701 606 q 729 610 724 614 q 738 600 735 607 q 735 588 739 593 q 725 581 732 582 q 706 592 711 576 m 821 650 q 809 665 813 656 q 811 685 806 675 q 828 697 818 694 q 847 694 838 700 q 857 658 868 681 q 842 647 851 649 q 821 650 832 644 m 810 765 q 785 783 794 771 q 779 813 776 796 q 799 835 785 828 q 829 838 814 842 q 853 820 844 833 q 860 792 863 807 q 840 769 856 775 q 810 765 825 763 m 926 699 q 914 726 915 710 q 925 754 913 742 q 953 764 936 765 q 981 751 969 763 q 993 724 992 740 q 983 696 994 708 q 955 686 971 685 q 926 699 939 688 m 994 582 q 998 612 992 597 q 1021 632 1004 626 q 1049 626 1036 635 q 1067 601 1063 617 q 1065 572 1071 586 q 1042 551 1058 557 q 1013 557 1026 547 q 994 582 1000 567 m 1021 396 q 997 416 1004 401 q 994 446 990 431 q 1012 471 999 461 q 1042 476 1025 481 q 1064 456 1057 471 q 1067 426 1071 442 q 1049 402 1063 411 q 1021 396 1036 393 m 925 274 q 914 301 913 285 q 926 329 915 318 q 955 342 939 340 q 983 332 971 343 q 993 303 994 319 q 981 276 992 288 q 953 264 969 265 q 925 274 938 263 m 781 215 q 786 244 776 231 q 811 263 796 257 q 841 259 826 265 q 861 236 856 253 q 855 208 864 221 q 831 190 846 194 q 801 193 815 186 q 781 215 786 200 m 656 189 q 631 207 640 194 q 625 236 622 219 q 645 259 631 253 q 675 263 660 265 q 700 244 690 257 q 706 214 710 231 q 685 192 700 199 q 656 189 671 186 m 506 276 q 493 303 494 288 q 503 332 492 319 q 531 342 514 343 q 558 329 547 340 q 571 301 569 318 q 561 274 572 285 q 533 264 549 263 q 506 276 517 265 m 419 426 q 422 456 415 442 q 444 476 428 471 q 473 471 460 481 q 492 446 486 461 q 488 416 494 431 q 465 397 482 401 q 437 402 450 393 q 419 426 424 411 m 443 551 q 422 570 428 556 q 418 600 415 585 q 436 625 424 615 q 465 631 449 635 q 488 611 481 626 q 490 581 494 596 q 473 556 486 565 q 443 551 460 547 m 503 696 q 493 724 492 707 q 506 751 494 740 q 533 764 517 763 q 561 754 549 765 q 571 726 572 742 q 558 697 569 710 q 531 685 547 686 q 503 696 514 683 m 625 792 q 631 821 622 808 q 656 838 640 833 q 685 835 671 842 q 706 813 700 829 q 700 784 710 797 q 675 765 690 771 q 645 769 660 763 q 625 792 631 775 m 933 844 q 903 877 914 856 q 904 919 892 899 q 941 940 918 939 q 983 931 964 940 q 1013 899 1001 919 q 1014 857 1025 879 q 977 834 1001 835 q 933 844 953 833 m 876 1011 q 851 1021 865 1014 q 824 1037 836 1028 q 805 1059 811 1046 q 804 1088 799 1072 q 822 1106 810 1100 q 848 1115 833 1113 q 877 1115 863 1117 q 903 1110 892 1113 q 928 1101 914 1107 q 953 1086 942 1094 q 971 1066 964 1078 q 976 1040 978 1054 q 962 1017 974 1025 q 935 1007 950 1010 q 903 1006 919 1004 q 876 1011 888 1008 m 1107 878 q 1089 899 1099 886 q 1074 926 1079 913 q 1069 954 1068 940 q 1082 979 1069 968 q 1108 987 1094 988 q 1134 981 1121 986 q 1159 967 1147 976 q 1179 950 1171 958 q 1197 930 1188 942 q 1210 905 1206 918 q 1216 878 1215 892 q 1208 853 1217 865 q 1183 840 1197 840 q 1156 844 1169 839 q 1128 860 1142 850 q 1107 878 1115 869 m 1240 647 q 1235 674 1238 658 q 1236 706 1233 690 q 1247 733 1239 721 q 1269 747 1254 744 q 1295 742 1283 749 q 1315 724 1307 735 q 1330 699 1324 713 q 1339 674 1336 685 q 1344 648 1342 663 q 1344 619 1346 633 q 1335 593 1342 606 q 1317 575 1329 581 q 1288 576 1301 569 q 1266 594 1275 582 q 1250 622 1257 607 q 1240 647 1243 636 m 1269 281 q 1247 295 1254 283 q 1236 322 1239 307 q 1235 353 1233 338 q 1240 381 1238 369 q 1250 406 1243 392 q 1266 433 1257 421 q 1288 452 1275 446 q 1315 453 1300 458 q 1335 434 1329 446 q 1344 408 1342 422 q 1344 380 1346 394 q 1339 354 1342 365 q 1330 329 1336 343 q 1315 304 1324 315 q 1295 286 1307 293 q 1269 281 1283 279 m 1082 49 q 1069 72 1069 58 q 1074 101 1068 86 q 1089 128 1079 115 q 1107 150 1099 142 q 1128 168 1115 158 q 1156 183 1142 178 q 1183 188 1169 189 q 1208 175 1197 188 q 1216 149 1217 163 q 1210 123 1215 136 q 1197 98 1206 110 q 1179 78 1188 86 q 1159 60 1171 69 q 1134 47 1147 51 q 1108 41 1121 42 q 1082 49 1094 40 m 804 -58 q 805 -31 799 -43 q 824 -9 811 -18 q 851 7 836 0 q 876 17 865 14 q 903 22 888 19 q 935 21 919 24 q 962 10 950 18 q 976 -12 974 3 q 971 -39 978 -28 q 953 -58 964 -50 q 928 -73 942 -67 q 903 -82 914 -79 q 877 -87 892 -85 q 849 -87 863 -89 q 822 -78 835 -85 q 804 -58 810 -72 m 583 -82 q 558 -73 572 -79 q 533 -58 544 -67 q 515 -39 522 -50 q 508 -12 507 -28 q 524 10 513 3 q 551 21 536 18 q 583 22 567 24 q 610 17 599 19 q 635 7 621 14 q 663 -9 650 0 q 681 -31 675 -18 q 682 -60 688 -44 q 663 -78 675 -72 q 638 -87 651 -85 q 609 -87 624 -89 q 583 -82 594 -85 m 307 78 q 290 98 299 86 q 276 123 281 110 q 270 149 271 136 q 278 175 269 163 q 302 188 288 188 q 331 183 317 189 q 358 168 344 178 q 379 150 371 158 q 397 128 388 142 q 413 101 407 115 q 417 72 418 86 q 404 49 417 58 q 378 41 392 40 q 352 47 365 42 q 327 60 339 51 q 307 78 315 69 m 147 354 q 142 380 144 365 q 142 409 140 394 q 151 435 144 424 q 169 453 157 447 q 198 452 185 458 q 220 433 211 446 q 236 406 229 421 q 246 381 243 392 q 251 353 249 369 q 250 322 253 338 q 240 295 247 307 q 217 281 232 283 q 190 286 201 279 q 171 304 179 293 q 156 329 163 315 q 147 354 150 343 m 169 575 q 151 592 157 581 q 142 619 144 604 q 142 648 140 633 q 147 674 144 663 q 156 699 150 685 q 171 724 163 713 q 190 742 179 735 q 217 747 201 749 q 240 733 232 744 q 250 706 247 721 q 251 674 253 690 q 246 647 249 658 q 236 622 243 636 q 220 594 229 607 q 198 576 211 582 q 169 575 185 569 m 276 853 q 269 878 268 865 q 275 905 269 892 q 290 930 281 918 q 307 950 299 942 q 327 967 315 958 q 352 981 339 976 q 378 987 365 986 q 404 979 392 988 q 417 954 417 968 q 413 926 418 940 q 397 899 407 913 q 379 878 388 886 q 358 860 371 869 q 330 844 344 850 q 301 840 315 839 q 276 853 288 840 m 510 1040 q 515 1066 508 1054 q 533 1086 522 1078 q 558 1101 544 1094 q 583 1110 572 1107 q 609 1115 594 1113 q 638 1115 624 1117 q 663 1106 651 1113 q 682 1088 675 1100 q 681 1059 688 1072 q 663 1037 675 1046 q 635 1021 650 1028 q 610 1011 621 1014 q 583 1006 599 1008 q 551 1007 567 1004 q 524 1017 536 1010 q 510 1040 513 1025 m 1061 1064 q 1038 1078 1056 1067 q 1004 1102 1021 1089 q 978 1128 988 1115 q 978 1150 968 1142 q 1006 1153 990 1156 q 1036 1144 1021 1150 q 1066 1129 1051 1138 q 1090 1115 1081 1121 q 1115 1101 1100 1110 q 1142 1083 1129 1093 q 1166 1060 1156 1072 q 1176 1035 1176 1049 q 1158 1024 1174 1022 q 1122 1034 1142 1026 q 1085 1051 1103 1042 q 1061 1064 1067 1061 m 879 592 q 888 629 867 615 q 924 618 910 639 q 926 599 929 608 q 914 582 924 589 q 894 580 904 576 q 879 592 885 583 m 1074 704 q 1063 748 1063 724 q 1086 785 1064 772 q 1128 785 1108 796 q 1160 754 1149 774 q 1169 712 1169 735 q 1149 675 1168 689 q 1106 674 1128 663 q 1074 704 1085 685 m 1293 832 q 1281 856 1290 838 q 1263 893 1271 874 q 1253 928 1256 913 q 1264 947 1251 944 q 1290 937 1278 947 q 1312 913 1301 926 q 1331 885 1322 900 q 1344 861 1339 871 q 1358 837 1350 851 q 1373 807 1367 822 q 1381 776 1379 792 q 1378 749 1383 761 q 1358 749 1371 739 q 1331 775 1344 758 q 1307 809 1318 792 q 1293 832 1296 826 m 900 514 q 907 533 900 525 q 925 540 914 540 q 944 533 936 540 q 951 514 951 525 q 944 495 951 503 q 925 488 936 488 q 907 495 914 488 q 900 514 900 503 m 1124 514 q 1138 558 1124 536 q 1175 578 1151 579 q 1211 556 1199 576 q 1224 514 1224 535 q 1211 473 1224 493 q 1175 451 1199 453 q 1138 472 1151 450 q 1124 514 1124 493 m 1378 514 q 1379 540 1378 519 q 1384 582 1381 561 q 1394 618 1388 603 q 1411 628 1400 633 q 1428 608 1422 622 q 1435 577 1433 594 q 1438 542 1438 560 q 1438 515 1438 525 l 1438 514 l 1438 513 q 1438 485 1438 501 q 1435 451 1438 468 q 1428 420 1433 435 q 1411 400 1422 406 q 1394 410 1400 394 q 1384 446 1388 425 q 1379 488 1381 467 q 1378 514 1378 508 m 888 400 q 876 416 878 406 q 879 436 874 426 q 894 449 885 446 q 915 446 904 451 q 926 430 924 440 q 924 410 929 419 q 888 400 910 389 m 1086 243 q 1063 280 1064 256 q 1074 324 1063 304 q 1106 354 1085 343 q 1149 353 1128 365 q 1169 316 1168 339 q 1160 274 1169 293 q 1128 244 1149 256 q 1086 243 1108 232 m 1264 82 q 1253 99 1251 83 q 1263 135 1256 115 q 1281 173 1271 156 q 1293 197 1290 190 q 1307 219 1296 203 q 1331 253 1318 236 q 1358 279 1344 269 q 1378 279 1371 289 q 1381 251 1383 267 q 1373 221 1379 236 q 1358 191 1367 206 q 1344 167 1350 176 q 1331 142 1339 157 q 1312 115 1322 128 q 1290 92 1301 101 q 1264 82 1278 82 m 811 343 q 809 363 806 353 q 821 379 813 372 q 842 381 832 383 q 858 369 851 379 q 847 333 868 347 q 828 331 838 328 q 811 343 818 333 m 904 108 q 903 151 892 131 q 933 183 914 172 q 977 194 953 194 q 1014 171 1001 193 q 1014 130 1025 150 q 983 99 1003 110 q 941 88 964 88 q 904 108 918 89 m 978 -121 q 978 -100 968 -112 q 1004 -74 988 -87 q 1038 -50 1021 -61 q 1061 -36 1056 -39 q 1085 -24 1067 -33 q 1122 -6 1103 -14 q 1158 3 1142 1 q 1176 -7 1174 6 q 1166 -32 1176 -19 q 1142 -55 1156 -44 q 1115 -74 1129 -65 q 1090 -87 1100 -82 q 1066 -101 1081 -93 q 1036 -116 1051 -110 q 1006 -125 1021 -122 q 978 -121 990 -128 m 717 332 q 724 350 717 343 q 743 357 732 357 q 762 350 754 357 q 769 332 769 343 q 762 313 769 321 q 743 306 754 306 q 724 313 732 306 q 717 332 717 321 m 681 82 q 701 119 679 106 q 743 133 722 133 q 786 119 765 133 q 806 82 807 106 q 785 46 806 58 q 743 33 764 33 q 701 46 722 33 q 681 82 681 58 m 629 -154 q 639 -137 624 -144 q 675 -127 654 -131 q 717 -122 696 -124 q 743 -121 738 -121 q 769 -122 749 -121 q 811 -127 790 -124 q 847 -137 832 -131 q 857 -154 863 -144 q 837 -171 851 -165 q 805 -178 822 -176 q 770 -181 788 -181 q 743 -181 753 -181 q 715 -181 732 -181 q 681 -178 699 -181 q 649 -171 664 -176 q 629 -154 635 -165 m 639 333 q 626 350 629 340 q 629 369 624 360 q 645 381 635 379 q 665 379 656 383 q 678 363 675 372 q 675 343 681 353 q 659 331 669 333 q 639 333 649 328 m 503 99 q 473 130 485 110 q 472 171 461 150 q 509 194 485 193 q 553 183 533 194 q 583 151 572 172 q 582 108 594 129 q 545 88 568 89 q 503 99 522 88 m 396 -87 q 372 -74 386 -82 q 344 -55 357 -65 q 321 -33 331 -44 q 311 -7 311 -21 q 328 3 313 6 q 364 -6 344 1 q 401 -24 383 -14 q 426 -36 419 -33 q 449 -50 432 -39 q 482 -74 465 -61 q 508 -100 499 -87 q 508 -121 518 -112 q 482 -125 497 -128 q 451 -116 467 -122 q 420 -101 435 -110 q 396 -87 406 -93 m 563 410 q 560 429 557 419 q 572 446 563 439 q 592 449 582 451 q 608 436 601 446 q 610 416 613 426 q 599 400 608 406 q 579 397 589 394 q 563 410 569 400 m 328 274 q 317 316 317 293 q 338 353 318 339 q 381 354 360 365 q 413 324 401 343 q 423 280 424 304 q 400 243 422 256 q 359 244 379 232 q 328 274 339 256 m 142 167 q 128 191 136 176 q 113 222 119 206 q 104 253 107 238 q 108 279 101 268 q 129 279 117 289 q 155 253 142 269 q 179 219 168 236 q 193 196 190 201 q 206 172 196 190 q 223 135 215 154 q 233 99 231 115 q 222 82 235 83 q 197 92 208 82 q 174 115 185 101 q 156 142 164 128 q 142 167 147 157 m 535 514 q 542 533 535 525 q 561 540 550 540 q 579 533 572 540 q 586 514 586 525 q 579 495 586 503 q 561 488 572 488 q 542 495 550 488 q 535 514 535 503 m 263 514 q 275 556 263 535 q 311 576 288 576 q 349 557 335 578 q 363 514 363 536 q 349 472 363 493 q 311 451 335 450 q 275 472 288 451 q 263 514 263 493 m 49 514 l 49 515 q 49 542 49 525 q 51 577 49 560 q 58 608 53 594 q 75 628 64 622 q 92 618 85 633 q 102 582 99 603 q 107 540 106 561 q 108 514 108 519 q 107 488 108 508 q 102 446 106 467 q 92 410 99 425 q 75 400 85 394 q 58 420 64 406 q 51 451 53 435 q 49 485 49 468 q 49 513 49 501 l 49 514 m 572 582 q 560 599 563 589 q 563 618 557 608 q 579 631 569 628 q 599 628 589 633 q 610 613 608 622 q 608 592 613 603 q 592 579 601 582 q 572 582 582 576 m 338 675 q 317 712 318 689 q 328 754 317 735 q 359 784 339 772 q 400 785 379 796 q 423 748 422 772 q 413 704 424 724 q 380 674 401 685 q 338 675 358 663 m 108 749 q 104 776 101 761 q 113 807 107 792 q 128 837 119 822 q 142 861 136 851 q 156 885 147 871 q 174 913 164 900 q 197 937 185 926 q 222 947 208 947 q 233 928 235 944 q 223 893 231 913 q 206 856 215 874 q 193 832 196 838 q 179 809 190 826 q 155 775 168 792 q 129 749 142 758 q 108 749 117 739 m 629 658 q 639 694 618 681 q 658 697 649 700 q 675 685 668 694 q 678 665 681 675 q 665 650 675 656 q 645 647 656 644 q 629 658 635 649 m 472 857 q 473 899 461 879 q 503 931 485 919 q 545 940 522 940 q 582 919 568 939 q 583 877 594 899 q 553 844 572 856 q 509 834 533 833 q 472 857 485 835 m 310 1035 q 319 1060 310 1049 q 343 1083 329 1072 q 372 1101 357 1093 q 396 1115 386 1110 q 420 1129 406 1121 q 450 1144 435 1138 q 481 1153 465 1150 q 508 1150 496 1156 q 508 1128 518 1142 q 482 1102 499 1115 q 448 1078 465 1089 q 425 1064 431 1067 q 401 1051 419 1061 q 364 1034 383 1042 q 328 1024 344 1026 q 310 1035 311 1022 m 717 696 q 724 715 717 707 q 743 722 732 722 q 762 715 754 722 q 769 696 769 707 q 762 678 769 685 q 743 671 754 671 q 724 678 732 671 q 717 696 717 685 m 681 946 q 701 982 681 969 q 743 994 722 994 q 785 982 764 994 q 806 946 806 969 q 785 909 807 922 q 743 896 764 896 q 700 909 721 896 q 681 946 679 922 m 629 1182 q 649 1199 635 1193 q 681 1206 664 1204 q 715 1208 699 1208 q 743 1208 732 1208 q 770 1208 753 1208 q 805 1206 788 1208 q 837 1199 822 1204 q 857 1182 851 1193 q 847 1165 863 1171 q 811 1155 832 1158 q 769 1150 790 1151 q 743 1149 749 1149 q 716 1150 736 1149 q 675 1155 696 1151 q 639 1165 654 1158 q 629 1182 624 1171 z "},"P":{"ha":1515,"x_min":32,"x_max":1467,"o":"m 592 564 q 497 553 544 549 l 513 410 q 661 419 590 397 l 592 564 m 406 582 q 363 615 381 596 q 346 633 353 624 q 332 654 339 643 l 278 589 q 342 497 301 538 q 357 482 349 489 q 375 468 365 475 l 406 582 m 299 772 q 315 852 300 813 q 363 924 331 892 l 342 944 q 280 858 301 906 q 251 760 258 811 l 299 772 m 514 988 q 632 954 578 988 l 697 1008 q 526 1035 617 1046 l 514 988 m 704 881 q 733 789 729 839 l 876 774 q 818 911 864 849 l 704 881 m 722 694 q 671 615 706 650 l 789 497 q 867 625 844 554 l 722 694 m 789 497 q 661 419 732 442 l 732 276 q 906 379 831 304 l 789 497 m 513 410 q 375 468 438 421 l 344 357 q 432 300 385 322 q 528 267 479 278 l 513 410 m 278 589 q 251 760 240 669 l 206 747 q 225 526 185 635 l 278 589 m 342 944 q 428 1006 381 985 q 526 1035 475 1028 l 539 1081 q 422 1041 478 1069 q 319 967 367 1013 l 342 944 m 697 1008 q 789 944 749 985 q 818 911 803 929 l 929 942 q 918 954 924 949 q 907 967 913 960 q 838 1022 875 999 q 760 1061 800 1046 l 697 1008 m 876 774 q 867 625 889 696 l 1010 554 q 1018 758 1039 656 l 876 774 m 732 276 q 528 267 632 246 l 543 125 q 801 132 674 96 l 732 276 m 344 357 q 332 368 338 363 q 319 379 326 374 q 264 449 288 411 q 225 526 240 486 l 174 465 q 223 358 192 410 q 299 263 254 307 l 315 246 l 344 357 m 206 747 q 245 864 217 808 q 319 967 274 919 l 299 988 q 210 869 244 933 q 161 735 176 806 l 206 747 m 539 1081 q 760 1061 651 1101 l 821 1113 q 550 1125 688 1154 l 539 1081 m 929 942 q 1018 758 999 860 l 1160 743 q 1040 971 1131 871 l 929 942 m 1010 554 q 906 379 982 456 l 1024 263 q 1154 485 1119 358 l 1010 554 m 1024 263 q 801 132 928 167 l 872 -12 q 1015 47 947 8 q 1142 144 1083 86 l 1024 263 m 543 125 q 423 170 481 140 q 315 246 365 200 l 285 136 q 414 41 344 78 q 558 -15 483 4 l 543 125 m 174 465 q 161 735 132 599 l 117 724 q 99 564 97 644 q 122 406 100 483 l 174 465 m 299 988 q 417 1076 353 1042 q 550 1125 481 1110 l 563 1169 q 882 1163 722 1210 l 942 1213 q 1110 1144 1029 1189 q 1260 1031 1190 1099 l 1150 1001 q 1245 872 1208 942 q 1301 728 1282 803 l 1443 713 q 1467 531 1467 624 q 1444 350 1467 439 q 1375 178 1421 261 q 1260 26 1329 96 q 1025 -129 1156 -78 q 758 -181 894 -181 q 490 -129 621 -181 q 256 26 360 -78 q 175 122 213 69 q 58 408 85 253 q 72 711 32 563 l 117 724 q 176 875 136 803 q 278 1008 215 947 l 299 988 m 821 1113 q 928 1063 878 1093 q 1024 988 979 1032 l 1040 971 l 1150 1001 q 1142 1008 1147 1003 q 1019 1103 1085 1065 q 882 1163 954 1142 l 821 1113 m 1160 743 q 1174 614 1175 679 q 1154 485 1172 549 l 1299 415 q 1320 571 1319 492 q 1301 728 1321 650 l 1160 743 m 872 -12 q 715 -34 794 -33 q 558 -15 636 -35 l 574 -157 q 758 -181 665 -181 q 942 -156 851 -181 l 872 -12 m 285 136 l 276 144 q 181 267 219 201 q 122 406 143 333 l 72 344 q 113 230 88 286 q 175 122 139 174 q 256 26 213 69 l 285 136 m 1299 415 q 1240 272 1279 340 q 1142 144 1200 203 l 1260 26 q 1374 176 1328 96 q 1443 344 1419 257 l 1299 415 m 383 903 q 438 934 407 926 q 500 935 469 942 l 514 988 q 433 971 472 986 q 363 924 394 956 l 383 903 m 390 725 q 382 732 388 726 q 363 757 371 743 q 351 786 356 771 l 299 772 q 332 654 299 708 l 390 725 m 482 697 q 438 700 461 696 l 406 582 q 497 553 447 557 l 482 697 m 554 732 q 521 708 539 717 l 592 564 q 671 615 636 581 l 554 732 m 589 804 q 578 765 588 786 l 722 694 q 733 789 738 742 l 589 804 m 561 894 q 585 849 579 872 l 704 881 q 689 903 697 892 q 671 924 681 914 q 632 954 653 942 l 561 894 z "}}}
